<?xml version="1.0" encoding="UTF-8" standalone="no"?>
<!-- Created with Inkscape (http://www.inkscape.org/) -->

<svg
   xmlns:dc="http://purl.org/dc/elements/1.1/"
   xmlns:cc="http://creativecommons.org/ns#"
   xmlns:rdf="http://www.w3.org/1999/02/22-rdf-syntax-ns#"
   xmlns:svg="http://www.w3.org/2000/svg"
   xmlns="http://www.w3.org/2000/svg"
   xmlns:sodipodi="http://sodipodi.sourceforge.net/DTD/sodipodi-0.dtd"
   xmlns:inkscape="http://www.inkscape.org/namespaces/inkscape"
   version="1.1"
   id="svg2"
   xml:space="preserve"
   width="666.66669"
   height="666.66669"
   viewBox="0 0 666.66669 666.66669"
   sodipodi:docname="bg-login.svg"
   inkscape:version="0.92.4 (5da689c313, 2019-01-14)"><metadata
     id="metadata8"><rdf:RDF><cc:Work
         rdf:about=""><dc:format>image/svg+xml</dc:format><dc:type
           rdf:resource="http://purl.org/dc/dcmitype/StillImage" /><dc:title></dc:title></cc:Work></rdf:RDF></metadata><defs
     id="defs6"><clipPath
       clipPathUnits="userSpaceOnUse"
       id="clipPath18"><path
         d="M 0,500 H 500 V 0 H 0 Z"
         id="path16"
         inkscape:connector-curvature="0" /></clipPath><clipPath
       clipPathUnits="userSpaceOnUse"
       id="clipPath118"><path
         d="M 0,500 H 500 V 0 H 0 Z"
         id="path116"
         inkscape:connector-curvature="0" /></clipPath><clipPath
       clipPathUnits="userSpaceOnUse"
       id="clipPath126"><path
         d="M 91.4722,417.035 H 432.551 V 121.854 H 91.4722 Z"
         id="path124"
         inkscape:connector-curvature="0" /></clipPath><clipPath
       clipPathUnits="userSpaceOnUse"
       id="clipPath142"><path
         d="M 0,500 H 500 V 0 H 0 Z"
         id="path140"
         inkscape:connector-curvature="0" /></clipPath><clipPath
       clipPathUnits="userSpaceOnUse"
       id="clipPath674"><path
         d="M 0,500 H 500 V 0 H 0 Z"
         id="path672"
         inkscape:connector-curvature="0" /></clipPath></defs><sodipodi:namedview
     pagecolor="#ffffff"
     bordercolor="#666666"
     borderopacity="1"
     objecttolerance="10"
     gridtolerance="10"
     guidetolerance="10"
     inkscape:pageopacity="0"
     inkscape:pageshadow="2"
     inkscape:window-width="1920"
     inkscape:window-height="956"
     id="namedview4"
     showgrid="false"
     inkscape:zoom="1.0012632"
     inkscape:cx="509.48974"
     inkscape:cy="341.95497"
     inkscape:window-x="0"
     inkscape:window-y="28"
     inkscape:window-maximized="1"
     inkscape:current-layer="g136" /><g
     id="g10"
     inkscape:groupmode="layer"
     inkscape:label="2586869"
     transform="matrix(1.3333333,0,0,-1.3333333,0,666.66667)"
     style="display:inline"><g
       id="g12"><g
         id="g14"
         clip-path="url(#clipPath18)"><g
           id="g20"
           transform="translate(430.2983,210.2402)"><path
             d="m 0,0 v -42.411 c 0,-7.674 -6.221,-13.895 -13.894,-13.895 h -152.075 c -7.674,0 -13.894,6.221 -13.894,13.895 v 35.836 l -18.933,19.891 184.858,0.579 C -6.247,13.919 0,7.691 0,0"
             style="fill:#e3e4f2;fill-opacity:1;fill-rule:nonzero;stroke:none"
             id="path22"
             inkscape:connector-curvature="0" /></g><g
           id="g24"
           transform="translate(272.8521,198.4395)"><path
             d="M 0,0 137.998,0.638 137.983,4.879 -0.014,4.241 Z"
             style="fill:#d3d4e9;fill-opacity:1;fill-rule:nonzero;stroke:none"
             id="path26"
             inkscape:connector-curvature="0" /></g><g
           id="g28"
           transform="translate(272.8521,184.4854)"><path
             d="M 0,0 137.998,0.638 137.983,4.879 -0.014,4.241 Z"
             style="fill:#d3d4e9;fill-opacity:1;fill-rule:nonzero;stroke:none"
             id="path30"
             inkscape:connector-curvature="0" /></g><g
           id="g32"
           transform="translate(272.8521,170.8848)"><path
             d="M 0,0 54.601,0.269 54.584,4.51 -0.017,4.241 Z"
             style="fill:#d3d4e9;fill-opacity:1;fill-rule:nonzero;stroke:none"
             id="path34"
             inkscape:connector-curvature="0" /></g><g
           id="g36"
           transform="translate(160.7891,453.4199)"><path
             d="m 0,0 h 89.695 c 4.44,0 8.04,-3.599 8.04,-8.039 v -43.872 c 0,-4.44 -3.6,-8.039 -8.04,-8.039 H 13.583 c -4.44,0 -8.04,3.599 -8.04,8.039 v 46.368 z"
             style="fill:#e3e4f2;fill-opacity:1;fill-rule:nonzero;stroke:none"
             id="path38"
             inkscape:connector-curvature="0" /></g><g
           id="g40"
           transform="translate(273.4736,373.5552)"><path
             d="m 0,0 v -15.754 c 0,-2.211 1.792,-4.004 4.004,-4.004 h 88.06 c 2.212,0 4.004,1.793 4.004,4.004 v 8.613 L 106.181,3.678 4.017,4.004 C 1.8,4.011 0,2.216 0,0"
             style="fill:#e3e4f2;fill-opacity:1;fill-rule:nonzero;stroke:none"
             id="path42"
             inkscape:connector-curvature="0" /></g><g
           id="g44"
           transform="translate(214.1108,404.9053)"><path
             d="m 0,0 v -28.129 c 0,-5.09 -4.125,-9.216 -9.215,-9.216 h -100.863 c -5.09,0 -9.216,4.126 -9.216,9.216 V -4.362 L -131.851,8.832 -9.244,9.215 C -4.144,9.231 0,5.101 0,0"
             style="fill:#b5b7d6;fill-opacity:1;fill-rule:nonzero;stroke:none"
             id="path46"
             inkscape:connector-curvature="0" /></g><g
           id="g48"
           transform="translate(109.6851,397.0781)"><path
             d="M 0,0 91.527,0.423 91.517,3.236 -0.009,2.813 Z"
             style="fill:#e3e4f2;fill-opacity:1;fill-rule:nonzero;stroke:none"
             id="path50"
             inkscape:connector-curvature="0" /></g><g
           id="g52"
           transform="translate(109.6851,387.8232)"><path
             d="M 0,0 91.527,0.423 91.517,3.236 -0.009,2.813 Z"
             style="fill:#e3e4f2;fill-opacity:1;fill-rule:nonzero;stroke:none"
             id="path54"
             inkscape:connector-curvature="0" /></g><g
           id="g56"
           transform="translate(109.6851,378.8022)"><path
             d="M 0,0 36.214,0.178 36.203,2.991 -0.011,2.813 Z"
             style="fill:#e3e4f2;fill-opacity:1;fill-rule:nonzero;stroke:none"
             id="path58"
             inkscape:connector-curvature="0" /></g><g
           id="g60"
           transform="translate(65.4536,312.0762)"><path
             d="m 0,0 v -42.412 c 0,-7.673 6.22,-13.894 13.894,-13.894 h 152.075 c 7.674,0 13.894,6.221 13.894,13.894 V -6.576 L 198.796,13.316 13.938,13.894 C 6.247,13.918 0,7.69 0,0"
             style="fill:#e3e4f2;fill-opacity:1;fill-rule:nonzero;stroke:none"
             id="path62"
             inkscape:connector-curvature="0" /></g><g
           id="g64"
           transform="translate(222.8999,300.2754)"><path
             d="m 0,0 -137.998,0.637 0.015,4.242 L 0.014,4.241 Z"
             style="fill:#d3d4e9;fill-opacity:1;fill-rule:nonzero;stroke:none"
             id="path66"
             inkscape:connector-curvature="0" /></g><g
           id="g68"
           transform="translate(222.8999,286.3213)"><path
             d="m 0,0 -137.998,0.637 0.015,4.242 L 0.014,4.241 Z"
             style="fill:#d3d4e9;fill-opacity:1;fill-rule:nonzero;stroke:none"
             id="path70"
             inkscape:connector-curvature="0" /></g><g
           id="g72"
           transform="translate(222.8999,272.7202)"><path
             d="M 0,0 -54.602,0.269 -54.584,4.51 0.017,4.241 Z"
             style="fill:#d3d4e9;fill-opacity:1;fill-rule:nonzero;stroke:none"
             id="path74"
             inkscape:connector-curvature="0" /></g><g
           id="g76"
           transform="translate(365.5981,419.9912)"><path
             d="m 0,0 c 0.21,-10.196 -7.885,-18.632 -18.082,-18.843 -10.196,-0.21 -18.632,7.885 -18.842,18.082 -0.211,10.196 7.885,18.633 18.081,18.843 C -8.646,18.292 -0.21,10.196 0,0"
             style="fill:#e3e4f2;fill-opacity:1;fill-rule:nonzero;stroke:none"
             id="path78"
             inkscape:connector-curvature="0" /></g><g
           id="g80"
           transform="translate(340.7651,424.2632)"><path
             d="M 0,0 C 0.7,0.058 1.334,-0.714 1.418,-1.725 1.501,-2.735 1.001,-3.6 0.302,-3.658 -0.398,-3.716 -1.033,-2.943 -1.116,-1.934 -1.2,-0.923 -0.7,-0.058 0,0"
             style="fill:#b5b7d6;fill-opacity:1;fill-rule:nonzero;stroke:none"
             id="path82"
             inkscape:connector-curvature="0" /></g><g
           id="g84"
           transform="translate(342.3892,428.9385)"><path
             d="m 0,0 c -0.013,-0.159 -1.56,-0.013 -3.289,-0.667 -1.741,-0.625 -2.821,-1.741 -2.935,-1.628 -0.119,0.066 0.866,1.441 2.751,2.126 C -1.594,0.534 0.048,0.128 0,0"
             style="fill:#b5b7d6;fill-opacity:1;fill-rule:nonzero;stroke:none"
             id="path86"
             inkscape:connector-curvature="0" /></g><g
           id="g88"
           transform="translate(352.5054,424.5049)"><path
             d="m 0,0 c -0.702,0.029 -1.304,-0.769 -1.346,-1.781 -0.041,-1.013 0.494,-1.857 1.196,-1.886 0.701,-0.029 1.304,0.769 1.345,1.782 C 1.237,-0.873 0.702,-0.028 0,0"
             style="fill:#b5b7d6;fill-opacity:1;fill-rule:nonzero;stroke:none"
             id="path90"
             inkscape:connector-curvature="0" /></g><g
           id="g92"
           transform="translate(350.6899,429.1099)"><path
             d="M 0,0 C -0.053,0.125 1.571,0.6 3.477,-0.026 5.389,-0.632 6.43,-1.965 6.313,-2.037 6.205,-2.154 5.079,-1.084 3.314,-0.531 1.559,0.051 0.02,-0.159 0,0"
             style="fill:#b5b7d6;fill-opacity:1;fill-rule:nonzero;stroke:none"
             id="path94"
             inkscape:connector-curvature="0" /></g><g
           id="g96"
           transform="translate(356.2461,419.7988)"><path
             d="m 0,0 c 0.028,-0.004 0.014,-0.361 -0.128,-0.989 -0.14,-0.629 -0.463,-1.519 -1.073,-2.507 -0.606,-0.986 -1.542,-2.044 -2.816,-2.914 -1.266,-0.87 -2.9,-1.518 -4.693,-1.627 -1.795,-0.078 -3.489,0.397 -4.838,1.131 -1.358,0.734 -2.399,1.688 -3.103,2.607 -0.709,0.919 -1.124,1.771 -1.327,2.381 -0.207,0.61 -0.258,0.964 -0.231,0.97 0.11,0.048 0.398,-1.394 1.848,-3.114 0.714,-0.855 1.736,-1.736 3.04,-2.411 1.298,-0.676 2.9,-1.107 4.583,-1.034 1.681,0.103 3.229,0.696 4.449,1.504 1.228,0.806 2.153,1.789 2.774,2.713 C -0.251,-1.429 -0.114,0.036 0,0"
             style="fill:#b5b7d6;fill-opacity:1;fill-rule:nonzero;stroke:none"
             id="path98"
             inkscape:connector-curvature="0" /></g><g
           id="g100"
           transform="translate(93.3501,212.0312)"><path
             d="M 0,0 H 2.674 L 8.51,7.78 v 5.106 c 0,0 4.133,0.243 3.647,-6.444 -0.487,-6.685 0.039,-4.983 0.039,-4.983 0,0 8.776,-0.032 9.506,-0.762 0.53,-0.53 0.77,-8.869 0.861,-13.392 0.046,-2.277 -1.414,-4.394 -3.626,-4.932 -0.315,-0.077 -0.633,-0.122 -0.945,-0.122 -2.189,0 -13.372,1.702 -13.372,1.702 H 0 Z"
             style="fill:#e3e4f2;fill-opacity:1;fill-rule:nonzero;stroke:none"
             id="path102"
             inkscape:connector-curvature="0" /></g><g
           id="g104"
           transform="translate(85.6963,213.4326)"><path
             d="m 0,0 1.644,-17.496 h 4.58 v 17.143 z"
             style="fill:#e3e4f2;fill-opacity:1;fill-rule:nonzero;stroke:none"
             id="path106"
             inkscape:connector-curvature="0" /></g><g
           id="g108"
           transform="translate(461.0132,364.0752)"><path
             d="m 0,0 c -1.245,1.49 -3.504,1.434 -4.945,0.239 -1.442,-1.196 -2.069,-2.552 -2.249,-4.567 -0.444,1.974 -1.36,3.229 -2.957,4.224 -1.597,0.997 -3.86,0.755 -4.909,-0.885 -0.614,-0.963 -0.736,-2.247 -0.504,-3.413 0.231,-1.165 0.644,-2.363 1.421,-3.19 2.767,-2.948 4.2,-3.41 7.634,-5.408 3.119,2.428 4.13,3.051 6.468,6.334 0.656,0.922 0.907,2.163 0.983,3.349 C 1.018,-2.132 0.73,-0.874 0,0"
             style="fill:#e3e4f2;fill-opacity:1;fill-rule:nonzero;stroke:none"
             id="path110"
             inkscape:connector-curvature="0" /></g></g></g><g
       id="g112"><g
         id="g114"
         clip-path="url(#clipPath118)"><g
           id="g120"><g
             id="g122" /><g
             id="g134"><g
               clip-path="url(#clipPath126)"
               id="g132"
               style="opacity:0.39999402"><g
                 transform="translate(91.9458,317.605)"
                 id="g130"><path
                   d="m 0,0 c 8.195,-103.296 48.4,-203.463 169.203,-195.283 62.274,4.218 182.317,55.437 170.604,133.982 C 323.664,46.947 211.395,-15.499 154.149,10.799 114.909,28.824 128.697,100.547 62.94,99.417 10.96,98.524 -3.407,42.942 0,0"
                   style="fill:#e3e4f2;fill-opacity:1;fill-rule:nonzero;stroke:none"
                   id="path128"
                   inkscape:connector-curvature="0" /></g></g></g></g></g></g><g
       id="g136"><g
         transform="translate(296.2192,94.2744)"
         id="g144"><path
           inkscape:connector-curvature="0"
           id="path146"
           style="fill:#3a6cd6;fill-opacity:1;fill-rule:nonzero;stroke:none"
           d="m 0,0 -104.079,0.481 c -12.517,0.057 -22.619,10.249 -22.567,22.767 l 1.104,260.927 c 0.053,12.525 10.251,22.634 22.776,22.576 l 104.078,-0.48 c 12.518,-0.059 22.62,-10.25 22.567,-22.768 L 22.776,22.575 C 22.723,10.051 12.524,-0.058 0,0" /></g><g
         transform="translate(297.3833,391.5396)"
         id="g148"><path
           inkscape:connector-curvature="0"
           id="path150"
           style="fill:#ffffff;fill-opacity:1;fill-rule:nonzero;stroke:none"
           d="m 0,0 -20.179,0.093 c -2.706,0.012 -4.91,-2.271 -4.921,-5.099 l -0.017,-3.661 c -0.01,-2.829 -2.215,-5.112 -4.921,-5.1 l -39.333,0.182 c -2.706,0.012 -4.89,2.316 -4.879,5.145 l 0.017,3.661 c 0.011,2.828 -2.173,5.132 -4.879,5.145 l -7.097,0.032 -17.662,0.082 c -8.771,0.04 -15.914,-7.04 -15.951,-15.811 l -1.076,-254.683 c -0.038,-8.769 7.038,-15.905 15.804,-15.946 l 103.871,-0.48 c 8.77,-0.041 15.913,7.039 15.951,15.811 l 1.076,254.684 C 15.841,-7.178 8.767,-0.041 0,0" /></g><g
         transform="translate(240.29,137.2412)"
         id="g152"><path
           inkscape:connector-curvature="0"
           id="path154"
           style="fill:#5987e4;fill-opacity:1;fill-rule:nonzero;stroke:none"
           d="m 0,0 c 0,-1.203 -0.976,-2.179 -2.179,-2.179 -1.204,0 -2.179,0.976 -2.179,2.179 0,1.204 0.975,2.18 2.179,2.18 C -0.976,2.18 0,1.204 0,0" /></g><g
         transform="translate(248.5688,137.2412)"
         id="g156"><path
           inkscape:connector-curvature="0"
           id="path158"
           style="fill:#5987e4;fill-opacity:1;fill-rule:nonzero;stroke:none"
           d="m 0,0 c 0,-1.203 -0.976,-2.179 -2.179,-2.179 -1.204,0 -2.179,0.976 -2.179,2.179 0,1.204 0.975,2.18 2.179,2.18 C -0.976,2.18 0,1.204 0,0" /></g><g
         transform="translate(256.8481,137.2412)"
         id="g160"><path
           inkscape:connector-curvature="0"
           id="path162"
           style="fill:#5987e4;fill-opacity:1;fill-rule:nonzero;stroke:none"
           d="m 0,0 c 0,-1.203 -0.976,-2.179 -2.18,-2.179 -1.203,0 -2.179,0.976 -2.179,2.179 0,1.204 0.976,2.18 2.179,2.18 C -0.976,2.18 0,1.204 0,0" /></g><g
         transform="translate(196.9106,320.4873)"
         id="g164"><path
           inkscape:connector-curvature="0"
           id="path166"
           style="fill:#5987e4;fill-opacity:1;fill-rule:nonzero;stroke:none"
           d="m 0,0 c 0,0 -0.006,0.187 0.004,0.557 0.014,0.367 0.08,0.917 0.269,1.616 0.208,0.691 0.555,1.535 1.192,2.391 0.632,0.853 1.555,1.727 2.819,2.322 1.239,0.659 2.859,0.81 4.521,0.749 1.682,0.001 3.511,0.002 5.48,0.003 C 18.228,7.636 22.73,7.634 27.73,7.632 47.752,7.591 75.748,7.535 107.709,7.471 l 0.595,-0.002 -0.41,-0.43 c -3.263,-3.43 -6.732,-7.077 -10.255,-10.781 l 0.071,0.179 c 0,-3.425 0.001,-7.08 0.001,-10.769 0,-2.376 0,-4.738 -0.001,-7.085 -0.008,-1.154 0.067,-2.375 -0.266,-3.551 -0.303,-1.167 -0.881,-2.258 -1.681,-3.149 -0.793,-0.893 -1.781,-1.615 -2.883,-2.063 -1.093,-0.458 -2.314,-0.609 -3.456,-0.584 -2.279,10e-4 -4.539,0.002 -6.78,0.002 -8.962,0.006 -17.607,0.011 -25.842,0.015 -16.468,0.021 -31.298,0.04 -43.758,0.056 -1.557,0.004 -3.077,0.006 -4.558,0.009 -1.464,-0.045 -3.01,0.104 -4.285,0.774 -2.612,1.244 -4.195,3.877 -4.32,6.391 -0.04,4.966 0.014,9.213 0.017,12.701 0.021,3.47 0.038,6.169 0.049,8.02 0.011,0.905 0.02,1.599 0.026,2.086 C -0.018,-0.241 0,0 0,0 c 0,0 0.018,-0.241 0.026,-0.71 0.006,-0.487 0.015,-1.181 0.026,-2.086 0.011,-1.851 0.028,-4.55 0.049,-8.02 0.027,-3.478 0.004,-7.755 0.071,-12.681 0.133,-2.418 1.668,-4.934 4.173,-6.112 1.241,-0.636 2.658,-0.771 4.141,-0.723 1.481,0.003 3.001,0.006 4.558,0.01 12.46,0.015 27.29,0.034 43.758,0.055 8.235,0.005 16.88,0.01 25.842,0.016 2.241,0 4.501,0.001 6.78,0.002 1.133,-0.022 2.225,0.119 3.26,0.547 1.028,0.417 1.95,1.093 2.691,1.927 0.747,0.832 1.285,1.851 1.567,2.939 0.31,1.083 0.241,2.235 0.248,3.419 v 7.085 c 0,3.689 0.001,7.344 0.001,10.769 v 0.104 l 0.072,0.075 c 3.525,3.702 6.996,7.347 10.26,10.775 l 0.185,-0.432 C 75.746,7.095 47.751,7.213 27.729,7.298 22.729,7.327 18.227,7.354 14.285,7.376 12.315,7.39 10.486,7.402 8.804,7.413 7.121,7.486 5.592,7.354 4.361,6.722 3.121,6.155 2.207,5.31 1.575,4.481 0.938,3.649 0.583,2.824 0.363,2.146 -0.033,0.767 0.045,-0.006 0,0" /></g><g
         transform="translate(282.2158,314.0937)"
         id="g168"><path
           inkscape:connector-curvature="0"
           id="path170"
           style="fill:#5987e4;fill-opacity:1;fill-rule:nonzero;stroke:none"
           d="M 0,0 -74.768,0.345 -74.76,2.643 0.007,2.298 Z" /></g><g
         transform="translate(282.2158,306.5332)"
         id="g172"><path
           inkscape:connector-curvature="0"
           id="path174"
           style="fill:#5987e4;fill-opacity:1;fill-rule:nonzero;stroke:none"
           d="M 0,0 -74.768,0.345 -74.76,2.644 0.007,2.298 Z" /></g><g
         transform="translate(282.2158,299.1641)"
         id="g176"><path
           inkscape:connector-curvature="0"
           id="path178"
           style="fill:#5987e4;fill-opacity:1;fill-rule:nonzero;stroke:none"
           d="M 0,0 -29.583,0.146 -29.574,2.443 0.009,2.298 Z" /></g><g
         transform="translate(298.564,269.8467)"
         id="g180"><path
           inkscape:connector-curvature="0"
           id="path182"
           style="fill:#5987e4;fill-opacity:1;fill-rule:nonzero;stroke:none"
           d="m 0,0 v -22.979 c 0,-4.158 -3.37,-7.528 -7.528,-7.528 h -82.395 c -4.157,0 -7.528,3.37 -7.528,7.528 V -3.563 L -107.709,7.214 -7.551,7.528 C -3.385,7.541 0,4.167 0,0" /></g><g
         transform="translate(213.2588,263.4521)"
         id="g184"><path
           inkscape:connector-curvature="0"
           id="path186"
           style="fill:#ffffff;fill-opacity:1;fill-rule:nonzero;stroke:none"
           d="M 0,0 74.768,0.346 74.76,2.644 -0.008,2.298 Z" /></g><g
         transform="translate(213.2588,255.8926)"
         id="g188"><path
           inkscape:connector-curvature="0"
           id="path190"
           style="fill:#ffffff;fill-opacity:1;fill-rule:nonzero;stroke:none"
           d="M 0,0 74.768,0.345 74.76,2.643 -0.008,2.298 Z" /></g><g
         transform="translate(213.2588,248.5234)"
         id="g192"><path
           inkscape:connector-curvature="0"
           id="path194"
           style="fill:#ffffff;fill-opacity:1;fill-rule:nonzero;stroke:none"
           d="M 0,0 29.583,0.146 29.574,2.443 -0.009,2.298 Z" /></g><g
         transform="translate(253.7065,357.8804)"
         id="g196"><path
           inkscape:connector-curvature="0"
           id="path198"
           style="fill:#5987e4;fill-opacity:1;fill-rule:nonzero;stroke:none"
           d="M 0,0 C 1.402,0.588 2.399,2.035 2.408,3.738 2.417,5.971 0.728,7.788 -1.366,7.797 -3.458,7.807 -5.163,6.005 -5.171,3.773 -5.179,2.054 -4.174,0.59 -2.757,0 -8.589,-0.878 -8.324,-7.217 -8.324,-7.217 L 5.466,-7.28 c 0,0 0.315,6.407 -5.466,7.28" /></g><g
         transform="translate(246.1377,357.8804)"
         id="g200"><path
           inkscape:connector-curvature="0"
           id="path202"
           style="fill:#3a6cd6;fill-opacity:1;fill-rule:nonzero;stroke:none"
           d="M 0,0 C 1.402,0.588 2.399,2.035 2.408,3.738 2.417,5.971 0.728,7.788 -1.365,7.797 -3.458,7.807 -5.162,6.005 -5.171,3.773 -5.178,2.054 -4.174,0.59 -2.757,0 -8.588,-0.878 -8.324,-7.217 -8.324,-7.217 L 5.467,-7.28 c 0,0 0.314,6.407 -5.467,7.28" /></g><g
         transform="translate(267.1851,343.1489)"
         id="g204"><path
           inkscape:connector-curvature="0"
           id="path206"
           style="fill:#3a6cd6;fill-opacity:1;fill-rule:nonzero;stroke:none"
           d="m 0,0 -37.066,0.171 0.02,4.596 L 0.02,4.596 Z" /></g><g
         transform="translate(198.6445,217.4775)"
         id="g208"><path
           inkscape:connector-curvature="0"
           id="path210"
           style="fill:#5987e4;fill-opacity:1;fill-rule:nonzero;stroke:none"
           d="M 0,0 C 0,0 -0.021,0.186 0.017,0.546 0.053,0.904 0.163,1.451 0.524,2.069 0.875,2.684 1.51,3.373 2.487,3.78 3.479,4.226 4.722,4.05 6.05,4.091 11.451,4.093 19.262,4.094 28.978,4.097 48.453,4.057 75.562,4 106.181,3.937 l 0.593,-10e-4 -0.405,-0.434 C 103.138,0.044 99.723,-3.611 96.258,-7.318 l 0.071,0.177 V -8 c 0,-2.143 -10e-4,-4.272 -10e-4,-6.389 -0.005,-0.535 0.011,-1.044 -0.012,-1.598 -0.029,-0.56 -0.171,-1.114 -0.415,-1.617 -0.484,-1.01 -1.378,-1.807 -2.43,-2.17 -0.518,-0.19 -1.097,-0.25 -1.621,-0.243 h -1.557 c -1.036,0 -2.067,0.001 -3.095,0.001 -2.055,10e-4 -4.093,0.002 -6.114,0.002 -8.082,0.006 -15.877,0.011 -23.304,0.016 -14.85,0.02 -28.223,0.04 -39.461,0.056 -2.807,0.006 -5.481,0.012 -8.011,0.018 -1.266,0.003 -2.494,0.007 -3.686,0.01 -0.596,0.002 -1.182,0.004 -1.759,0.005 -0.568,0.012 -1.152,-0.037 -1.726,0.097 -1.136,0.244 -2.095,0.97 -2.65,1.883 -0.281,0.456 -0.466,0.958 -0.551,1.465 -0.092,0.514 -0.055,1.009 -0.06,1.483 0.008,1.909 0.016,3.654 0.023,5.226 0.021,3.127 0.037,5.561 0.049,7.233 0.011,0.814 0.019,1.439 0.026,1.881 C -0.018,-0.217 0,0 0,0 c 0,0 0.018,-0.217 0.027,-0.641 0.006,-0.442 0.015,-1.067 0.026,-1.881 0.011,-1.672 0.028,-4.106 0.049,-7.233 0.006,-1.572 0.014,-3.317 0.022,-5.226 0.008,-0.481 -0.022,-0.969 0.067,-1.439 0.084,-0.474 0.26,-0.942 0.525,-1.366 0.526,-0.851 1.426,-1.522 2.482,-1.74 0.52,-0.122 1.083,-0.074 1.665,-0.081 0.577,0.002 1.163,0.003 1.759,0.004 1.192,0.003 2.42,0.007 3.686,0.01 2.53,0.006 5.204,0.012 8.011,0.019 11.238,0.015 24.611,0.035 39.461,0.055 7.427,0.005 15.222,0.01 23.304,0.016 2.021,0.001 4.059,0.001 6.114,0.002 1.028,0 2.059,0.001 3.095,0.001 h 1.557 c 0.513,-0.005 0.984,0.048 1.45,0.214 0.922,0.319 1.709,1.02 2.134,1.907 0.213,0.442 0.337,0.928 0.363,1.42 0.022,0.498 0.006,1.047 0.011,1.57 0,2.117 0,4.246 0,6.389 v 0.859 0.103 l 0.07,0.075 c 3.465,3.706 6.881,7.36 10.114,10.817 L 106.18,3.42 C 75.561,3.552 48.452,3.668 28.977,3.751 19.261,3.815 11.451,3.867 6.05,3.903 4.708,3.878 3.486,4.062 2.541,3.647 1.592,3.269 0.963,2.611 0.608,2.02 0.241,1.425 0.117,0.892 0.065,0.54 0.012,0.186 0.014,-0.001 0,0" /></g><g
         transform="translate(285.5684,211.416)"
         id="g212"><path
           inkscape:connector-curvature="0"
           id="path214"
           style="fill:#5987e4;fill-opacity:1;fill-rule:nonzero;stroke:none"
           d="M 0,0 -74.768,0.345 -74.76,2.643 0.007,2.298 Z" /></g><g
         transform="translate(285.5684,204.0195)"
         id="g216"><path
           inkscape:connector-curvature="0"
           id="path218"
           style="fill:#5987e4;fill-opacity:1;fill-rule:nonzero;stroke:none"
           d="M 0,0 -30.336,0.148 -30.327,2.446 0.009,2.298 Z" /></g><g
         transform="translate(295.9321,176.459)"
         id="g220"><path
           inkscape:connector-curvature="0"
           id="path222"
           style="fill:#5987e4;fill-opacity:1;fill-rule:nonzero;stroke:none"
           d="m 0,0 v -15.754 c 0,-2.211 -1.792,-4.004 -4.003,-4.004 h -88.061 c -2.211,0 -4.004,1.793 -4.004,4.004 v 8.613 L -106.18,3.679 -4.016,4.004 C -1.8,4.011 0,2.217 0,0" /></g><g
         transform="translate(209.0088,170.3975)"
         id="g224"><path
           inkscape:connector-curvature="0"
           id="path226"
           style="fill:#ffffff;fill-opacity:1;fill-rule:nonzero;stroke:none"
           d="M 0,0 74.768,0.346 74.76,2.644 -0.008,2.298 Z" /></g><g
         transform="translate(209.0088,163.001)"
         id="g228"><path
           inkscape:connector-curvature="0"
           id="path230"
           style="fill:#ffffff;fill-opacity:1;fill-rule:nonzero;stroke:none"
           d="M 0,0 74.77,0.346 74.762,2.644 -0.008,2.298 Z" /></g><g
         transform="translate(428.1738,376.999)"
         id="g232"><path
           inkscape:connector-curvature="0"
           id="path234"
           style="fill:#e4b26d;fill-opacity:1;fill-rule:nonzero;stroke:none"
           d="m 0,0 c 0,-6.476 -5.25,-11.725 -11.725,-11.725 -6.476,0 -11.725,5.249 -11.725,11.725 0,6.476 5.249,11.725 11.725,11.725 C -5.25,11.725 0,6.476 0,0" /></g><g
         transform="translate(412.5586,380.3628)"
         id="g236"><path
           inkscape:connector-curvature="0"
           id="path238"
           style="fill:#14365b;fill-opacity:1;fill-rule:nonzero;stroke:none"
           d="M 0,0 C 0.445,0.027 0.838,-0.471 0.877,-1.113 0.917,-1.755 0.588,-2.298 0.144,-2.326 -0.302,-2.354 -0.694,-1.855 -0.734,-1.212 -0.774,-0.57 -0.445,-0.027 0,0" /></g><g
         transform="translate(413.6509,383.3096)"
         id="g240"><path
           inkscape:connector-curvature="0"
           id="path242"
           style="fill:#14365b;fill-opacity:1;fill-rule:nonzero;stroke:none"
           d="m 0,0 c -0.027,-0.168 -0.985,-0.117 -2.056,-0.499 -1.078,-0.361 -1.8,-0.993 -1.925,-0.876 -0.129,0.087 0.492,1.009 1.733,1.432 C -1.011,0.49 0.047,0.148 0,0" /></g><g
         transform="translate(422.1504,378.5327)"
         id="g244"><path
           inkscape:connector-curvature="0"
           id="path246"
           style="fill:#14365b;fill-opacity:1;fill-rule:nonzero;stroke:none"
           d="M 0,0 C -0.126,-0.105 -0.756,0.574 -1.767,0.677 -2.776,0.792 -3.536,0.263 -3.637,0.392 -3.688,0.448 -3.564,0.675 -3.229,0.903 -2.9,1.129 -2.338,1.33 -1.704,1.262 -1.069,1.193 -0.563,0.877 -0.29,0.586 -0.01,0.292 0.062,0.044 0,0" /></g><g
         transform="translate(423.1572,380.4912)"
         id="g248"><path
           inkscape:connector-curvature="0"
           id="path250"
           style="fill:#14365b;fill-opacity:1;fill-rule:nonzero;stroke:none"
           d="M 0,0 C -0.091,-0.146 -1.042,0.354 -2.31,0.391 -3.578,0.456 -4.565,0.034 -4.644,0.186 -4.742,0.308 -3.742,1.044 -2.286,0.979 -0.831,0.927 0.107,0.113 0,0" /></g><g
         transform="translate(422.3276,377.2319)"
         id="g252"><path
           inkscape:connector-curvature="0"
           id="path254"
           style="fill:#14365b;fill-opacity:1;fill-rule:nonzero;stroke:none"
           d="m 0,0 c 0.052,0.007 0.066,-0.971 -0.735,-2.253 -0.756,-1.25 -2.52,-2.765 -4.896,-2.86 -2.377,-0.054 -4.233,1.347 -5.066,2.548 -0.88,1.23 -0.928,2.206 -0.875,2.202 0.104,0.036 0.3,-0.868 1.203,-1.947 0.86,-1.061 2.6,-2.267 4.72,-2.215 2.118,0.082 3.778,1.394 4.571,2.507 C -0.245,-0.885 -0.105,0.029 0,0" /></g><g
         transform="translate(88.2173,169.5107)"
         id="g256"><path
           inkscape:connector-curvature="0"
           id="path258"
           style="fill:#e4b26d;fill-opacity:1;fill-rule:nonzero;stroke:none"
           d="m 0,0 c -0.26,-9.105 -7.852,-16.276 -16.958,-16.017 -9.105,0.261 -16.276,7.853 -16.016,16.958 0.26,9.106 7.852,16.277 16.958,16.017 C -6.911,16.698 0.26,9.105 0,0" /></g><g
         transform="translate(68.4761,174.5547)"
         id="g260"><path
           inkscape:connector-curvature="0"
           id="path262"
           style="fill:#14365b;fill-opacity:1;fill-rule:nonzero;stroke:none"
           d="m 0,0 c -0.567,0.827 -1.732,0.908 -2.531,0.363 -0.8,-0.545 -1.188,-1.212 -1.378,-2.239 -0.133,1.037 -0.543,1.727 -1.316,2.316 -0.773,0.589 -1.949,0.576 -2.567,-0.217 -0.363,-0.465 -0.488,-1.12 -0.426,-1.731 0.063,-0.61 0.217,-1.246 0.576,-1.71 1.28,-1.65 1.995,-1.957 3.663,-3.151 1.723,1.098 2.272,1.368 3.634,2.943 0.383,0.443 0.572,1.069 0.669,1.675 C 0.42,-1.146 0.333,-0.484 0,0" /></g><g
         transform="translate(83.0356,174.1396)"
         id="g264"><path
           inkscape:connector-curvature="0"
           id="path266"
           style="fill:#14365b;fill-opacity:1;fill-rule:nonzero;stroke:none"
           d="m 0,0 c -0.568,0.826 -1.732,0.907 -2.531,0.362 -0.8,-0.544 -1.189,-1.211 -1.379,-2.238 -0.132,1.036 -0.542,1.726 -1.315,2.315 -0.773,0.59 -1.949,0.576 -2.567,-0.217 -0.363,-0.465 -0.488,-1.119 -0.426,-1.73 0.062,-0.61 0.217,-1.247 0.576,-1.71 1.28,-1.65 1.995,-1.958 3.663,-3.151 1.722,1.097 2.272,1.368 3.634,2.942 0.383,0.443 0.572,1.069 0.668,1.675 C 0.42,-1.146 0.333,-0.485 0,0" /></g><g
         transform="translate(77.0806,165.9531)"
         id="g268"><path
           inkscape:connector-curvature="0"
           id="path270"
           style="fill:#ffffff;fill-opacity:1;fill-rule:nonzero;stroke:none"
           d="m 0,0 c -0.333,-2.689 -2.943,-4.893 -5.65,-4.77 -2.706,0.124 -5.106,2.554 -5.194,5.262 z" /></g><g
         transform="translate(134.2544,167.6006)"
         id="g272"
         style="fill:#e9c6af"><path
           inkscape:connector-curvature="0"
           id="path274"
           style="fill:#e9c6af;fill-opacity:1;fill-rule:nonzero;stroke:none"
           d="m 0,0 c 0.29,1.689 -0.355,7.87 -0.355,7.87 0,0 -6.478,0.686 -6.872,7.11 -0.393,6.425 0,21.242 0,21.242 L 4.574,41.99 17.554,32.157 15.587,0.033 Z" /></g><g
         transform="translate(128.8203,193.082)"
         id="g276"><path
           inkscape:connector-curvature="0"
           id="path278"
           style="fill:#14365b;fill-opacity:1;fill-rule:nonzero;stroke:none"
           d="m 0,0 c 0,-0.454 0.368,-0.822 0.822,-0.822 0.454,0 0.823,0.368 0.823,0.822 0,0.454 -0.369,0.822 -0.823,0.822 C 0.368,0.822 0,0.454 0,0" /></g><g
         transform="translate(127.6157,193.6729)"
         id="g280"><path
           inkscape:connector-curvature="0"
           id="path282"
           style="fill:#14365b;fill-opacity:1;fill-rule:nonzero;stroke:none"
           d="M 0,0 C 0.106,-0.106 0.714,0.41 1.599,0.458 2.483,0.519 3.149,0.079 3.241,0.198 3.287,0.251 3.176,0.446 2.886,0.646 2.6,0.845 2.118,1.026 1.566,0.992 1.015,0.959 0.558,0.721 0.298,0.488 0.034,0.255 -0.051,0.047 0,0" /></g><g
         transform="translate(138.3853,193.2344)"
         id="g284"><path
           inkscape:connector-curvature="0"
           id="path286"
           style="fill:#14365b;fill-opacity:1;fill-rule:nonzero;stroke:none"
           d="m 0,0 c 0,-0.454 0.368,-0.822 0.822,-0.822 0.454,0 0.823,0.368 0.823,0.822 0,0.454 -0.369,0.822 -0.823,0.822 C 0.368,0.822 0,0.454 0,0" /></g><g
         transform="translate(137.1807,193.8252)"
         id="g288"><path
           inkscape:connector-curvature="0"
           id="path290"
           style="fill:#14365b;fill-opacity:1;fill-rule:nonzero;stroke:none"
           d="M 0,0 C 0.106,-0.106 0.714,0.41 1.599,0.458 2.483,0.518 3.149,0.079 3.241,0.197 3.287,0.251 3.177,0.446 2.886,0.646 2.6,0.845 2.118,1.025 1.566,0.992 1.015,0.958 0.558,0.72 0.299,0.488 0.034,0.255 -0.051,0.047 0,0" /></g><g
         transform="translate(134.1411,186.4414)"
         id="g292"><path
           inkscape:connector-curvature="0"
           id="path294"
           style="fill:#14365b;fill-opacity:1;fill-rule:nonzero;stroke:none"
           d="m 0,0 c 0.002,0.05 -0.552,0.116 -1.449,0.184 -0.225,0.011 -0.446,0.045 -0.491,0.209 -0.061,0.171 0.025,0.432 0.126,0.712 0.192,0.582 0.394,1.194 0.606,1.835 0.842,2.611 1.447,4.751 1.352,4.783 C 0.048,7.753 -0.712,5.662 -1.554,3.052 -1.757,2.407 -1.95,1.793 -2.134,1.208 -2.21,0.936 -2.347,0.624 -2.221,0.281 -2.155,0.11 -1.987,-0.007 -1.843,-0.039 -1.697,-0.077 -1.57,-0.072 -1.458,-0.073 -0.559,-0.075 -0.002,-0.051 0,0" /></g><g
         transform="translate(137.0654,185.6035)"
         id="g296"><path
           inkscape:connector-curvature="0"
           id="path298"
           style="fill:#ffffff;fill-opacity:1;fill-rule:nonzero;stroke:none"
           d="m 0,0 c -0.441,-0.251 -2.539,-1.504 -4.281,-1.474 0,0 1.115,-1.601 2.935,-0.833 C 0.544,-1.509 0,0 0,0" /></g><g
         transform="translate(133.8994,175.4707)"
         id="g300"><path
           inkscape:connector-curvature="0"
           id="path302"
           style="fill:#a36957;fill-opacity:1;fill-rule:nonzero;stroke:none"
           d="m 0,0 c 0,0 4.327,-0.048 8.512,2.875 0,0 -1.929,-4.717 -8.372,-4.451 z" /></g><g
         transform="translate(160.3442,195.0039)"
         id="g304"><path
           inkscape:connector-curvature="0"
           id="path306"
           style="fill:#14365b;fill-opacity:1;fill-rule:nonzero;stroke:none"
           d="M 0,0 C 0,0 2.613,-14.812 -9.897,-17.485 L -9.523,0.36 Z" /></g><g
         transform="translate(159.9331,198.2754)"
         id="g308"><path
           inkscape:connector-curvature="0"
           id="path310"
           style="fill:#14365b;fill-opacity:1;fill-rule:nonzero;stroke:none"
           d="m 0,0 c -0.965,3.688 -2.508,6.518 -4.286,8.687 1.806,-0.75 3.042,-1.507 3.257,-1.259 0.123,0.145 -0.217,0.691 -0.987,1.353 -0.765,0.662 -1.983,1.407 -3.461,1.89 -0.2,0.065 -0.393,0.107 -0.59,0.159 0.821,0.343 1.582,0.809 2.22,1.432 1.498,1.466 2.173,3.868 1.249,5.75 -0.826,1.682 -2.816,2.646 -4.68,2.448 -1.865,-0.197 -3.535,-1.447 -4.444,-3.087 -0.219,-0.395 -0.395,-0.811 -0.533,-1.24 0.03,0.638 0.09,1.352 0.221,2.119 0.396,2.475 1.32,4.326 1.172,4.399 -0.109,0.08 -1.29,-1.728 -1.707,-4.31 -0.041,-0.238 -0.065,-0.467 -0.09,-0.696 -0.223,0.709 -0.471,1.343 -0.723,1.869 -0.616,1.294 -1.191,1.981 -1.358,1.895 -0.355,-0.177 0.791,-2.883 1.26,-6.54 -1.584,0.486 -2.853,0.643 -3.48,0.643 -2.184,0 -5.799,1.049 -10.928,-3.107 -1.53,-0.987 -3.122,-2.38 -4.404,-4.23 -2.004,-2.9 -2.703,-6.118 -2.749,-8.382 -0.031,-1.141 0.06,-2.061 0.172,-2.686 0.11,-0.626 0.214,-0.961 0.246,-0.956 0.102,0.014 -0.192,1.395 -0.035,3.621 0.088,1.365 0.406,3.067 1.09,4.828 -1.277,-4.466 0.487,-8.074 0.487,-8.074 l 11.448,1.789 c -0.737,2.511 -0.197,6.491 0.145,8.441 2.02,-9.348 10.053,-13.845 10.053,-13.845 L 0.614,-5.193 C 0.454,-4.104 0.254,-0.971 0,0" /></g><g
         transform="translate(187.6509,55.0645)"
         id="g312"><path
           inkscape:connector-curvature="0"
           id="path314"
           style="fill:#3a6cd6;fill-opacity:1;fill-rule:nonzero;stroke:none"
           d="M 0,0 C 0.368,-0.182 29.906,-5.97 28.817,-2.048 27.729,1.875 0.263,8.234 0.263,8.234 Z" /></g><g
         transform="translate(201.0825,57.6738)"
         id="g316"><path
           inkscape:connector-curvature="0"
           id="path318"
           style="fill:#184bb8;fill-opacity:1;fill-rule:nonzero;stroke:none"
           d="M 0,0 C 0.141,0.018 0.345,-0.686 0.337,-1.576 0.333,-2.468 0.118,-3.168 -0.022,-3.148 -0.167,-3.128 -0.188,-2.426 -0.184,-1.573 -0.176,-0.721 -0.145,-0.018 0,0" /></g><g
         transform="translate(199.5078,58.2139)"
         id="g320"><path
           inkscape:connector-curvature="0"
           id="path322"
           style="fill:#184bb8;fill-opacity:1;fill-rule:nonzero;stroke:none"
           d="m 0,0 c 0.137,0.025 0.388,-0.796 0.295,-1.833 -0.087,-1.038 -0.475,-1.804 -0.606,-1.755 -0.14,0.047 0.008,0.833 0.087,1.8 C -0.136,-0.823 -0.146,-0.022 0,0" /></g><g
         transform="translate(197.6011,58.375)"
         id="g324"><path
           inkscape:connector-curvature="0"
           id="path326"
           style="fill:#184bb8;fill-opacity:1;fill-rule:nonzero;stroke:none"
           d="M 0,0 C 0.141,0.015 0.34,-0.782 0.358,-1.783 0.378,-2.785 0.21,-3.589 0.068,-3.579 -0.077,-3.57 -0.143,-2.771 -0.162,-1.793 -0.18,-0.816 -0.145,-0.015 0,0" /></g><g
         transform="translate(193.9668,61.2637)"
         id="g328"><path
           inkscape:connector-curvature="0"
           id="path330"
           style="fill:#184bb8;fill-opacity:1;fill-rule:nonzero;stroke:none"
           d="m 0,0 c 0.004,0.018 0.163,-0.002 0.462,-0.056 0.3,-0.052 0.739,-0.142 1.304,-0.265 1.127,-0.247 2.753,-0.635 4.745,-1.18 1.991,-0.545 4.349,-1.246 6.936,-2.122 1.291,-0.445 2.652,-0.893 4.032,-1.483 1.371,-0.593 2.778,-1.348 3.942,-2.483 0.139,-0.14 0.31,-0.269 0.432,-0.536 0.146,-0.271 -0.003,-0.69 -0.246,-0.825 -0.456,-0.292 -0.882,-0.236 -1.251,-0.278 -0.769,-0.06 -1.528,-0.085 -2.274,-0.106 -1.492,-0.031 -2.93,0.021 -4.296,0.105 -2.732,0.173 -5.172,0.518 -7.212,0.836 -2.039,0.327 -3.679,0.64 -4.811,0.866 -0.514,0.109 -0.943,0.2 -1.3,0.275 -0.296,0.068 -0.45,0.113 -0.447,0.131 0.006,0.036 0.64,-0.041 1.781,-0.206 1.225,-0.178 2.855,-0.414 4.831,-0.701 2.04,-0.271 4.474,-0.576 7.187,-0.722 1.355,-0.07 2.781,-0.112 4.256,-0.073 0.737,0.023 1.488,0.051 2.247,0.112 0.381,0.028 0.779,0.03 0.987,0.184 0.091,0.072 0.096,0.11 0.068,0.201 -0.037,0.096 -0.173,0.23 -0.314,0.363 -1.097,1.07 -2.444,1.803 -3.783,2.389 -1.345,0.583 -2.703,1.041 -3.984,1.498 -2.57,0.896 -4.909,1.633 -6.883,2.222 C 4.436,-1.267 2.828,-0.825 1.717,-0.518 0.605,-0.211 -0.009,-0.037 0,0" /></g><g
         transform="translate(209.6885,56.8672)"
         id="g332"><path
           inkscape:connector-curvature="0"
           id="path334"
           style="fill:#184bb8;fill-opacity:1;fill-rule:nonzero;stroke:none"
           d="M 0,0 C 0.146,-0.048 -0.15,-1.166 -0.043,-2.55 0.043,-3.935 0.492,-5 0.354,-5.068 0.243,-5.145 -0.464,-4.097 -0.563,-2.586 -0.675,-1.076 -0.121,0.06 0,0" /></g><g
         transform="translate(89.9487,60.9131)"
         id="g336"><path
           inkscape:connector-curvature="0"
           id="path338"
           style="fill:#3a6cd6;fill-opacity:1;fill-rule:nonzero;stroke:none"
           d="M 0,0 C -0.406,0.051 -30.217,-4.114 -27.908,-7.467 -25.6,-10.818 2.438,-7.87 2.438,-7.87 Z" /></g><g
         transform="translate(78.103,54.0645)"
         id="g340"><path
           inkscape:connector-curvature="0"
           id="path342"
           style="fill:#184bb8;fill-opacity:1;fill-rule:nonzero;stroke:none"
           d="M 0,0 C -0.126,-0.063 -0.549,0.535 -0.833,1.38 -1.119,2.224 -1.145,2.956 -1.006,2.982 -0.863,3.011 -0.614,2.354 -0.339,1.546 -0.068,0.737 0.131,0.063 0,0" /></g><g
         transform="translate(79.7681,54.0674)"
         id="g344"><path
           inkscape:connector-curvature="0"
           id="path346"
           style="fill:#184bb8;fill-opacity:1;fill-rule:nonzero;stroke:none"
           d="m 0,0 c -0.121,-0.068 -0.626,0.626 -0.877,1.636 -0.256,1.01 -0.139,1.86 0,1.857 0.148,0.001 0.265,-0.791 0.505,-1.73 C -0.14,0.822 0.131,0.068 0,0" /></g><g
         transform="translate(81.623,54.5371)"
         id="g348"><path
           inkscape:connector-curvature="0"
           id="path350"
           style="fill:#184bb8;fill-opacity:1;fill-rule:nonzero;stroke:none"
           d="m 0,0 c -0.129,-0.061 -0.577,0.628 -0.921,1.568 -0.346,0.941 -0.448,1.755 -0.311,1.793 0.14,0.038 0.462,-0.696 0.8,-1.613 C -0.097,0.83 0.132,0.062 0,0" /></g><g
         transform="translate(86.001,52.9912)"
         id="g352"><path
           inkscape:connector-curvature="0"
           id="path354"
           style="fill:#184bb8;fill-opacity:1;fill-rule:nonzero;stroke:none"
           d="m 0,0 c 0.002,-0.018 -0.155,-0.051 -0.456,-0.098 -0.3,-0.048 -0.745,-0.106 -1.318,-0.173 -1.146,-0.135 -2.809,-0.298 -4.87,-0.434 -2.061,-0.134 -4.519,-0.24 -7.25,-0.257 -1.365,0 -2.797,-0.02 -4.295,0.088 -1.489,0.113 -3.065,0.367 -4.537,1.061 -0.176,0.086 -0.38,0.153 -0.583,0.365 -0.225,0.209 -0.222,0.653 -0.036,0.86 0.336,0.425 0.758,0.511 1.093,0.67 0.707,0.309 1.416,0.58 2.114,0.843 1.4,0.516 2.776,0.936 4.095,1.302 2.64,0.728 5.059,1.198 7.091,1.562 2.034,0.357 3.686,0.596 4.829,0.752 0.522,0.064 0.957,0.119 1.319,0.164 0.303,0.031 0.463,0.039 0.466,0.022 C -2.333,6.69 -2.957,6.557 -4.09,6.341 -5.305,6.109 -6.923,5.801 -8.884,5.427 c -2.017,-0.409 -4.418,-0.914 -7.03,-1.662 -1.304,-0.375 -2.665,-0.801 -4.047,-1.319 -0.689,-0.263 -1.39,-0.534 -2.087,-0.84 -0.351,-0.151 -0.727,-0.282 -0.873,-0.495 -0.063,-0.098 -0.055,-0.135 10e-4,-0.213 0.066,-0.079 0.239,-0.161 0.416,-0.24 1.385,-0.654 2.897,-0.907 4.355,-1.023 1.462,-0.114 2.895,-0.104 4.254,-0.116 2.723,-0.011 5.174,0.057 7.231,0.144 2.058,0.088 3.722,0.195 4.872,0.268 C -0.641,0.002 -0.004,0.038 0,0" /></g><g
         transform="translate(69.7051,52.0195)"
         id="g356"><path
           inkscape:connector-curvature="0"
           id="path358"
           style="fill:#184bb8;fill-opacity:1;fill-rule:nonzero;stroke:none"
           d="M 0,0 C -0.153,-0.003 -0.239,1.15 -0.791,2.424 -1.325,3.705 -2.096,4.566 -1.988,4.675 -1.907,4.783 -0.898,4.023 -0.312,2.627 0.287,1.237 0.134,-0.018 0,0" /></g><g
         transform="translate(182.4287,97.0986)"
         id="g360"><path
           inkscape:connector-curvature="0"
           id="path362"
           style="fill:#5987e4;fill-opacity:1;fill-rule:nonzero;stroke:none"
           d="m 0,0 h -15.17 l -55.985,-1.447 -15.959,2.072 c -2.498,0.546 -4.135,0.776 -4.661,0.604 -1.55,-0.505 -3.665,-1.999 -5.469,-4.153 -6.103,-7.287 -2.266,-18.508 6.911,-20.989 l 8.625,-2.333 -18.865,-6.061 6.373,-18.079 c 0,0 28.159,6.089 55.469,12.518 l 43.705,-11.82 6.298,20.288 c 0,0 -2.778,0.91 -7.409,2.414 4.645,1.415 7.59,2.54 8.023,3.214 C 14.629,-19.507 19.505,0.305 0,0" /></g><g
         transform="translate(186.0044,70.0244)"
         id="g364"><path
           inkscape:connector-curvature="0"
           id="path366"
           style="fill:#3a6cd6;fill-opacity:1;fill-rule:nonzero;stroke:none"
           d="m 0,0 -32.481,-13.45 -9.825,2.657 z" /></g><g
         transform="translate(100.8052,95.585)"
         id="g368"><path
           inkscape:connector-curvature="0"
           id="path370"
           style="fill:#3a6cd6;fill-opacity:1;fill-rule:nonzero;stroke:none"
           d="M 0,0 41.587,-11.911 73.253,-1.112 Z" /></g><g
         transform="translate(94.8857,48.0273)"
         id="g372"><path
           inkscape:connector-curvature="0"
           id="path374"
           style="fill:#3a6cd6;fill-opacity:1;fill-rule:nonzero;stroke:none"
           d="m 0,0 c -0.063,-0.028 -0.58,0.966 -1.323,2.616 -0.742,1.65 -1.7,3.96 -2.647,6.555 -0.946,2.595 -1.701,4.979 -2.196,6.72 -0.495,1.741 -0.739,2.834 -0.672,2.853 0.071,0.022 0.441,-1.035 1.024,-2.743 0.583,-1.708 1.39,-4.065 2.333,-6.652 C -2.537,6.764 -1.637,4.44 -0.983,2.758 -0.329,1.076 0.068,0.03 0,0" /></g><g
         transform="translate(195.1279,90.3604)"
         id="g376"><path
           inkscape:connector-curvature="0"
           id="path378"
           style="fill:#3a6cd6;fill-opacity:1;fill-rule:nonzero;stroke:none"
           d="m 0,0 c 0.003,-0.009 -0.085,-0.048 -0.26,-0.115 -0.203,-0.075 -0.46,-0.169 -0.779,-0.287 -0.725,-0.254 -1.733,-0.608 -3.013,-1.057 -2.663,-0.902 -6.452,-2.187 -11.119,-3.768 -9.403,-3.143 -22.423,-7.392 -36.854,-11.922 -14.437,-4.531 -27.552,-8.484 -37.064,-11.277 -4.734,-1.369 -8.577,-2.48 -11.278,-3.261 -1.306,-0.363 -2.335,-0.649 -3.075,-0.854 -0.329,-0.086 -0.594,-0.155 -0.804,-0.21 -0.182,-0.044 -0.276,-0.062 -0.279,-0.054 -0.002,0.009 0.087,0.044 0.264,0.106 0.206,0.067 0.466,0.152 0.789,0.259 0.733,0.227 1.753,0.544 3.048,0.948 2.69,0.818 6.516,1.984 11.23,3.419 9.484,2.883 22.578,6.891 37.013,11.421 14.429,4.529 27.464,8.721 36.895,11.775 4.688,1.516 8.495,2.745 11.17,3.61 1.293,0.41 2.311,0.733 3.044,0.964 0.326,0.098 0.588,0.176 0.795,0.239 C -0.097,-0.014 -0.003,0.009 0,0" /></g><g
         transform="translate(164.8516,91.0908)"
         id="g380"><path
           inkscape:connector-curvature="0"
           id="path382"
           style="fill:#3a6cd6;fill-opacity:1;fill-rule:nonzero;stroke:none"
           d="m 0,0 c 0.006,-0.018 -0.214,-0.11 -0.639,-0.271 -0.475,-0.175 -1.094,-0.402 -1.863,-0.684 -1.624,-0.58 -3.98,-1.399 -6.899,-2.388 -5.837,-1.981 -13.927,-4.64 -22.882,-7.51 -8.96,-2.866 -17.091,-5.399 -22.993,-7.176 -2.951,-0.89 -5.344,-1.592 -7.002,-2.063 -0.791,-0.218 -1.426,-0.392 -1.914,-0.526 -0.44,-0.115 -0.673,-0.167 -0.678,-0.15 -0.005,0.017 0.218,0.103 0.647,0.25 0.481,0.159 1.107,0.364 1.886,0.62 1.7,0.543 4.06,1.296 6.952,2.22 5.923,1.89 14.008,4.47 22.943,7.322 8.927,2.867 17.006,5.461 22.925,7.363 2.891,0.928 5.25,1.684 6.95,2.229 0.782,0.244 1.411,0.441 1.895,0.591 C -0.237,-0.043 -0.006,0.017 0,0" /></g><g
         transform="translate(142.1797,83.7412)"
         id="g384"><path
           inkscape:connector-curvature="0"
           id="path386"
           style="fill:#3a6cd6;fill-opacity:1;fill-rule:nonzero;stroke:none"
           d="m 0,0 c -0.04,-0.138 -9.334,2.401 -20.758,5.672 -11.427,3.27 -20.656,6.034 -20.617,6.172 0.041,0.138 9.333,-2.401 20.76,-5.672 C -9.191,2.902 0.04,0.139 0,0" /></g><g
         transform="translate(187.5923,69.0566)"
         id="g388"><path
           inkscape:connector-curvature="0"
           id="path390"
           style="fill:#3a6cd6;fill-opacity:1;fill-rule:nonzero;stroke:none"
           d="m 0,0 c 0.134,-0.053 -1.469,-4.504 -3.581,-9.942 -2.111,-5.44 -3.932,-9.806 -4.066,-9.754 -0.134,0.051 1.469,4.503 3.581,9.942 C -1.955,-4.315 -0.134,0.052 0,0" /></g><g
         transform="translate(183.6938,60.6836)"
         id="g392"><path
           inkscape:connector-curvature="0"
           id="path394"
           style="fill:#3a6cd6;fill-opacity:1;fill-rule:nonzero;stroke:none"
           d="m 0,0 c -0.037,-0.139 -3.697,0.717 -8.173,1.91 -4.478,1.194 -8.077,2.274 -8.04,2.412 0.037,0.139 3.695,-0.716 8.174,-1.909 C -3.563,1.22 0.037,0.14 0,0" /></g><g
         transform="translate(121.4927,77.2646)"
         id="g396"><path
           inkscape:connector-curvature="0"
           id="path398"
           style="fill:#3a6cd6;fill-opacity:1;fill-rule:nonzero;stroke:none"
           d="m 0,0 c -0.01,-0.035 -0.561,0.077 -1.551,0.308 -1.076,0.265 -2.483,0.611 -4.178,1.028 -3.519,0.899 -8.389,2.12 -13.705,3.72 -5.32,1.59 -10.032,3.38 -13.345,4.889 -1.656,0.757 -2.971,1.42 -3.865,1.907 -0.892,0.491 -1.376,0.777 -1.359,0.809 0.017,0.031 0.533,-0.194 1.45,-0.629 0.919,-0.428 2.254,-1.039 3.922,-1.749 3.337,-1.418 8.043,-3.142 13.348,-4.728 5.3,-1.596 10.154,-2.872 13.649,-3.863 C -3.956,1.21 -2.564,0.81 -1.499,0.504 -0.525,0.212 0.009,0.034 0,0" /></g><g
         transform="translate(152.2305,168.4941)"
         id="g400"
         style="fill:#ff5555"><path
           inkscape:connector-curvature="0"
           id="path402"
           style="fill:#ff5555;fill-opacity:1;fill-rule:nonzero;stroke:none"
           d="m 0,0 -1.259,-0.016 -0.182,4.261 -16.89,-1.028 c 0,0 0.174,-2.021 0.156,-3.393 -10.395,-1.028 -27.066,-6.335 -27.464,-29.753 l 13.343,-0.303 c -1.137,-10.74 -0.962,-17.155 -2.09,-21.186 -1.863,-6.66 -7.759,-20.712 -6.571,-21.425 1.187,-0.713 55.916,-1.725 58.529,-0.3 2.612,1.425 -2.141,19.764 -3.329,24.75 -0.756,3.175 -0.913,10.463 -0.932,16.093 l 15.321,0.684 c 0,0 1.086,31.702 -28.632,31.616" /></g><g
         transform="translate(150.9067,168.6592)"
         id="g404"><path
           inkscape:connector-curvature="0"
           id="path406"
           style="fill:#14365b;fill-opacity:1;fill-rule:nonzero;stroke:none"
           d="m 0,0 c 0.007,-0.068 -0.938,-0.245 -2.48,-0.423 -1.543,-0.178 -3.684,-0.343 -6.054,-0.392 -2.37,-0.049 -4.517,0.026 -6.066,0.139 -1.548,0.113 -2.5,0.25 -2.495,0.32 0.005,0.074 0.964,0.067 2.511,0.048 1.546,-0.018 3.682,-0.036 6.039,0.013 2.357,0.05 4.489,0.156 6.034,0.239 C -0.967,0.027 -0.008,0.075 0,0" /></g><g
         transform="translate(136.9521,171.8936)"
         id="g408"><path
           inkscape:connector-curvature="0"
           id="path410"
           style="fill:#14365b;fill-opacity:1;fill-rule:nonzero;stroke:none"
           d="m 0,0 c 0.144,0 0.26,-0.823 0.26,-1.838 0,-1.015 -0.116,-1.838 -0.26,-1.838 -0.144,0 -0.26,0.823 -0.26,1.838 C -0.26,-0.823 -0.144,0 0,0" /></g><g
         transform="translate(141.4702,172.2129)"
         id="g412"><path
           inkscape:connector-curvature="0"
           id="path414"
           style="fill:#14365b;fill-opacity:1;fill-rule:nonzero;stroke:none"
           d="M 0,0 C 0.144,0.004 0.284,-0.899 0.313,-2.018 0.343,-3.136 0.25,-4.045 0.106,-4.049 -0.038,-4.052 -0.178,-3.148 -0.207,-2.031 -0.236,-0.913 -0.144,-0.004 0,0" /></g><g
         transform="translate(146.1265,172.374)"
         id="g416"><path
           inkscape:connector-curvature="0"
           id="path418"
           style="fill:#14365b;fill-opacity:1;fill-rule:nonzero;stroke:none"
           d="M 0,0 C 0.142,0.014 0.343,-0.888 0.366,-2.018 0.391,-3.147 0.229,-4.057 0.087,-4.049 -0.059,-4.042 -0.13,-3.138 -0.155,-2.028 -0.178,-0.92 -0.145,-0.014 0,0" /></g><g
         transform="translate(149.5107,172.5322)"
         id="g420"><path
           inkscape:connector-curvature="0"
           id="path422"
           style="fill:#14365b;fill-opacity:1;fill-rule:nonzero;stroke:none"
           d="M 0,0 C 0.146,-0.001 0.253,-0.88 0.392,-1.951 0.525,-3.023 0.641,-3.901 0.5,-3.939 0.364,-3.978 0.014,-3.129 -0.125,-2.017 -0.268,-0.905 -0.141,0.003 0,0" /></g><g
         transform="translate(122.0688,138.5537)"
         id="g424"><path
           inkscape:connector-curvature="0"
           id="path426"
           style="fill:#14365b;fill-opacity:1;fill-rule:nonzero;stroke:none"
           d="m 0,0 c -0.144,-0.001 -0.279,2.25 -0.302,5.027 -0.023,2.779 0.074,5.032 0.219,5.034 C 0.06,10.062 0.195,7.811 0.219,5.032 0.242,2.254 0.144,0.001 0,0" /></g><g
         transform="translate(165.019,136.8779)"
         id="g428"><path
           inkscape:connector-curvature="0"
           id="path430"
           style="fill:#14365b;fill-opacity:1;fill-rule:nonzero;stroke:none"
           d="m 0,0 c -0.144,-0.013 -0.464,2.407 -0.715,5.402 -0.252,2.997 -0.34,5.436 -0.197,5.448 0.143,0.012 0.464,-2.407 0.715,-5.404 C 0.055,2.45 0.143,0.012 0,0" /></g><g
         transform="translate(122.0688,138.5537)"
         id="g432"><path
           inkscape:connector-curvature="0"
           id="path434"
           style="fill:#14365b;fill-opacity:1;fill-rule:nonzero;stroke:none"
           d="m 0,0 c -0.004,-0.073 -0.881,-0.083 -2.294,-0.071 -1.613,0.011 -3.469,0.025 -5.517,0.041 -2.049,-0.01 -3.905,-0.02 -5.518,-0.028 -1.413,-0.007 -2.29,0.005 -2.294,0.079 -0.004,0.07 0.866,0.187 2.28,0.29 1.413,0.102 3.37,0.182 5.532,0.179 2.163,-0.003 4.12,-0.088 5.532,-0.194 C -0.866,0.19 0.004,0.07 0,0" /></g><g
         transform="translate(180.8623,136.8779)"
         id="g436"><path
           inkscape:connector-curvature="0"
           id="path438"
           style="fill:#14365b;fill-opacity:1;fill-rule:nonzero;stroke:none"
           d="m 0,0 c 0,-0.144 -3.652,-0.261 -8.157,-0.261 -4.506,0 -8.157,0.117 -8.157,0.261 0,0.144 3.651,0.26 8.157,0.26 C -3.652,0.26 0,0.144 0,0" /></g><g
         transform="translate(180.1855,136.75)"
         id="g440"
         style="fill:#e9c6af"><path
           inkscape:connector-curvature="0"
           id="path442"
           style="fill:#e9c6af;fill-opacity:1;fill-rule:nonzero;stroke:none"
           d="m 0,0 c 0,0 3.992,-37.331 -7.44,-41.004 -11.433,-3.671 -34.016,13.717 -34.016,13.717 l 6.504,13.155 c 0,0 15.041,-10.419 18.241,-8.073 3.198,2.346 1.544,22.205 1.544,22.205 z" /></g><g
         transform="translate(106.8071,138.5537)"
         id="g444"
         style="fill:#e9c6af"><path
           inkscape:connector-curvature="0"
           id="path446"
           style="fill:#e9c6af;fill-opacity:1;fill-rule:nonzero;stroke:none"
           d="m 0,0 c 0,0 -4.07,-36.957 7.363,-40.63 11.432,-3.671 34.015,13.717 34.015,13.717 l -6.503,13.155 c 0,0 -15.089,-9.641 -18.218,-7.202 -1.81,1.412 -1.863,20.768 -1.863,20.768 C 9.454,0.035 4.526,0.264 0,0" /></g><g
         transform="translate(173.0747,130.8467)"
         id="g448"><path
           inkscape:connector-curvature="0"
           id="path450"
           style="fill:#14365b;fill-opacity:1;fill-rule:nonzero;stroke:none"
           d="m 0,0 -7.59,-37.196 c 0,0 -46.644,0.359 -47.13,0.503 C -55.205,-36.553 -59.703,0 -59.703,0 Z" /></g><g
         transform="translate(139.5742,112.0059)"
         id="g452"><path
           inkscape:connector-curvature="0"
           id="path454"
           style="fill:#ffffff;fill-opacity:1;fill-rule:nonzero;stroke:none"
           d="M 0,0 C 0,-1.442 1.251,-2.612 2.794,-2.612 4.339,-2.612 5.59,-1.442 5.59,0 5.59,1.441 4.339,2.61 2.794,2.61 1.251,2.61 0,1.441 0,0" /></g><g
         transform="translate(149.3691,193.6162)"
         id="g456"
         style="fill:#ffccaa"><path
           inkscape:connector-curvature="0"
           id="path458"
           style="fill:#ffccaa;fill-opacity:1;fill-rule:nonzero;stroke:none"
           d="M 0,0 C 0.522,0.515 2.241,0.603 2.837,0.177 3.433,-0.249 3.758,-0.968 3.9,-1.687 4.133,-2.874 3.891,-4.201 3.055,-5.076 2.219,-5.951 0.741,-6.228 -0.245,-5.525" /></g><g
         transform="translate(150.5747,189.1104)"
         id="g460"><path
           inkscape:connector-curvature="0"
           id="path462"
           style="fill:#a36957;fill-opacity:1;fill-rule:nonzero;stroke:none"
           d="M 0,0 C -0.007,0.082 0.312,0.134 0.687,0.41 1.062,0.676 1.451,1.222 1.378,1.905 1.324,2.591 0.84,3.056 0.423,3.247 0.004,3.45 -0.319,3.442 -0.328,3.524 -0.345,3.586 -0.006,3.751 0.554,3.608 1.093,3.497 1.851,2.885 1.918,1.955 2.023,1.029 1.391,0.289 0.882,0.08 0.357,-0.163 -0.006,-0.063 0,0" /></g><g
         transform="translate(380.5996,64.0781)"
         id="g464"><path
           inkscape:connector-curvature="0"
           id="path466"
           style="fill:#3a6cd6;fill-opacity:1;fill-rule:nonzero;stroke:none"
           d="m 0,0 -1.947,10.565 -18.957,-3.363 2.756,-15.829 1.19,0.13 c 5.285,0.625 26.76,3.908 30.06,5.636 C 16.781,-0.933 0,0 0,0" /></g><g
         transform="translate(393.9702,62.2666)"
         id="g468"><path
           inkscape:connector-curvature="0"
           id="path470"
           style="fill:#184bb8;fill-opacity:1;fill-rule:nonzero;stroke:none"
           d="m 0,0 c 0.033,-0.177 -7.022,-1.627 -15.757,-3.237 -8.737,-1.611 -15.844,-2.772 -15.877,-2.594 -0.033,0.177 7.021,1.627 15.759,3.237 C -7.141,-0.983 -0.033,0.178 0,0" /></g><g
         transform="translate(381.3306,61.9834)"
         id="g472"><path
           inkscape:connector-curvature="0"
           id="path474"
           style="fill:#184bb8;fill-opacity:1;fill-rule:nonzero;stroke:none"
           d="M 0,0 C -0.171,0.053 -0.14,0.636 0.165,1.261 0.469,1.888 0.91,2.272 1.056,2.171 1.207,2.066 1.033,1.555 0.753,0.976 0.472,0.398 0.174,-0.056 0,0" /></g><g
         transform="translate(382.6665,61.5098)"
         id="g476"><path
           inkscape:connector-curvature="0"
           id="path478"
           style="fill:#184bb8;fill-opacity:1;fill-rule:nonzero;stroke:none"
           d="M 0,0 C -0.176,0.031 -0.206,0.673 0.045,1.4 0.293,2.129 0.713,2.615 0.871,2.532 1.033,2.447 0.894,1.865 0.664,1.187 0.43,0.512 0.18,-0.034 0,0" /></g><g
         transform="translate(368.0273,57.5576)"
         id="g480"><path
           inkscape:connector-curvature="0"
           id="path482"
           style="fill:#184bb8;fill-opacity:1;fill-rule:nonzero;stroke:none"
           d="M 0,0 C -0.064,-0.065 -0.397,0.16 -0.893,0.55 -1.39,0.936 -2.05,1.488 -2.86,1.907 c -0.804,0.419 -1.628,0.552 -2.214,0.518 -0.589,-0.029 -0.95,-0.189 -1,-0.102 -0.046,0.064 0.258,0.392 0.932,0.559 0.664,0.17 1.661,0.09 2.58,-0.393 C -1.647,2.014 -1,1.363 -0.575,0.886 -0.151,0.401 0.062,0.063 0,0" /></g><g
         transform="translate(381.0215,63.9805)"
         id="g484"><path
           inkscape:connector-curvature="0"
           id="path486"
           style="fill:#184bb8;fill-opacity:1;fill-rule:nonzero;stroke:none"
           d="m 0,0 c 0.12,-0.133 -0.137,-0.56 -0.641,-0.856 -0.503,-0.3 -1.001,-0.32 -1.059,-0.151 -0.061,0.172 0.285,0.448 0.725,0.712 C -0.532,-0.033 -0.122,0.136 0,0" /></g><g
         transform="translate(380.5361,64.9463)"
         id="g488"><path
           inkscape:connector-curvature="0"
           id="path490"
           style="fill:#184bb8;fill-opacity:1;fill-rule:nonzero;stroke:none"
           d="m 0,0 c 0.05,-0.174 -0.427,-0.419 -1.064,-0.545 -0.638,-0.126 -1.171,-0.082 -1.192,0.097 -0.02,0.179 0.456,0.424 1.065,0.545 C -0.583,0.217 -0.049,0.174 0,0" /></g><g
         transform="translate(376.6421,168.6602)"
         id="g492"><path
           inkscape:connector-curvature="0"
           id="path494"
           style="fill:#14365b;fill-opacity:1;fill-rule:nonzero;stroke:none"
           d="m 0,0 -9.269,-24.888 -10.506,51.029 z m 26.759,7.068 c -5.875,11.853 -37.332,57.687 -37.332,57.687 l -16.792,-1.752 -0.02,0.098 -18.79,-2.06 h -0.004 l -10.364,-1.137 37.513,-163.831 25.938,0.469 -6.24,30.307 C 4.986,-62.402 30.01,0.512 26.759,7.068" /></g><g
         transform="translate(355.8286,309.0894)"
         id="g496"><path
           inkscape:connector-curvature="0"
           id="path498"
           style="fill:#e5baab;fill-opacity:1;fill-rule:nonzero;stroke:none"
           d="m 0,0 c -0.237,1.708 0.682,8.819 0.682,8.819 0,0 6.534,0.48 7.136,6.925 0.603,6.445 0.686,21.35 0.686,21.35 l -11.675,6.179 -13.365,-9.465 -3.462,-8.995 4.555,-11.181 -0.137,-3.703 -0.015,-8.473 z" /></g><g
         transform="translate(363.4609,335.3784)"
         id="g500"><path
           inkscape:connector-curvature="0"
           id="path502"
           style="fill:#14365b;fill-opacity:1;fill-rule:nonzero;stroke:none"
           d="m 0,0 c -0.014,-0.457 -0.396,-0.815 -0.853,-0.8 -0.457,0.014 -0.814,0.397 -0.8,0.853 0.015,0.456 0.397,0.815 0.853,0.8 C -0.343,0.838 0.015,0.457 0,0" /></g><g
         transform="translate(363.5176,336.2451)"
         id="g504"><path
           inkscape:connector-curvature="0"
           id="path506"
           style="fill:#14365b;fill-opacity:1;fill-rule:nonzero;stroke:none"
           d="m 0,0 c -0.11,-0.104 -0.704,0.436 -1.592,0.512 -0.887,0.089 -1.571,-0.331 -1.66,-0.209 -0.043,0.055 0.073,0.248 0.372,0.44 0.294,0.19 0.784,0.357 1.338,0.305 C -0.989,0.996 -0.538,0.742 -0.285,0.5 -0.026,0.257 0.053,0.046 0,0" /></g><g
         transform="translate(353.019,336.3887)"
         id="g508"><path
           inkscape:connector-curvature="0"
           id="path510"
           style="fill:#14365b;fill-opacity:1;fill-rule:nonzero;stroke:none"
           d="m 0,0 c 0.368,-0.27 0.448,-0.787 0.178,-1.156 -0.269,-0.368 -0.787,-0.448 -1.156,-0.178 -0.368,0.27 -0.448,0.787 -0.178,1.156 C -0.886,0.19 -0.369,0.27 0,0" /></g><g
         transform="translate(353.6528,336.562)"
         id="g512"><path
           inkscape:connector-curvature="0"
           id="path514"
           style="fill:#14365b;fill-opacity:1;fill-rule:nonzero;stroke:none"
           d="m 0,0 c -0.11,-0.104 -0.704,0.436 -1.592,0.511 -0.887,0.09 -1.571,-0.33 -1.659,-0.208 -0.044,0.055 0.073,0.248 0.372,0.439 0.293,0.191 0.784,0.357 1.337,0.306 C -0.989,0.996 -0.538,0.742 -0.284,0.5 -0.026,0.257 0.053,0.045 0,0" /></g><g
         transform="translate(356.6216,328.9424)"
         id="g516"><path
           inkscape:connector-curvature="0"
           id="path518"
           style="fill:#14365b;fill-opacity:1;fill-rule:nonzero;stroke:none"
           d="M 0,0 C 0,0.05 0.559,0.099 1.462,0.137 1.689,0.141 1.913,0.167 1.965,0.332 2.032,0.503 1.953,0.769 1.861,1.054 1.687,1.645 1.503,2.266 1.311,2.917 0.548,5.568 0.009,7.739 0.105,7.767 0.153,7.781 0.351,7.256 0.632,6.397 0.913,5.538 1.277,4.343 1.659,3.018 1.842,2.363 2.016,1.739 2.182,1.146 2.25,0.869 2.377,0.552 2.24,0.212 2.168,0.043 1.997,-0.069 1.851,-0.097 1.703,-0.13 1.575,-0.122 1.463,-0.119 0.56,-0.092 0,-0.05 0,0" /></g><g
         transform="translate(353.6553,328.1953)"
         id="g520"><path
           inkscape:connector-curvature="0"
           id="path522"
           style="fill:#ffffff;fill-opacity:1;fill-rule:nonzero;stroke:none"
           d="m 0,0 c -0.881,0.626 2.439,-1.562 4.255,-1.62 0,0 -1.172,-1.574 -2.977,-0.742 C -0.596,-1.499 0,0 0,0" /></g><g
         transform="translate(356.5103,317.9082)"
         id="g524"><path
           inkscape:connector-curvature="0"
           id="path526"
           style="fill:#d78776;fill-opacity:1;fill-rule:nonzero;stroke:none"
           d="m 0,0 c 0,0 -4.351,0.091 -8.463,3.164 0,0 1.786,-4.804 8.271,-4.744 z" /></g><g
         transform="translate(341.1479,332.1006)"
         id="g528"><path
           inkscape:connector-curvature="0"
           id="path530"
           style="fill:#d78776;fill-opacity:1;fill-rule:nonzero;stroke:none"
           d="m 0,0 c -0.025,0.016 -0.092,-0.073 -0.25,-0.157 -0.153,-0.082 -0.422,-0.148 -0.715,-0.058 -0.594,0.178 -1.139,1.071 -1.226,2.061 -0.045,0.5 0.031,0.984 0.185,1.389 0.143,0.412 0.387,0.709 0.676,0.779 0.287,0.085 0.505,-0.077 0.581,-0.228 0.083,-0.15 0.056,-0.262 0.085,-0.269 0.017,-0.013 0.113,0.099 0.055,0.324 -0.03,0.107 -0.102,0.233 -0.238,0.331 C -0.985,4.271 -1.183,4.314 -1.385,4.28 -1.808,4.225 -2.166,3.812 -2.335,3.366 -2.527,2.918 -2.624,2.374 -2.574,1.813 c 0.102,-1.106 0.733,-2.11 1.542,-2.292 0.393,-0.077 0.709,0.059 0.868,0.199 C -0.002,-0.134 0.02,-0.009 0,0" /></g><g
         transform="translate(336.2397,345.3457)"
         id="g532"><path
           inkscape:connector-curvature="0"
           id="path534"
           style="fill:#28220b;fill-opacity:1;fill-rule:nonzero;stroke:none"
           d="M 0,0 C -0.755,0.579 -1.443,1.304 -1.778,2.3 -2.127,3.273 -1.994,4.309 -1.549,5.074 -1.315,5.489 -1,5.803 -0.657,6.031 -0.998,3.761 0.482,1.462 0.872,-0.904 0.632,-0.567 0.325,-0.271 0,0 m 29.796,-0.236 c -0.385,-0.135 -0.75,-0.19 -1.084,-0.206 1.204,0.641 2.227,1.623 2.872,2.826 0.905,1.69 1.032,3.871 -0.008,5.481 -1.04,1.61 -3.36,2.375 -5.012,1.403 0.797,1.316 0.164,3.172 -1.11,4.035 -1.275,0.863 -2.979,0.871 -4.442,0.392 -1.463,-0.479 -2.741,-1.387 -3.993,-2.281 -0.139,1.036 -0.89,1.931 -1.825,2.399 -0.935,0.468 -2.029,0.548 -3.064,0.393 C 9.128,13.755 6.557,11.224 6.058,8.229 5.122,9.196 3.667,9.627 2.355,9.326 1.044,9.025 -0.078,8.003 -0.499,6.725 -0.515,6.677 -0.522,6.63 -0.536,6.583 -1.083,6.349 -1.619,5.937 -1.979,5.329 -2.522,4.464 -2.692,3.235 -2.292,2.124 -1.927,1.005 -1.08,0.159 -0.315,-0.388 0.056,-0.678 0.38,-0.96 0.598,-1.277 0.806,-1.583 0.908,-1.92 0.95,-2.242 0.865,-4.405 -0.242,-6.443 -0.777,-8.57 c -0.739,-2.934 0.891,-6.95 1.83,-9.826 0.939,-2.877 1.268,-4.034 3.093,-4.228 l 0.285,7.742 c -2.017,-1.643 -4.666,4.002 -2.919,6.246 1.75,2.247 3.61,1.479 3.93,0.057 0.214,-0.947 0.467,-1.611 0.467,-1.611 h 2.028 l -0.218,1.697 c 0,0 -0.409,7.511 3.183,7.972 1.267,0.162 1.564,0.043 2.717,-0.507 1.153,-0.551 2.374,-0.551 3.651,-0.507 1.276,0.044 3.003,1.454 2.957,2.731 1.444,-1.714 3.764,-2.649 5.993,-2.416 0.58,0.061 1.148,0.204 1.692,0.411 0.518,-0.158 1.279,-0.197 2.055,0.058 0.802,0.266 1.41,0.777 1.722,1.225 0.319,0.449 0.38,0.791 0.32,0.816 -0.131,0.078 -0.768,-1.075 -2.213,-1.526" /></g><g
         transform="translate(400.3765,335.7168)"
         id="g536"><path
           inkscape:connector-curvature="0"
           id="path538"
           style="fill:#5987e4;fill-opacity:1;fill-rule:nonzero;stroke:none"
           d="m 0,0 v -12.883 c 0,-2.924 2.37,-5.294 5.293,-5.294 h 22.3 v -7.369 l 4.002,7.045 c 2.459,0.183 4.361,2.231 4.361,4.697 V 0 c 0,2.923 -2.37,5.293 -5.293,5.293 H 5.293 C 2.37,5.293 0,2.923 0,0" /></g><g
         transform="translate(412.5288,328.5859)"
         id="g540"><path
           inkscape:connector-curvature="0"
           id="path542"
           style="fill:#ffffff;fill-opacity:1;fill-rule:nonzero;stroke:none"
           d="m 0,0 c 0,-1.204 -0.976,-2.18 -2.18,-2.18 -1.203,0 -2.179,0.976 -2.179,2.18 0,1.204 0.976,2.179 2.179,2.179 C -0.976,2.179 0,1.204 0,0" /></g><g
         transform="translate(420.8076,328.5859)"
         id="g544"><path
           inkscape:connector-curvature="0"
           id="path546"
           style="fill:#ffffff;fill-opacity:1;fill-rule:nonzero;stroke:none"
           d="m 0,0 c 0,-1.204 -0.976,-2.18 -2.18,-2.18 -1.203,0 -2.179,0.976 -2.179,2.18 0,1.204 0.976,2.179 2.179,2.179 C -0.976,2.179 0,1.204 0,0" /></g><g
         transform="translate(429.0864,328.5859)"
         id="g548"><path
           inkscape:connector-curvature="0"
           id="path550"
           style="fill:#ffffff;fill-opacity:1;fill-rule:nonzero;stroke:none"
           d="m 0,0 c 0,-1.204 -0.976,-2.18 -2.18,-2.18 -1.203,0 -2.179,0.976 -2.179,2.18 0,1.204 0.976,2.179 2.179,2.179 C -0.976,2.179 0,1.204 0,0" /></g><g
         transform="translate(417.9956,297.4102)"
         id="g552"><path
           inkscape:connector-curvature="0"
           id="path554"
           style="fill:#5987e4;fill-opacity:1;fill-rule:nonzero;stroke:none"
           d="m 0,0 c -0.441,1.018 -28.849,-24.075 -34.502,-24.927 l -16.566,21.573 c 0,0 -3.442,5.456 -10.823,14.796 -4.765,6.03 -17.914,4.777 -21.371,-2.568 -5.872,-12.478 -6.077,-29.046 -10.61,-55.566 l -3.847,-22.525 c -0.014,-0.042 5.669,0.662 5.655,0.62 l 40.315,4.231 1.001,26.953 c 7.968,-8.076 10.444,-9.765 14.59,-9.122 10.429,1.615 46.919,34.439 46.919,34.439 0,0 -10.32,11.077 -10.761,12.096" /></g><g
         transform="translate(423.8437,280.7163)"
         id="g556"><path
           inkscape:connector-curvature="0"
           id="path558"
           style="fill:#14365b;fill-opacity:1;fill-rule:nonzero;stroke:none"
           d="m 0,0 c -0.042,-0.051 -0.845,0.528 -2.045,1.584 -1.201,1.054 -2.781,2.605 -4.365,4.462 -1.582,1.861 -2.86,3.669 -3.71,5.022 -0.851,1.353 -1.294,2.238 -1.237,2.272 0.066,0.04 0.62,-0.776 1.543,-2.067 C -8.892,9.981 -7.58,8.227 -6.013,6.384 -4.445,4.544 -2.922,2.969 -1.794,1.853 -0.667,0.735 0.05,0.059 0,0" /></g><g
         transform="translate(381.8833,263.9326)"
         id="g560"><path
           inkscape:connector-curvature="0"
           id="path562"
           style="fill:#14365b;fill-opacity:1;fill-rule:nonzero;stroke:none"
           d="M 0,0 C -0.142,0.025 0.084,1.96 0.503,4.32 0.923,6.682 1.378,8.574 1.52,8.549 1.661,8.524 1.436,6.59 1.016,4.229 0.597,1.869 0.142,-0.024 0,0" /></g><g
         transform="translate(385.5,264.8223)"
         id="g564"><path
           inkscape:connector-curvature="0"
           id="path566"
           style="fill:#14365b;fill-opacity:1;fill-rule:nonzero;stroke:none"
           d="M 0,0 C -0.139,-0.037 -0.709,1.621 -1.273,3.704 -1.837,5.787 -2.182,7.506 -2.043,7.543 -1.905,7.581 -1.335,5.923 -0.771,3.84 -0.206,1.757 0.139,0.038 0,0" /></g><g
         transform="translate(345.8379,288.332)"
         id="g568"><path
           inkscape:connector-curvature="0"
           id="path570"
           style="fill:#3a6cd6;fill-opacity:1;fill-rule:nonzero;stroke:none"
           d="m 0,0 20.988,-39.684 0.474,11.771 z" /></g><g
         transform="translate(344.481,290.2617)"
         id="g572"><path
           inkscape:connector-curvature="0"
           id="path574"
           style="fill:#14365b;fill-opacity:1;fill-rule:nonzero;stroke:none"
           d="m 0,0 c 0.029,0.021 0.372,-0.407 0.966,-1.198 0.647,-0.868 1.489,-1.998 2.502,-3.357 2.111,-2.835 5.06,-6.725 8.368,-10.985 3.293,-4.216 6.271,-8.03 8.504,-10.889 1.033,-1.345 1.891,-2.463 2.551,-3.322 0.593,-0.792 0.908,-1.24 0.88,-1.263 -0.028,-0.022 -0.396,0.383 -1.039,1.136 -0.693,0.832 -1.594,1.915 -2.679,3.219 -2.244,2.734 -5.315,6.536 -8.628,10.8 C 8.114,-11.596 5.207,-7.665 3.17,-4.771 2.15,-3.325 1.341,-2.144 0.8,-1.315 0.257,-0.487 -0.029,-0.021 0,0" /></g><g
         transform="translate(345.1401,277.8589)"
         id="g576"><path
           inkscape:connector-curvature="0"
           id="path578"
           style="fill:#14365b;fill-opacity:1;fill-rule:nonzero;stroke:none"
           d="M 0,0 C -0.043,-0.009 -0.175,0.43 -0.372,1.216 -0.57,2.002 -0.833,3.135 -1.14,4.517 L -0.833,4.373 C -2.059,3.704 -3.455,2.941 -4.957,2.122 l -0.28,-0.153 -0.088,0.31 C -5.48,2.824 -5.642,3.392 -5.806,3.971 -6.056,4.865 -6.298,5.732 -6.53,6.562 L -6.16,6.413 C -7.662,5.566 -9.035,4.793 -10.225,4.124 l -0.25,-0.141 -0.04,0.277 c -0.327,2.293 -0.492,3.726 -0.415,3.739 0.076,0.012 0.378,-1.398 0.8,-3.676 l -0.29,0.137 c 1.173,0.7 2.526,1.507 4.007,2.39 L -6.134,7.017 -6.043,6.7 C -5.807,5.871 -5.56,5.005 -5.305,4.113 -5.143,3.533 -4.983,2.964 -4.83,2.418 l -0.368,0.157 c 1.517,0.791 2.927,1.526 4.165,2.171 l 0.256,0.132 0.051,-0.277 C -0.465,3.211 -0.263,2.065 -0.136,1.264 -0.009,0.463 0.042,0.008 0,0" /></g><g
         transform="translate(350.0659,300.2881)"
         id="g580"><path
           inkscape:connector-curvature="0"
           id="path582"
           style="fill:#14365b;fill-opacity:1;fill-rule:nonzero;stroke:none"
           d="m 0,0 c -0.024,-0.036 -0.424,0.188 -1.113,0.616 -0.688,0.427 -1.666,1.059 -2.846,1.839 l 0.32,0.109 C -4.054,1.231 -4.528,-0.287 -5.038,-1.92 l -0.095,-0.305 -0.279,0.162 c -0.49,0.284 -1.001,0.58 -1.522,0.882 -0.801,0.469 -1.578,0.924 -2.322,1.36 l 0.37,0.149 c -0.491,-1.653 -0.941,-3.163 -1.33,-4.472 l -0.082,-0.275 -0.222,0.172 c -1.829,1.421 -2.943,2.336 -2.897,2.398 0.046,0.062 1.243,-0.741 3.129,-2.086 l -0.303,-0.102 c 0.357,1.318 0.769,2.839 1.219,4.503 l 0.085,0.314 0.286,-0.165 c 0.746,-0.431 1.525,-0.882 2.329,-1.346 0.52,-0.304 1.029,-0.602 1.519,-0.888 l -0.374,-0.143 c 0.541,1.623 1.045,3.132 1.486,4.456 L -3.95,2.967 -3.72,2.804 C -2.566,1.985 -1.624,1.302 -0.976,0.815 -0.329,0.328 0.025,0.036 0,0" /></g><g
         transform="translate(364.7964,292.5845)"
         id="g584"><path
           inkscape:connector-curvature="0"
           id="path586"
           style="fill:#3a6cd6;fill-opacity:1;fill-rule:nonzero;stroke:none"
           d="m 0,0 c -0.032,-0.029 -0.373,0.276 -0.951,0.844 -0.578,0.569 -1.394,1.399 -2.375,2.418 l 0.337,0.036 C -3.687,2.089 -4.481,0.711 -5.336,-0.771 l -0.16,-0.276 -0.236,0.218 c -0.416,0.385 -0.851,0.786 -1.293,1.194 -0.679,0.634 -1.337,1.247 -1.968,1.835 l 0.394,0.065 c -0.841,-1.505 -1.61,-2.88 -2.277,-4.072 l -0.14,-0.25 -0.178,0.216 c -1.474,1.787 -2.361,2.924 -2.303,2.974 0.059,0.051 1.051,-0.996 2.598,-2.72 l -0.319,-0.034 c 0.637,1.208 1.371,2.602 2.175,4.127 l 0.152,0.288 0.242,-0.223 c 0.634,-0.585 1.296,-1.195 1.978,-1.824 0.441,-0.41 0.874,-0.812 1.288,-1.199 l -0.396,-0.057 c 0.883,1.465 1.705,2.827 2.425,4.022 L -3.205,3.759 -3.017,3.55 C -2.07,2.499 -1.3,1.626 -0.774,1.009 -0.249,0.392 0.032,0.03 0,0" /></g><g
         transform="translate(403.6372,267.3252)"
         id="g588"><path
           inkscape:connector-curvature="0"
           id="path590"
           style="fill:#14365b;fill-opacity:1;fill-rule:nonzero;stroke:none"
           d="M 0,0 C -0.035,-0.026 -0.335,0.32 -0.837,0.957 -1.34,1.593 -2.044,2.519 -2.89,3.653 L -2.551,3.647 C -3.395,2.535 -4.356,1.268 -5.391,-0.095 l -0.192,-0.255 -0.208,0.247 c -0.365,0.434 -0.745,0.886 -1.132,1.347 -0.594,0.714 -1.17,1.405 -1.722,2.068 l 0.399,0.015 c -1.024,-1.388 -1.96,-2.656 -2.771,-3.754 l -0.17,-0.231 -0.15,0.237 c -1.238,1.958 -1.975,3.197 -1.911,3.24 0.065,0.043 0.918,-1.12 2.235,-3.025 l -0.32,0.006 c 0.784,1.118 1.687,2.409 2.677,3.822 L -8.47,3.888 -8.257,3.636 C -7.702,2.977 -7.122,2.289 -6.524,1.579 -6.138,1.116 -5.76,0.663 -5.397,0.228 l -0.4,-0.008 c 1.06,1.342 2.046,2.591 2.911,3.686 L -2.708,4.132 -2.547,3.9 C -1.74,2.738 -1.085,1.776 -0.642,1.098 -0.198,0.419 0.035,0.025 0,0" /></g><g
         transform="translate(379.5923,269.355)"
         id="g592"><path
           inkscape:connector-curvature="0"
           id="path594"
           style="fill:#3a6cd6;fill-opacity:1;fill-rule:nonzero;stroke:none"
           d="M 0,0 C -0.028,-0.033 -0.403,0.23 -1.043,0.727 -1.684,1.223 -2.591,1.952 -3.685,2.85 l 0.33,0.075 C -3.906,1.643 -4.534,0.181 -5.209,-1.391 l -0.126,-0.293 -0.261,0.189 c -0.458,0.333 -0.936,0.681 -1.424,1.035 -0.748,0.549 -1.473,1.082 -2.168,1.592 l 0.383,0.11 c -0.659,-1.593 -1.262,-3.049 -1.784,-4.31 l -0.11,-0.265 -0.203,0.193 c -1.673,1.602 -2.687,2.628 -2.635,2.685 0.053,0.057 1.161,-0.867 2.898,-2.398 l -0.312,-0.071 c 0.491,1.274 1.057,2.745 1.677,4.354 l 0.117,0.303 0.266,-0.193 c 0.699,-0.506 1.427,-1.035 2.179,-1.58 0.485,-0.356 0.962,-0.705 1.419,-1.039 L -5.68,-1.183 c 0.706,1.558 1.362,3.008 1.938,4.279 l 0.118,0.262 0.212,-0.186 C -2.348,2.239 -1.481,1.462 -0.887,0.911 -0.293,0.359 0.028,0.033 0,0" /></g><g
         transform="translate(414.0093,274.9888)"
         id="g596"><path
           inkscape:connector-curvature="0"
           id="path598"
           style="fill:#3a6cd6;fill-opacity:1;fill-rule:nonzero;stroke:none"
           d="M 0,0 C -0.043,-0.005 -0.134,0.444 -0.257,1.245 -0.381,2.046 -0.538,3.2 -0.715,4.603 L -0.423,4.431 C -1.706,3.879 -3.167,3.25 -4.738,2.573 L -5.031,2.447 -5.09,2.764 c -0.104,0.557 -0.212,1.137 -0.322,1.73 -0.166,0.913 -0.326,1.798 -0.48,2.647 L -5.538,6.958 C -7.112,6.254 -8.551,5.612 -9.797,5.055 l -0.263,-0.117 -0.013,0.281 c -0.114,2.313 -0.144,3.755 -0.067,3.76 0.077,0.006 0.246,-1.427 0.455,-3.733 L -9.96,5.409 c 1.232,0.587 2.654,1.265 4.211,2.007 l 0.294,0.14 0.06,-0.324 C -5.236,6.385 -5.07,5.5 -4.9,4.588 -4.792,3.995 -4.686,3.414 -4.584,2.857 l -0.353,0.19 c 1.584,0.646 3.058,1.247 4.35,1.774 L -0.321,4.93 -0.295,4.649 C -0.165,3.24 -0.069,2.081 -0.018,1.271 0.035,0.462 0.043,0.005 0,0" /></g><g
         transform="translate(366.0557,285.6641)"
         id="g600"><path
           inkscape:connector-curvature="0"
           id="path602"
           style="fill:#14365b;fill-opacity:1;fill-rule:nonzero;stroke:none"
           d="m 0,0 c 0.02,-0.039 -0.367,-0.283 -1.072,-0.685 -0.704,-0.401 -1.725,-0.96 -2.973,-1.626 l 0.057,0.334 c 0.973,-1 2.082,-2.14 3.275,-3.367 l 0.222,-0.229 -0.275,-0.168 c -0.483,-0.296 -0.987,-0.604 -1.501,-0.918 -0.794,-0.48 -1.564,-0.946 -2.302,-1.392 l 0.045,0.396 c 1.218,-1.22 2.332,-2.335 3.296,-3.301 l 0.203,-0.203 -0.257,-0.113 c -2.12,-0.931 -3.456,-1.474 -3.489,-1.404 -0.032,0.071 1.245,0.739 3.326,1.757 L -1.5,-11.235 c -0.988,0.943 -2.129,2.029 -3.377,3.218 l -0.236,0.225 0.281,0.172 c 0.735,0.451 1.503,0.921 2.294,1.406 0.515,0.312 1.02,0.618 1.505,0.912 l -0.052,-0.397 c -1.169,1.25 -2.256,2.411 -3.209,3.431 l -0.197,0.21 0.253,0.124 c 1.27,0.624 2.32,1.127 3.056,1.464 C -0.444,-0.133 -0.02,0.039 0,0" /></g><g
         transform="translate(384.4126,263.9287)"
         id="g604"><path
           inkscape:connector-curvature="0"
           id="path606"
           style="fill:#3a6cd6;fill-opacity:1;fill-rule:nonzero;stroke:none"
           d="m 0,0 c 0.02,-0.039 -0.368,-0.283 -1.072,-0.685 -0.704,-0.401 -1.725,-0.96 -2.973,-1.626 l 0.056,0.334 c 0.973,-1.001 2.083,-2.141 3.275,-3.367 l 0.223,-0.229 -0.275,-0.168 C -1.25,-6.037 -1.753,-6.345 -2.267,-6.659 -3.062,-7.14 -3.832,-7.605 -4.569,-8.052 l 0.045,0.397 c 1.218,-1.22 2.332,-2.335 3.296,-3.301 l 0.203,-0.203 -0.257,-0.113 c -2.12,-0.931 -3.457,-1.474 -3.489,-1.404 -0.033,0.07 1.245,0.739 3.325,1.757 L -1.5,-11.234 c -0.988,0.941 -2.129,2.028 -3.377,3.217 l -0.236,0.225 0.281,0.172 c 0.735,0.451 1.502,0.921 2.294,1.406 0.515,0.312 1.02,0.618 1.505,0.912 l -0.052,-0.397 c -1.169,1.25 -2.256,2.411 -3.209,3.43 l -0.197,0.21 0.253,0.124 c 1.27,0.624 2.319,1.127 3.056,1.465 C -0.445,-0.133 -0.02,0.038 0,0" /></g><g
         transform="translate(347.9614,264.2246)"
         id="g608"><path
           inkscape:connector-curvature="0"
           id="path610"
           style="fill:#3a6cd6;fill-opacity:1;fill-rule:nonzero;stroke:none"
           d="M 0,0 C -0.043,-0.009 -0.174,0.431 -0.372,1.216 -0.569,2.002 -0.833,3.136 -1.14,4.517 L -0.833,4.373 C -2.059,3.704 -3.455,2.942 -4.957,2.122 l -0.28,-0.153 -0.088,0.31 c -0.155,0.545 -0.317,1.114 -0.481,1.693 -0.25,0.894 -0.491,1.76 -0.723,2.591 L -6.16,6.413 C -7.662,5.567 -9.035,4.794 -10.225,4.124 l -0.25,-0.141 -0.04,0.278 c -0.327,2.293 -0.491,3.725 -0.415,3.738 0.076,0.013 0.378,-1.398 0.8,-3.675 l -0.29,0.136 c 1.173,0.7 2.526,1.507 4.007,2.391 l 0.28,0.166 0.09,-0.316 c 0.236,-0.83 0.483,-1.695 0.738,-2.588 0.162,-0.58 0.322,-1.149 0.475,-1.694 l -0.368,0.157 c 1.517,0.79 2.928,1.525 4.166,2.17 l 0.255,0.133 0.051,-0.277 C -0.465,3.211 -0.263,2.065 -0.136,1.265 -0.009,0.464 0.042,0.009 0,0" /></g><g
         transform="translate(364.6636,254.7842)"
         id="g612"><path
           inkscape:connector-curvature="0"
           id="path614"
           style="fill:#14365b;fill-opacity:1;fill-rule:nonzero;stroke:none"
           d="M 0,0 C -0.042,-0.009 -0.174,0.43 -0.372,1.216 -0.569,2.002 -0.833,3.136 -1.14,4.517 L -0.833,4.372 C -2.058,3.703 -3.455,2.941 -4.957,2.121 l -0.28,-0.152 -0.088,0.309 c -0.154,0.545 -0.316,1.114 -0.481,1.693 -0.25,0.894 -0.491,1.76 -0.723,2.591 L -6.16,6.412 C -7.662,5.566 -9.035,4.793 -10.225,4.123 l -0.25,-0.141 -0.039,0.278 c -0.328,2.293 -0.492,3.725 -0.416,3.738 0.076,0.013 0.378,-1.397 0.8,-3.675 l -0.29,0.137 c 1.173,0.699 2.526,1.507 4.007,2.39 l 0.28,0.167 0.09,-0.317 C -5.807,5.87 -5.56,5.005 -5.305,4.112 -5.142,3.532 -4.983,2.964 -4.83,2.418 l -0.368,0.157 c 1.517,0.79 2.928,1.526 4.166,2.17 l 0.255,0.133 0.051,-0.276 C -0.465,3.211 -0.263,2.064 -0.136,1.264 -0.009,0.464 0.042,0.009 0,0" /></g><g
         transform="translate(340.2144,233.958)"
         id="g616"><path
           inkscape:connector-curvature="0"
           id="path618"
           style="fill:#3a6cd6;fill-opacity:1;fill-rule:nonzero;stroke:none"
           d="M 0,0 C -0.043,-0.009 -0.174,0.431 -0.372,1.216 -0.57,2.002 -0.833,3.136 -1.14,4.517 L -0.833,4.373 C -2.059,3.704 -3.455,2.941 -4.957,2.122 l -0.28,-0.153 -0.088,0.31 c -0.155,0.545 -0.317,1.114 -0.481,1.693 -0.25,0.893 -0.492,1.76 -0.723,2.591 L -6.16,6.413 C -7.662,5.567 -9.035,4.794 -10.225,4.124 l -0.25,-0.141 -0.04,0.278 c -0.327,2.293 -0.491,3.725 -0.415,3.738 0.076,0.013 0.378,-1.397 0.8,-3.676 l -0.29,0.138 c 1.173,0.699 2.526,1.506 4.007,2.39 l 0.28,0.167 0.09,-0.318 C -5.807,5.871 -5.56,5.006 -5.305,4.113 -5.143,3.533 -4.983,2.965 -4.83,2.419 l -0.368,0.157 c 1.517,0.79 2.928,1.526 4.166,2.17 l 0.255,0.133 0.051,-0.277 C -0.465,3.211 -0.263,2.065 -0.136,1.265 -0.009,0.464 0.042,0.009 0,0" /></g><g
         transform="translate(340.686,255.8086)"
         id="g620"><path
           inkscape:connector-curvature="0"
           id="path622"
           style="fill:#14365b;fill-opacity:1;fill-rule:nonzero;stroke:none"
           d="m 0,0 c -0.028,-0.033 -0.405,0.227 -1.051,0.717 -0.646,0.489 -1.56,1.209 -2.663,2.095 l 0.329,0.079 C -3.923,1.603 -4.536,0.135 -5.194,-1.444 l -0.123,-0.294 -0.263,0.186 c -0.462,0.328 -0.943,0.671 -1.435,1.02 C -7.768,0.01 -8.499,0.534 -9.2,1.037 l 0.383,0.114 c -0.643,-1.599 -1.231,-3.061 -1.74,-4.328 l -0.107,-0.266 -0.205,0.192 c -1.69,1.584 -2.714,2.599 -2.662,2.656 0.052,0.058 1.169,-0.854 2.922,-2.367 l -0.311,-0.074 c 0.478,1.279 1.028,2.755 1.631,4.37 l 0.114,0.306 0.269,-0.192 c 0.703,-0.499 1.437,-1.019 2.194,-1.556 0.49,-0.351 0.97,-0.696 1.43,-1.026 l -0.385,-0.107 c 0.689,1.565 1.331,3.021 1.893,4.299 L -3.658,3.32 -3.444,3.137 C -2.372,2.215 -1.497,1.447 -0.897,0.902 -0.297,0.356 0.027,0.034 0,0" /></g><g
         transform="translate(349.4111,255.2187)"
         id="g624"><path
           inkscape:connector-curvature="0"
           id="path626"
           style="fill:#14365b;fill-opacity:1;fill-rule:nonzero;stroke:none"
           d="m 0,0 c 0.022,-0.037 -0.346,-0.309 -1.021,-0.758 -0.674,-0.45 -1.653,-1.079 -2.851,-1.831 l 0.033,0.337 c 1.041,-0.93 2.227,-1.989 3.504,-3.129 L -0.097,-5.594 -0.36,-5.78 c -0.461,-0.329 -0.942,-0.672 -1.433,-1.022 -0.758,-0.535 -1.494,-1.053 -2.198,-1.551 l 0.017,0.399 c 1.301,-1.132 2.49,-2.165 3.521,-3.062 l 0.216,-0.188 -0.248,-0.13 c -2.05,-1.078 -3.345,-1.714 -3.382,-1.646 -0.037,0.068 1.19,0.825 3.194,1.987 l -0.032,-0.32 c -1.052,0.871 -2.267,1.875 -3.596,2.973 l -0.251,0.208 0.268,0.192 c 0.702,0.501 1.434,1.023 2.19,1.563 0.491,0.348 0.974,0.689 1.436,1.016 l -0.024,-0.4 c -1.254,1.164 -2.419,2.246 -3.442,3.197 l -0.21,0.195 0.243,0.141 c 1.222,0.712 2.234,1.288 2.945,1.676 C -0.434,-0.163 -0.022,0.037 0,0" /></g><g
         transform="translate(359.0386,248.3984)"
         id="g628"><path
           inkscape:connector-curvature="0"
           id="path630"
           style="fill:#3a6cd6;fill-opacity:1;fill-rule:nonzero;stroke:none"
           d="m 0,0 c 0.034,-0.027 -0.221,-0.408 -0.702,-1.062 -0.48,-0.652 -1.187,-1.577 -2.057,-2.692 l -0.084,0.328 c 1.296,-0.519 2.772,-1.111 4.36,-1.748 L 1.813,-5.293 1.63,-5.559 C 1.309,-6.024 0.973,-6.511 0.631,-7.007 0.101,-7.768 -0.415,-8.506 -0.907,-9.214 l -0.12,0.381 c 1.609,-0.62 3.079,-1.188 4.353,-1.679 l 0.267,-0.103 -0.189,-0.207 c -1.56,-1.712 -2.56,-2.75 -2.619,-2.699 -0.058,0.05 0.838,1.18 2.326,2.955 l 0.079,-0.311 c -1.286,0.46 -2.769,0.99 -4.393,1.57 l -0.307,0.11 0.187,0.271 c 0.489,0.71 1,1.451 1.526,2.216 0.344,0.494 0.681,0.98 1.005,1.444 l 0.113,-0.383 c -1.575,0.668 -3.04,1.288 -4.325,1.833 l -0.265,0.112 0.181,0.216 c 0.907,1.086 1.662,1.971 2.199,2.579 C -0.353,-0.302 -0.034,0.027 0,0" /></g><g
         transform="translate(353.5557,232.1016)"
         id="g632"><path
           inkscape:connector-curvature="0"
           id="path634"
           style="fill:#3a6cd6;fill-opacity:1;fill-rule:nonzero;stroke:none"
           d="M 0,0 C 0.009,0.003 0.048,-0.109 0.117,-0.33 0.189,-0.577 0.284,-0.902 0.404,-1.314 0.648,-2.184 1,-3.469 1.411,-5.137 c 0.401,-1.671 0.918,-3.712 1.266,-6.147 0.219,-1.205 0.101,-2.63 -0.514,-3.906 -0.587,-1.289 -1.452,-2.514 -2.559,-3.633 l 0.053,0.169 c 2.619,-12.435 6.291,-29.864 10.355,-49.153 3.95,-18.966 7.478,-36.145 9.972,-48.592 1.247,-6.223 2.236,-11.264 2.89,-14.752 0.327,-1.745 0.57,-3.102 0.72,-4.025 0.152,-0.92 0.202,-1.418 0.16,-1.417 0,0 -0.078,0.481 -0.263,1.398 -0.193,0.946 -0.467,2.289 -0.816,4.005 -0.727,3.504 -1.768,8.526 -3.051,14.717 -2.596,12.452 -6.171,29.607 -10.122,48.56 -4.003,19.302 -7.62,36.742 -10.2,49.184 l -0.02,0.097 0.072,0.072 c 2.124,2.126 3.555,4.814 3.039,7.241 -0.318,2.411 -0.806,4.464 -1.176,6.136 -0.391,1.647 -0.696,2.935 -0.912,3.842 -0.1,0.418 -0.179,0.747 -0.239,0.997 C 0.014,-0.118 -0.008,-0.002 0,0" /></g><g
         transform="translate(332.5049,229.7012)"
         id="g636"><path
           inkscape:connector-curvature="0"
           id="path638"
           style="fill:#3a6cd6;fill-opacity:1;fill-rule:nonzero;stroke:none"
           d="m 0,0 c 0.03,0.011 0.155,-0.225 0.309,-0.68 0.156,-0.453 0.315,-1.136 0.375,-1.999 0.135,-1.701 -0.282,-4.225 -1.933,-6.352 -1.662,-2.119 -4.01,-3.136 -5.693,-3.418 -0.85,-0.152 -1.553,-0.164 -2.031,-0.123 -0.478,0.04 -0.736,0.103 -0.733,0.135 0.003,0.098 1.064,-0.036 2.688,0.348 1.603,0.362 3.795,1.384 5.359,3.378 1.554,2.001 2.013,4.375 1.975,6.019 C 0.293,-1.024 -0.094,-0.027 0,0" /></g><g
         transform="translate(349.2534,228.6348)"
         id="g640"><path
           inkscape:connector-curvature="0"
           id="path642"
           style="fill:#3a6cd6;fill-opacity:1;fill-rule:nonzero;stroke:none"
           d="M 0,0 C -0.022,0.021 0.036,0.145 0.238,0.273 0.435,0.401 0.795,0.507 1.225,0.406 1.64,0.328 2.175,-0.071 2.244,-0.706 2.322,-1.3 2.031,-2.026 1.34,-2.324 c -0.699,-0.267 -1.412,0.042 -1.78,0.505 -0.402,0.484 -0.357,1.12 -0.169,1.496 0.405,0.811 1.068,0.827 1.045,0.763 0.038,-0.072 -0.477,-0.23 -0.703,-0.899 -0.106,-0.32 -0.091,-0.744 0.194,-1.053 0.269,-0.311 0.795,-0.501 1.218,-0.329 0.42,0.169 0.66,0.678 0.622,1.081 C 1.743,-0.343 1.435,-0.059 1.119,0.054 0.455,0.29 0.037,-0.069 0,0" /></g><g
         transform="translate(370.3887,226.4082)"
         id="g644"><path
           inkscape:connector-curvature="0"
           id="path646"
           style="fill:#3a6cd6;fill-opacity:1;fill-rule:nonzero;stroke:none"
           d="m 0,0 c 0.027,-0.046 -0.661,-0.484 -1.939,-0.672 -1.254,-0.193 -3.146,-0.028 -4.832,1.058 -1.681,1.093 -2.606,2.752 -2.942,3.975 -0.353,1.243 -0.234,2.05 -0.182,2.044 0.09,0.006 0.107,-0.78 0.531,-1.928 0.408,-1.137 1.323,-2.645 2.877,-3.654 1.556,-1.003 3.306,-1.221 4.51,-1.129 C -0.755,-0.222 -0.031,0.084 0,0" /></g><g
         transform="translate(381.3706,73.5205)"
         id="g648"><path
           inkscape:connector-curvature="0"
           id="path650"
           style="fill:#3a6cd6;fill-opacity:1;fill-rule:nonzero;stroke:none"
           d="m 0,0 c 0.001,-0.036 -0.354,-0.078 -0.998,-0.123 -0.76,-0.042 -1.667,-0.093 -2.723,-0.152 -2.435,-0.116 -5.544,-0.263 -8.982,-0.427 -3.439,-0.178 -6.547,-0.338 -8.982,-0.464 -1.057,-0.046 -1.964,-0.086 -2.725,-0.119 -0.644,-0.019 -1.002,-0.012 -1.005,0.024 -0.002,0.035 0.35,0.098 0.99,0.178 0.639,0.082 1.567,0.179 2.714,0.284 2.294,0.21 5.47,0.443 8.982,0.617 3.511,0.174 6.694,0.257 8.998,0.275 1.152,0.01 2.085,0.005 2.729,-0.014 C -0.357,0.062 0,0.036 0,0" /></g><g
         transform="translate(335.7192,218.2891)"
         id="g652"><path
           inkscape:connector-curvature="0"
           id="path654"
           style="fill:#3a6cd6;fill-opacity:1;fill-rule:nonzero;stroke:none"
           d="m 0,0 c 0.14,0.033 8.015,-32.43 17.587,-72.5 9.576,-40.085 17.222,-72.596 17.082,-72.629 -0.14,-0.033 -8.013,32.423 -17.588,72.508 C 7.508,-32.551 -0.14,-0.033 0,0" /></g><g
         transform="translate(361.3081,217.0352)"
         id="g656"><path
           inkscape:connector-curvature="0"
           id="path658"
           style="fill:#3a6cd6;fill-opacity:1;fill-rule:nonzero;stroke:none"
           d="M 0,0 C 0.007,0.006 0.069,-0.066 0.183,-0.212 0.312,-0.384 0.474,-0.599 0.676,-0.866 1.123,-1.479 1.743,-2.33 2.53,-3.41 c 1.616,-2.255 3.914,-5.462 6.743,-9.411 2.839,-3.994 6.207,-8.736 9.946,-13.996 1.865,-2.642 3.823,-5.412 5.851,-8.285 1.97,-2.887 3.99,-6.113 4.536,-9.915 0.541,-3.811 -0.581,-7.467 -1.739,-10.761 -1.2,-3.313 -2.4,-6.485 -3.567,-9.5 -2.335,-6.031 -4.562,-11.412 -6.487,-15.907 -1.928,-4.493 -3.557,-8.098 -4.706,-10.58 -0.57,-1.209 -1.019,-2.161 -1.343,-2.847 -0.149,-0.3 -0.268,-0.542 -0.363,-0.734 -0.085,-0.164 -0.132,-0.247 -0.14,-0.243 -0.008,0.004 0.023,0.094 0.092,0.265 0.082,0.198 0.186,0.446 0.315,0.756 0.303,0.695 0.722,1.661 1.254,2.886 1.092,2.506 2.668,6.132 4.553,10.641 1.879,4.51 4.069,9.9 6.377,15.935 1.153,3.016 2.345,6.194 3.534,9.498 1.148,3.28 2.228,6.859 1.704,10.518 -0.521,3.656 -2.486,6.825 -4.44,9.699 -2.019,2.877 -3.967,5.652 -5.823,8.297 -3.704,5.285 -7.042,10.048 -9.854,14.061 C 6.2,-9.044 3.948,-5.805 2.365,-3.526 1.611,-2.423 1.018,-1.553 0.59,-0.927 0.405,-0.646 0.257,-0.422 0.139,-0.243 0.04,-0.087 -0.007,-0.005 0,0" /></g><g
         transform="translate(412.127,296.3901)"
         id="g660"><path
           inkscape:connector-curvature="0"
           id="path662"
           style="fill:#14365b;fill-opacity:1;fill-rule:nonzero;stroke:none"
           d="m 0,0 22.334,16.296 1.1,-1.751 -22.19,-16.497 z" /></g><g
         transform="translate(417.647,296.8911)"
         id="g664"><path
           inkscape:connector-curvature="0"
           id="path666"
           style="fill:#e5baab;fill-opacity:1;fill-rule:nonzero;stroke:none"
           d="M 0,0 C 0,0 2.996,7.797 3.67,9.458 4.345,11.12 5.486,14.013 5.912,14.071 6.338,14.129 7.899,13.885 5.86,8.925 3.822,3.964 8.273,6.997 8.273,6.997 l 4.301,3.078 c 0,0 3.402,-10.155 1.465,-13.213 -2.091,-3.3 -5.096,-6.46 -5.096,-6.46 z" /></g></g></g></svg>