<?xml version="1.0" encoding="UTF-8" standalone="no"?>
<svg
   xmlns:dc="http://purl.org/dc/elements/1.1/"
   xmlns:cc="http://creativecommons.org/ns#"
   xmlns:rdf="http://www.w3.org/1999/02/22-rdf-syntax-ns#"
   xmlns:svg="http://www.w3.org/2000/svg"
   xmlns="http://www.w3.org/2000/svg"
   viewBox="0 0 1496 1496"
   height="1496"
   width="1496"
   xml:space="preserve"
   id="svg2"
   version="1.1"><metadata
     id="metadata8"><rdf:RDF><cc:Work
         rdf:about=""><dc:format>image/svg+xml</dc:format><dc:type
           rdf:resource="http://purl.org/dc/dcmitype/StillImage" /><dc:title></dc:title></cc:Work></rdf:RDF></metadata><defs
     id="defs6"><clipPath
       id="clipPath22"
       clipPathUnits="userSpaceOnUse"><path
         id="path20"
         d="M 0,9831 H 9971 V 0 H 0 Z" /></clipPath><clipPath
       id="clipPath62"
       clipPathUnits="userSpaceOnUse"><path
         id="path60"
         d="m 9970,0 v 9831 h 1250 V 0 Z" /></clipPath><clipPath
       id="clipPath76"
       clipPathUnits="userSpaceOnUse"><path
         id="path74"
         d="m 0,9830 v 1390 H 9971 V 9830 Z" /></clipPath><clipPath
       id="clipPath100"
       clipPathUnits="userSpaceOnUse"><path
         id="path98"
         d="m 9970,9830 v 1390 h 1250 V 9830 Z" /></clipPath></defs><g
     transform="matrix(1.3333333,0,0,-1.3333333,0,1496)"
     id="g10"><g
       transform="scale(0.1)"
       id="g16" /><g
       id="g1033"><path
         id="path14"
         style="fill:#fb7973;fill-opacity:1;fill-rule:nonzero;stroke:none;stroke-width:0.1"
         d="M 0,0 H 1122 V 1122 H 0 Z" /><path
         transform="scale(0.1)"
         d="m 6375.34,3179.03 c -277.27,0 -502.04,224.77 -502.04,502.04 0,269.77 212.78,489.85 479.67,501.55 -6.92,-29.06 -10.59,-59.37 -10.58,-90.49 -0.03,-107.33 43.66,-205.01 114.02,-275.28 70.28,-70.38 167.96,-114.06 275.29,-114.04 0.04,0 0.06,0 0.1,0 50.49,0 98.86,9.68 143.22,27.26 1.57,-16.13 2.37,-32.47 2.37,-49 0,-277.27 -224.78,-502.04 -502.05,-502.04 m 356.36,633.78 c -77.3,0.03 -146.79,31.18 -197.5,81.81 -50.64,50.73 -81.78,120.2 -81.81,197.51 0.01,28.96 4.39,56.83 12.52,83.01 181.79,-32.73 329.56,-163.33 386.85,-335.3 -36.33,-17.33 -76.98,-27.01 -120.06,-27.03"
         style="fill:#f9b4b2;fill-opacity:1;fill-rule:nonzero;stroke:none"
         id="path24" /><path
         transform="scale(0.1)"
         d="M 89.957,0 H 0 v 936.5 c 18.4258,2.102 37.1563,3.102 56.1289,3.102 C 171.055,939.602 276.969,901 361.59,836 v 0 C 325.844,760.602 292.695,683.398 262.25,604.801 185.582,406.699 128.168,204.301 89.957,0 m 285.457,50.1016 c 34.094,154.2964 80.195,307.1994 138.305,457.3004 8.461,21.899 17.16,43.7 26.074,65.297 11.973,-43 18.379,-88.301 18.379,-135.097 0,-156 -71.137,-295.403 -182.758,-387.5004"
         style="fill:#f9b4b2;fill-opacity:1;fill-rule:nonzero;stroke:none"
         id="path26" /><path
         transform="scale(0.1)"
         d="m 9079.21,8139.51 c -127.39,0 -230.67,103.27 -230.67,230.67 0,127.39 103.28,230.67 230.67,230.67 127.4,0 230.67,-103.28 230.67,-230.67 0,-127.4 -103.27,-230.67 -230.67,-230.67"
         style="fill:#ffffff;fill-opacity:1;fill-rule:nonzero;stroke:none"
         id="path28" /><path
         transform="scale(0.1)"
         d="m 6731.8,3702.81 c -0.04,0 -0.06,0 -0.1,0 -107.33,-0.02 -205.01,43.66 -275.29,114.04 -70.36,70.27 -114.05,167.95 -114.02,275.28 -0.01,31.12 3.66,61.43 10.58,90.49 16.97,71.18 53.48,134.89 103.44,184.79 70.26,70.34 167.9,114.03 275.19,114.03 0.04,0 0.06,0 0.1,0 107.33,0.03 205.01,-43.66 275.29,-114.03 70.36,-70.27 114.05,-167.95 114.02,-275.28 h -55 -55 c -0.03,77.3 -31.17,146.78 -81.81,197.5 -50.71,50.63 -120.2,81.78 -197.5,81.81 -77.3,-0.03 -146.79,-31.18 -197.5,-81.81 -31.67,-31.72 -55.71,-70.77 -69.29,-114.49 -8.13,-26.18 -12.51,-54.05 -12.52,-83.01 0.03,-77.31 31.17,-146.78 81.81,-197.51 50.71,-50.63 120.2,-81.78 197.5,-81.81 43.08,0.02 83.73,9.7 120.06,27.03 28.86,13.77 54.99,32.37 77.44,54.78 50.64,50.73 81.78,120.2 81.81,197.51 h 55 55 c 0.03,-107.33 -43.66,-205.01 -114.02,-275.28 -37.19,-37.24 -82.06,-67.01 -131.97,-86.78 -44.36,-17.58 -92.73,-27.26 -143.22,-27.26"
         style="fill:#ffffff;fill-opacity:1;fill-rule:nonzero;stroke:none"
         id="path30" /><path
         transform="scale(0.1)"
         d="m 7373.59,9027.82 c -100.08,0 -181.2,81.13 -181.2,181.19 0,100.07 81.12,181.19 181.2,181.19 100.07,0 181.18,-81.12 181.18,-181.19 0,-100.06 -81.11,-181.19 -181.18,-181.19"
         style="fill:#f9b4b2;fill-opacity:1;fill-rule:nonzero;stroke:none"
         id="path32" /><path
         transform="scale(0.1)"
         d="m 5210.66,5686.51 c -6.75,0 -13.52,0.19 -20.31,0.55 -98.41,5.3 -188.88,48.62 -254.72,121.97 -65.84,73.33 -99.17,167.92 -93.86,266.34 5.32,98.42 48.63,188.88 121.96,254.72 49.27,44.23 95.06,91.34 137.19,140.97 39.8,-40.08 81.06,-79.08 123.76,-116.9 -45.44,-52.91 -94.63,-103.22 -147.38,-150.58 -39.56,-35.5 -62.92,-84.29 -65.78,-137.36 -2.86,-53.08 15.11,-104.09 50.61,-143.63 35.51,-39.55 84.3,-62.92 137.37,-65.77 3.67,-0.2 7.33,-0.3 10.98,-0.3 49.09,0 95.83,17.86 132.64,50.92 71.58,64.25 137.9,132.9 198.65,205.35 48.27,-31.4 97.22,-61.1 146.93,-89.17 -70.36,-85.96 -147.81,-167.11 -232,-242.68 -32.34,-29.03 -68.82,-51.75 -107.93,-67.62 -43.46,-17.63 -90.18,-26.81 -138.11,-26.81 m 837.92,973 c -36.77,20.72 -73.02,42.7 -108.72,65.93 -13.21,8.6 -26.33,17.37 -39.29,26.24 57.55,170.73 92.21,350.46 102.18,535.44 28.77,533.7 -151.46,1046.04 -507.49,1442.62 -99.07,110.37 -208.44,208.19 -326.17,292.52 19.78,54.42 42.05,108.1 66.79,160.91 139.97,-96.47 269.46,-210.16 385.9,-339.86 386.35,-430.38 581.94,-986.29 550.72,-1565.34 -11.55,-214.31 -53.64,-422.1 -123.92,-618.46 m -479.74,378.53 c -50.72,54.87 -98.11,112.54 -141.97,172.68 4.52,35.34 7.77,71 9.7,106.94 20.54,381.61 -108.72,748.37 -363.95,1032.68 -6.43,7.16 -12.94,14.27 -19.49,21.29 0.31,74.95 4.97,149.53 13.91,223.53 46.17,-40.89 90.28,-84.67 132.1,-131.26 285.55,-318.1 430.16,-728.42 407.2,-1155.39 -4.96,-92.01 -17.57,-182.39 -37.5,-270.47 M 2806.36,8364.82 c -6.75,0 -13.53,0.18 -20.33,0.55 -98.41,5.3 -188.87,48.62 -254.71,121.96 -61.02,67.96 -94.54,155.67 -94.41,246.95 v 0.02 c 0.17,104.45 44.82,204.35 122.51,274.08 401.3,360.28 910.79,554.94 1445.95,554.94 39.64,0 79.52,-1.08 119.41,-3.23 153.15,-8.25 303.05,-32.18 447.82,-70.88 -24.32,-52.25 -46.81,-104.96 -67.5,-158.14 -126.21,32.12 -256.5,52.1 -389.47,59.27 -36.8,1.98 -73.48,2.97 -110.05,2.97 -493.17,0 -962.75,-179.42 -1332.6,-511.43 -41.89,-37.61 -65.98,-91.5 -66.07,-147.86 l 0.01,0.02 c -0.09,-49.21 18,-96.49 50.9,-133.14 35.51,-39.56 84.3,-62.91 137.37,-65.78 3.64,-0.2 7.28,-0.3 10.9,-0.3 49.13,0 95.89,17.85 132.72,50.92 140.28,125.92 298.51,224.46 468.15,293.28 188.56,76.5 391.24,116.31 599.18,116.31 29.26,0 58.62,-0.79 88.06,-2.37 100.43,-5.42 198.93,-19.95 294.59,-43.17 -12.47,-55.52 -23.14,-111.33 -31.99,-167.24 -88.15,21.95 -179.03,35.65 -271.74,40.65 -26.34,1.41 -52.56,2.12 -78.74,2.12 -353.02,0 -689.2,-128.44 -953.94,-366.08 -68.27,-61.31 -154.96,-94.42 -246.02,-94.42"
         style="fill:#f9b4b2;fill-opacity:1;fill-rule:nonzero;stroke:none"
         id="path34" /><path
         transform="scale(0.1)"
         d="M 1273.81,0 H 994.316 c 24.664,96.3008 55.214,191.801 91.654,286 240.24,620.699 707.83,1110.69 1316.63,1379.76 315.5,139.43 649.33,210.85 984.22,213.86 8.05,-84 12.06,-168.4 12,-252.85 0,-5.61 -0.03,-11.26 -0.07,-16.88 -301.76,-1.43 -602.87,-65.15 -887.15,-190.77 C 1968.69,1179.2 1551.7,742.199 1337.46,188.602 1313.35,126.301 1292.14,63.3984 1273.81,0"
         style="fill:#fff8f9;fill-opacity:1;fill-rule:nonzero;stroke:none"
         id="path36" /><path
         transform="scale(0.1)"
         d="m 364.773,0 h -62.355 c 25.84,14.6016 50.258,31.4023 72.996,50.1016 C 371.719,33.3984 368.191,16.8008 364.773,0 m 175.02,572.699 c -29.574,106.102 -93.125,198 -178.203,263.301 346.254,731.14 936.55,1307.35 1683.99,1637.66 354.53,156.68 726.4,249.79 1102.17,279.01 40.4,-86.51 75.94,-174.42 106.63,-263.54 C 2879.58,2470.54 2507.65,2383.04 2154.58,2227 1417.3,1901.2 846.215,1315.36 539.793,572.699"
         style="fill:#fff8f9;fill-opacity:1;fill-rule:nonzero;stroke:none"
         id="path38" /><path
         transform="scale(0.1)"
         d="M 302.418,0 H 89.957 c 38.211,204.301 95.625,406.699 172.293,604.801 30.445,78.597 63.594,155.801 99.34,231.199 85.078,-65.301 148.629,-157.199 178.203,-263.301 v 0 C 530.879,551.102 522.18,529.301 513.719,507.402 455.609,357.301 409.508,204.398 375.414,50.1016 v 0 C 352.676,31.4023 328.258,14.6016 302.418,0"
         style="fill:#fce0de;fill-opacity:1;fill-rule:nonzero;stroke:none"
         id="path40" /><path
         transform="scale(0.1)"
         d="M 6223.01,0 H 5716.33 C 5594.23,59.5 5497.98,159.199 5442.45,284.801 5228.64,768.602 4858.41,1152.4 4388.64,1381.8 c 5.36,80.36 8.01,160.49 8.04,240.42 0,17.55 -0.12,35.16 -0.37,52.69 579.46,-249.17 1036.43,-701.008 1292.79,-1281.109 33.13,-74.899 93.46,-132.5 169.89,-162.102 35.95,-13.898 73.42,-20.801 110.84,-20.801 42.13,0 84.2,8.801 123.89,26.301 75,33.102 132.56,93.5 162.14,169.903 13.87,35.8 20.81,73.199 20.86,110.5 0.05,42.199 -8.76,84.398 -26.37,124.199 -334.74,757.499 -945.62,1339.729 -1720.12,1639.469 -68.64,26.57 -137.87,50.65 -207.48,72.2 -20.79,101.76 -45.83,202.32 -75.04,301.61 127.91,-33.12 254.71,-73.88 379.85,-122.32 841.67,-325.75 1505.58,-958.58 1869.44,-1781.959 19.8,-44.801 33.68,-91.199 41.6,-138.199 5.25,-31.2 7.88,-62.602 7.91,-94.102 0.07,-70.398 -12.97,-141 -39.16,-208.699 C 6454.46,173.102 6353.97,63.9023 6223.01,0"
         style="fill:#fff8f9;fill-opacity:1;fill-rule:nonzero;stroke:none"
         id="path42" /><path
         transform="scale(0.1)"
         d="m 8951.61,2134.61 c -52.75,0 -106.37,8.42 -159.14,26.15 -121.76,40.91 -217.38,124.22 -275.88,227.93 -41.69,73.91 -64.55,158.19 -64.65,244.92 -0.05,52.92 8.36,106.74 26.15,159.67 268.64,799.59 791.74,1467.79 1492.19,1916.08 V 3411.34 C 9729.1,3143.74 9543.19,2826.91 9425,2475.15 9354.88,2266.42 9160.27,2134.61 8951.61,2134.61"
         style="fill:#f9b4b2;fill-opacity:1;fill-rule:nonzero;stroke:none"
         id="path44" /><path
         transform="scale(0.1)"
         d="m 1165.58,6636.59 c -279.318,0 -506.56,227.24 -506.56,506.56 0,279.31 227.242,506.54 506.56,506.54 279.32,0 506.55,-227.23 506.55,-506.54 0,-279.32 -227.23,-506.56 -506.55,-506.56 m 0,869.98 c -200.392,0 -363.435,-163.02 -363.435,-363.42 0,-200.4 163.043,-363.43 363.435,-363.43 200.39,0 363.42,163.03 363.42,363.43 0,200.4 -163.03,363.42 -363.42,363.42"
         style="fill:#f9b4b2;fill-opacity:1;fill-rule:nonzero;stroke:none"
         id="path46" /><path
         transform="scale(0.1)"
         d="m 3732.19,118.602 c -52.75,0 -106.38,8.398 -159.14,26.097 -208.9,70.203 -340.72,265 -340.53,473.903 0.05,52.597 8.47,106 26.14,158.597 91.61,272.701 138.11,553.161 140.09,832.691 0.04,5.62 0.07,11.27 0.07,16.88 0.06,84.45 -3.95,168.85 -12,252.85 v 0 c -19.78,206.48 -64.01,410.82 -132.44,609.51 v 0 c -30.69,89.12 -66.23,177.03 -106.63,263.54 v 0 c -9.37,20.05 -19.02,40.07 -28.9,59.95 -316.93,637.46 -863.14,1113.63 -1538.08,1340.41 -278.73,93.64 -565.74,140.15 -851.426,140.15 -246.039,0 -491.086,-34.46 -729.344,-103 v 1028.34 c 240.039,49.32 483.961,74.1 728.398,74.1 392.862,0 787.222,-63.92 1170.512,-192.7 1177.53,-395.61 2022.24,-1334.92 2348.8,-2444.84 29.21,-99.29 54.25,-199.85 75.04,-301.61 48.79,-238.86 74,-483.73 73.93,-731.25 -0.03,-79.93 -2.68,-160.06 -8.04,-240.42 v 0 c -20.49,-307.4 -80.44,-617.198 -183.08,-922.698 -70.11,-208.7 -264.71,-340.5 -473.37,-340.5"
         style="fill:#f9b4b2;fill-opacity:1;fill-rule:nonzero;stroke:none"
         id="path48" /><path
         transform="scale(0.1)"
         d="m 9170.58,9450.24 c -0.04,0 -0.06,0 -0.1,0 -157.64,-0.03 -300.87,64.05 -404.12,167.39 -59.41,59.36 -105.84,131.92 -134.58,212.85 h 118.55 c 23.05,-50.53 54.97,-96.19 93.81,-135.07 83.69,-83.6 198.72,-135.15 326.34,-135.17 127.61,0.02 242.64,51.57 326.34,135.17 38.84,38.88 70.76,84.54 93.82,135.07 h 118.53 c -28.73,-80.93 -75.16,-153.49 -134.57,-212.85 -103.23,-103.31 -246.42,-167.39 -404.02,-167.39"
         style="fill:#f9b4b2;fill-opacity:1;fill-rule:nonzero;stroke:none"
         id="path50" /><path
         transform="scale(0.1)"
         d="m 6998.05,5678.27 c -456.99,0 -905.66,117.39 -1309.35,345.35 -49.71,28.07 -98.66,57.77 -146.93,89.17 -0.15,0.1 -0.33,0.22 -0.48,0.31 -112.95,73.52 -218.62,154.25 -316.61,241.06 -42.7,37.82 -83.96,76.82 -123.76,116.9 -506.72,510.24 -777.36,1196.78 -777.04,1893.87 0.24,500.67 140.3,1006.73 433.19,1456.71 1.94,2.98 3.92,5.93 5.93,8.84 v 0 0 h 600.58 v 0 c 42.66,-61.61 65.07,-134.76 65,-208.8 -0.06,-68.22 -19.2,-137.19 -59.18,-198.61 -50.42,-77.47 -94.98,-157.64 -133.52,-239.9 -24.74,-52.81 -47.01,-106.49 -66.79,-160.91 -50.31,-138.4 -84.46,-281.54 -102.05,-427.1 -8.94,-74 -13.6,-148.58 -13.91,-223.53 -0.02,-2.95 -0.02,-5.92 -0.02,-8.87 0.05,-135.16 14.21,-271.31 42.84,-406.65 107.78,-509.42 407.44,-946.57 843.91,-1230.67 320.35,-208.51 686.22,-316.3 1059.66,-316.3 135.37,0 271.73,14.16 407.29,42.83 509.51,107.75 946.56,407.46 1230.67,843.93 70,107.56 187.06,166.07 306.5,166.07 68.32,0 137.41,-19.14 198.95,-59.19 78.74,-51.26 131.21,-127.75 153.65,-211.89 8.26,-30.93 12.46,-62.9 12.42,-95.03 -0.07,-68.18 -19.22,-137.13 -59.19,-198.54 -390.55,-600.02 -991.39,-1012.06 -1691.85,-1160.18 -186.31,-39.39 -373.85,-58.87 -559.91,-58.87"
         style="fill:#ffffff;fill-opacity:1;fill-rule:nonzero;stroke:none"
         id="path52" /><path
         transform="scale(0.1)"
         d="m 850.113,8898.72 c -60.468,0 -121.07,9.55 -179.605,28.76 -155.067,50.85 -281.82,165.57 -347.746,314.77 -84.75,191.76 -150.969,388.59 -198.574,588.23 h 277.976 v 0 c 42.289,-162.46 98.047,-322.66 167.246,-479.24 35.086,-79.39 102.567,-140.44 185.125,-167.54 l 0.035,0.01 c 31.121,-10.22 63.34,-15.3 95.504,-15.3 42.305,0 84.512,8.79 123.989,26.23 114.547,50.61 182.757,163.24 182.757,281.1 0,41.36 -8.4,83.36 -26.15,123.55 -33.62,76.06 -63.29,153.22 -88.99,231.19 h 285.81 v 0 c 15.35,-41.02 31.97,-81.8 49.82,-122.19 33.36,-75.51 49.15,-154.42 49.16,-232.12 0.01,-221.43 -128.18,-433.05 -343.4,-528.18 -74.16,-32.77 -153.453,-49.27 -232.957,-49.27"
         style="fill:#fff8f9;fill-opacity:1;fill-rule:nonzero;stroke:none"
         id="path54" /><g
         id="g56"
         transform="scale(0.1)"><g
           clip-path="url(#clipPath62)"
           id="g58"><path
             id="path64"
             style="fill:#f9b4b2;fill-opacity:1;fill-rule:nonzero;stroke:none"
             d="m 11220,0 h -190.2 c -152.6,86.1016 -255.7,249.801 -255.7,437.602 0,258.296 195,471 445.9,498.898 L 11220,0" /><path
             id="path66"
             style="fill:#ffffff;fill-opacity:1;fill-rule:nonzero;stroke:none"
             d="m 10988.2,2037.54 c -100.1,0 -181.2,81.12 -181.2,181.2 0,100.06 81.1,181.18 181.2,181.18 100,0 181.2,-81.12 181.2,-181.18 0,-100.08 -81.2,-181.2 -181.2,-181.2" /><path
             id="path68"
             style="fill:#f9b4b2;fill-opacity:1;fill-rule:nonzero;stroke:none"
             d="m 9970.28,3411.34 v 1298.02 c 112.42,71.91 229.32,138.18 350.52,198.41 289.1,143.72 591.1,247.45 899.2,310.75 V 4190.18 c -155,-44.6 -307.1,-103.62 -454.6,-176.94 -305.3,-151.75 -573.5,-356.05 -795.12,-601.9" /></g></g><g
         id="g70"
         transform="scale(0.1)"><g
           clip-path="url(#clipPath76)"
           id="g72"><path
             id="path78"
             style="fill:#f69793;fill-opacity:1;fill-rule:nonzero;stroke:none"
             d="m 56.1289,11155.5 c -18.9726,0 -37.7031,1.1 -56.1289,3.1 v 61.4 h 89.957 c -3.9882,-21.3 -7.75,-42.6 -11.3203,-64 v 0 c -7.4648,-0.3 -14.9609,-0.5 -22.5078,-0.5" /><path
             id="path80"
             style="fill:#ffffff;fill-opacity:1;fill-rule:nonzero;stroke:none"
             d="m 3089.26,10013.8 c -158.5,0 -286.98,128.5 -286.98,287 0,158.5 128.48,287 286.98,287 158.49,0 286.98,-128.5 286.98,-287 0,-158.5 -128.49,-287 -286.98,-287" /><path
             id="path82"
             style="fill:#f9b4b2;fill-opacity:1;fill-rule:nonzero;stroke:none"
             d="m 9709.17,9830.48 v 0 h -118.54 c 26.57,58.23 41.35,122.94 41.36,191.32 h 55 55 c 0.01,-67.07 -11.57,-131.48 -32.82,-191.32 m -958.84,0 v 0 h -118.55 c -21.25,59.84 -32.82,124.25 -32.81,191.32 -0.03,157.6 64.05,300.8 167.39,404.1 103.22,103.3 246.42,167.4 404.02,167.4 0.04,0 0.06,0 0.1,0 157.65,0 300.87,-64.1 404.12,-167.4 103.33,-103.3 167.41,-246.5 167.39,-404.1 h -55 -55 c -0.03,127.6 -51.57,242.6 -135.17,326.3 -83.7,83.6 -198.73,135.1 -326.34,135.2 -127.62,-0.1 -242.65,-51.6 -326.34,-135.2 -83.6,-83.7 -135.14,-198.7 -135.17,-326.3 0.01,-68.38 14.79,-133.09 41.36,-191.32" /><path
             id="path84"
             style="fill:#ffffff;fill-opacity:1;fill-rule:nonzero;stroke:none"
             d="M 5363.58,9830.48 H 4763 c 70.57,101.93 184.44,157.23 300.57,157.23 68.32,0 137.41,-19.14 198.95,-59.19 40.99,-26.67 74.85,-60.18 101.06,-98.04" /><path
             id="path86"
             style="fill:#fff8f9;fill-opacity:1;fill-rule:nonzero;stroke:none"
             d="m 1327.49,9830.48 h -285.81 v 0 c -39.74,120.52 -70.02,243.02 -90.813,366.52 -22.804,135.5 -34.211,272.2 -34.199,409 0.02,205.8 25.875,411.8 77.648,614 h 279.494 c -58.33,-201.8 -87.41,-408.5 -87.34,-614.9 0.08,-262.1 47.16,-523.8 141.02,-774.62" /><path
             id="path88"
             style="fill:#fff8f9;fill-opacity:1;fill-rule:nonzero;stroke:none"
             d="M 402.164,9830.48 H 124.188 v 0 c -60.7544,254.82 -91.2114,514.12 -91.2935,773.92 -0.0586,184.2 15.1836,368.7 45.7422,551.6 81.0583,3.6 157.1603,26.4 223.7813,64 h 62.359 c -41.48,-203.6 -62.14,-409.6 -62.074,-615.4 0.086,-260.1 33.281,-519.9 99.461,-774.12" /><path
             id="path90"
             style="fill:#fce0de;fill-opacity:1;fill-rule:nonzero;stroke:none"
             d="m 78.6367,11156 c 3.5703,21.4 7.3321,42.7 11.3203,64 h 212.461 c -66.621,-37.6 -142.723,-60.4 -223.7813,-64" /><path
             id="path92"
             style="fill:#fff8f9;fill-opacity:1;fill-rule:nonzero;stroke:none"
             d="m 5969.92,11161.1 c -70.3,0 -140.73,13 -208.27,39.1 -15.47,6 -30.59,12.6 -45.33,19.8 h 506.71 c -6.69,-3.3 -13.46,-6.4 -20.31,-9.4 -74.59,-33 -153.62,-49.5 -232.8,-49.5" /></g></g><g
         id="g94"
         transform="scale(0.1)"><g
           clip-path="url(#clipPath100)"
           id="g96"><path
             id="path102"
             style="fill:#f69793;fill-opacity:1;fill-rule:nonzero;stroke:none"
             d="m 11220,11158.6 c -68.5,7.7 -132.8,29.1 -190.2,61.4 h 190.2 v -61.4" /></g></g></g></g></svg>