<?xml version="1.0" encoding="UTF-8" standalone="no"?>
<!-- Generator: Adobe Illustrator 19.0.0, SVG Export Plug-In . SVG Version: 6.00 Build 0)  -->

<svg
   xmlns:dc="http://purl.org/dc/elements/1.1/"
   xmlns:cc="http://creativecommons.org/ns#"
   xmlns:rdf="http://www.w3.org/1999/02/22-rdf-syntax-ns#"
   xmlns:svg="http://www.w3.org/2000/svg"
   xmlns="http://www.w3.org/2000/svg"
   xmlns:sodipodi="http://sodipodi.sourceforge.net/DTD/sodipodi-0.dtd"
   xmlns:inkscape="http://www.inkscape.org/namespaces/inkscape"
   version="1.1"
   id="Layer_1"
   x="0px"
   y="0px"
   viewBox="0 0 496 496"
   xml:space="preserve"
   sodipodi:docname="dosen.svg"
   inkscape:version="0.92.4 (5da689c313, 2019-01-14)"
   width="496"
   height="496"><metadata
   id="metadata43"><rdf:RDF><cc:Work
       rdf:about=""><dc:format>image/svg+xml</dc:format><dc:type
         rdf:resource="http://purl.org/dc/dcmitype/StillImage" /><dc:title></dc:title></cc:Work></rdf:RDF></metadata><defs
   id="defs41" /><sodipodi:namedview
   pagecolor="#ffffff"
   bordercolor="#666666"
   borderopacity="1"
   objecttolerance="10"
   gridtolerance="10"
   guidetolerance="10"
   inkscape:pageopacity="0"
   inkscape:pageshadow="2"
   inkscape:window-width="1920"
   inkscape:window-height="956"
   id="namedview39"
   showgrid="false"
   inkscape:zoom="1.3457839"
   inkscape:cx="111.27671"
   inkscape:cy="248"
   inkscape:window-x="0"
   inkscape:window-y="28"
   inkscape:window-maximized="1"
   inkscape:current-layer="layer1"
   fit-margin-top="0"
   fit-margin-left="0"
   fit-margin-right="0"
   fit-margin-bottom="0" />

<g
   id="g8"
   transform="translate(-8.4067797)">
</g>
<g
   id="g10"
   transform="translate(-8.4067797)">
</g>
<g
   id="g12"
   transform="translate(-8.4067797)">
</g>
<g
   id="g14"
   transform="translate(-8.4067797)">
</g>
<g
   id="g16"
   transform="translate(-8.4067797)">
</g>
<g
   id="g18"
   transform="translate(-8.4067797)">
</g>
<g
   id="g20"
   transform="translate(-8.4067797)">
</g>
<g
   id="g22"
   transform="translate(-8.4067797)">
</g>
<g
   id="g24"
   transform="translate(-8.4067797)">
</g>
<g
   id="g26"
   transform="translate(-8.4067797)">
</g>
<g
   id="g28"
   transform="translate(-8.4067797)">
</g>
<g
   id="g30"
   transform="translate(-8.4067797)">
</g>
<g
   id="g32"
   transform="translate(-8.4067797)">
</g>
<g
   id="g34"
   transform="translate(-8.4067797)">
</g>
<g
   id="g36"
   transform="translate(-8.4067797)">
</g>
<g
   inkscape:groupmode="layer"
   id="layer1"
   inkscape:label="Layer 1"
   transform="translate(-8.4067797)"><circle
     style="fill:#5d78ff;fill-opacity:0.62745098;stroke-width:0.95187169"
     id="path894"
     cx="240.00885"
     cy="187.62955"
     r="66.132454" /><circle
     style="fill:#5d78ff;fill-opacity:0.62745098;stroke-width:0.95187169"
     id="path894-5"
     cx="350.72498"
     cy="88.802368"
     r="66.132454" /><circle
     style="fill:#5d78ff;fill-opacity:0.62745098;stroke-width:0.95187169"
     id="path894-3"
     cx="136.7233"
     cy="82.114822"
     r="66.132454" /></g><g
   inkscape:groupmode="layer"
   id="layer2"
   inkscape:label="Layer 2"
   transform="translate(-8.4067797)" /><g
   id="g6"><g
     id="g4"><path
       inkscape:connector-curvature="0"
       d="m 496,286.216 c 0,-28.064 -15.984,-52.624 -40,-64.48 V 96 C 456,43.064 412.936,0 360,0 307.064,0 264,43.064 264,96 v 9.456 c -10.12,-1.728 -20.64,-1.912 -31.216,-0.272 -0.568,0.088 -1.128,0.24 -1.696,0.336 C 231.64,102.384 232,99.216 232,96 V 64 C 232,51.344 222.16,40.944 209.72,40.064 193.544,15.232 165.712,0 136,0 87.48,0 48,39.48 48,88 v 8 c 0,18.28 9.128,35.352 24,45.768 v 0.456 c 0,20.16 9.392,38.144 24,49.88 v 17.128 L 60.168,215.2 C 25.304,221 0,250.872 0,286.216 V 352 H 141.504 C 114.264,362.696 96,388.848 96,418.912 V 496 H 400 V 418.912 C 400,388.848 381.736,362.696 354.496,352 H 496 Z M 280,96 c 0,-44.112 35.888,-80 80,-80 44.112,0 80,35.888 80,80 v 120.08 c -1.384,-0.312 -2.752,-0.648 -4.168,-0.888 L 400,209.224 v -17.128 c 14.608,-11.744 24,-29.72 24,-49.88 L 423.944,91.528 412.6,96.752 C 412.44,96.832 396.456,104 360,104 323.544,104 307.56,96.832 307.464,96.792 L 296,91.296 v 25.656 c -5.08,-2.936 -10.456,-5.344 -16,-7.312 z m 51.344,56.496 C 326.144,143.368 319.56,135.376 312,128.6 v -13.64 c 9.512,2.392 25.2,5.04 48,5.04 22.8,0 38.488,-2.648 48,-5.04 v 27.256 c 0,26.472 -21.528,48 -48,48 -2.68,0 -5.344,-0.296 -8,-0.752 V 177.68 c 0,-12.44 -8.888,-22.832 -20.656,-25.184 z m 13.696,89.328 C 349.488,231.192 352,219.736 352,208 v -2.36 c 2.656,0.336 5.328,0.584 8,0.584 8.488,0 16.584,-1.696 24,-4.712 v 13.2 l -24,72 z m 0.656,52.568 -21.912,-21.912 c 3.944,-3.664 7.44,-7.704 10.616,-11.984 z m 51.736,-69.384 12.64,2.104 5.24,26.256 -41.008,41.016 z M 235.216,120.992 c 34.488,-5.344 68.192,11.832 83.968,42.648 l 2.24,4.36 h 4.888 c 5.344,0 9.688,4.344 9.688,9.68 V 208 c 0,16.512 -5.824,32.448 -16.008,45.136 l -0.04,-49.08 -11.056,4.568 C 308.72,208.704 290.552,216 248,216 c -42.552,0 -60.72,-7.296 -60.848,-7.352 L 176,203.872 v 30.696 c -6.472,-13.448 -9.184,-28.576 -7.48,-43.808 3.92,-35.072 31.968,-64.408 66.696,-69.768 z m -76.584,113.536 c 1.808,4.672 3.904,9.232 6.432,13.584 L 150.952,239.64 Z M 136.28,230.2 112,212 v -10.496 c 7.416,3.016 15.512,4.712 24,4.712 5.536,0 10.96,-0.792 16.248,-2.2 0.216,4.864 0.736,9.688 1.672,14.424 z m 32.624,38.864 7.84,4.704 c 2.36,17.296 10.864,32.616 23.256,43.744 V 336 h -32.936 l -6.76,-54.04 z m 37.12,83.608 27.992,22.392 -23.592,14.16 -21.704,-32.56 z M 216,340.152 V 328.4 c 9.656,4.816 20.496,7.6 32,7.6 11.504,0 22.344,-2.776 32,-7.6 v 11.752 l -32,25.6 z m 73.976,12.512 17.304,3.992 -21.704,32.56 -23.592,-14.16 z M 248,320 c -30.872,0 -56,-25.128 -56,-56 v -37.328 c 10.456,2.44 28.616,5.328 56,5.328 27.384,0 45.544,-2.888 56,-5.328 V 264 c 0,30.872 -25.128,56 -56,56 z M 72,91.296 V 119.88 C 66.912,113.072 64,104.72 64,96 v -8 c 0,-39.704 32.296,-72 72,-72 25.552,0 49.424,13.8 62.288,36.008 L 200.6,56 h 7.4 c 4.416,0 8,3.584 8,8 v 32 c 0,5.016 -1.008,9.904 -2.88,14.608 -4.552,1.8 -8.936,3.952 -13.136,6.416 L 199.952,91.536 188.608,96.76 C 188.44,96.832 172.456,104 136,104 99.544,104 83.56,96.832 83.464,96.792 Z m 16,50.92 V 114.96 c 9.512,2.392 25.2,5.04 48,5.04 22.8,0 38.488,-2.648 48,-5.04 v 13.72 c -16.6,14.984 -28.04,35.616 -31.08,58.368 -5.44,2.072 -11.104,3.176 -16.92,3.176 -26.472,-0.008 -48,-21.536 -48,-48.008 z m 13.936,82.232 19.744,14.808 -22.936,13.768 -15.296,-25.488 z m 3,111.552 H 64 V 312 H 48 v 24 H 16 v -49.784 c 0,-27.496 19.68,-50.728 46.792,-55.24 l 3.696,-0.616 26.768,44.616 9.84,-5.904 8.592,12.888 z m 16.12,0 7.24,-57.96 -11.472,-17.208 19.176,-11.504 19.168,11.496 -11.472,17.208 7.24,57.968 z M 216.84,480 H 160 v -40 h -16 v 40 h -32 v -61.088 c 0,-26.232 17.848,-48.672 43.408,-54.56 l 16.648,-3.84 33.52,50.272 9.52,-5.712 8.632,12.944 z m 46.224,0 h -30.12 l 7.336,-66.016 -11.44,-17.16 19.16,-11.496 19.168,11.496 -11.44,17.16 z M 384,418.912 V 480 h -32 v -40 h -16 v 40 h -56.84 l -6.888,-61.984 8.632,-12.944 9.52,5.712 33.52,-50.272 16.648,3.84 C 366.152,370.24 384,392.68 384,418.912 Z M 480,336 h -32 v -24 h -16 v 24 H 296 v -18.488 c 9.032,-8.112 16,-18.448 20.04,-30.168 l 43.96,43.968 72.688,-72.68 -5.744,-28.704 6.264,1.048 c 27.112,4.52 46.792,27.752 46.792,55.24 z"
       id="path2" /></g></g></svg>