<?xml version="1.0" encoding="UTF-8" standalone="no"?>
<!-- Generator: Adobe Illustrator 19.0.0, SVG Export Plug-In . SVG Version: 6.00 Build 0)  -->

<svg
   xmlns:dc="http://purl.org/dc/elements/1.1/"
   xmlns:cc="http://creativecommons.org/ns#"
   xmlns:rdf="http://www.w3.org/1999/02/22-rdf-syntax-ns#"
   xmlns:svg="http://www.w3.org/2000/svg"
   xmlns="http://www.w3.org/2000/svg"
   xmlns:sodipodi="http://sodipodi.sourceforge.net/DTD/sodipodi-0.dtd"
   xmlns:inkscape="http://www.inkscape.org/namespaces/inkscape"
   version="1.1"
   id="Capa_1"
   x="0px"
   y="0px"
   viewBox="0 0 60 60"
   style="enable-background:new 0 0 60 60;"
   xml:space="preserve"
   sodipodi:docname="file.svg"
   inkscape:version="0.92.4 (5da689c313, 2019-01-14)"><metadata
   id="metadata53"><rdf:RDF><cc:Work
       rdf:about=""><dc:format>image/svg+xml</dc:format><dc:type
         rdf:resource="http://purl.org/dc/dcmitype/StillImage" /></cc:Work></rdf:RDF></metadata><defs
   id="defs51" /><sodipodi:namedview
   pagecolor="#ffffff"
   bordercolor="#666666"
   borderopacity="1"
   objecttolerance="10"
   gridtolerance="10"
   guidetolerance="10"
   inkscape:pageopacity="0"
   inkscape:pageshadow="2"
   inkscape:window-width="1920"
   inkscape:window-height="956"
   id="namedview49"
   showgrid="false"
   inkscape:zoom="3.9333333"
   inkscape:cx="31.016949"
   inkscape:cy="30"
   inkscape:window-x="0"
   inkscape:window-y="28"
   inkscape:window-maximized="1"
   inkscape:current-layer="Capa_1" />
<g
   id="g16">
	<path
   d="M56.954,1H3.046C1.366,1,0,2.366,0,4.046V18.01c0,0.553,0.447,1,1,1h2V53v5c0,0.553,0.447,1,1,1h52c0.553,0,1-0.447,1-1v-5   V19.01h2c0.553,0,1-0.447,1-1V4.046C60,2.366,58.634,1,56.954,1z M55,57H5v-3h50V57z M55,52H5V19.01h50V52z M58,17.01h-2H4H2V4.046   C2,3.469,2.469,3,3.046,3h53.908C57.531,3,58,3.469,58,4.046V17.01z"
   id="path2" />
	<path
   d="M16,41h28c0.553,0,1-0.447,1-1V26c0-0.553-0.447-1-1-1H16c-0.553,0-1,0.447-1,1v14C15,40.553,15.447,41,16,41z M17,27h26   v12H17V27z"
   id="path4" />
	<path
   d="M20,32h6c0.553,0,1-0.447,1-1s-0.447-1-1-1h-6c-0.553,0-1,0.447-1,1S19.447,32,20,32z"
   id="path6" />
	<path
   d="M30,32c0.26,0,0.52-0.11,0.71-0.29C30.89,31.52,31,31.26,31,31c0-0.261-0.11-0.521-0.29-0.71c-0.38-0.37-1.05-0.37-1.42,0   C29.109,30.479,29,30.739,29,31c0,0.27,0.109,0.52,0.29,0.71C29.479,31.89,29.729,32,30,32z"
   id="path8" />
	<path
   d="M40,34H24c-0.553,0-1,0.447-1,1s0.447,1,1,1h16c0.553,0,1-0.447,1-1S40.553,34,40,34z"
   id="path10" />
	<path
   d="M19.29,34.29C19.109,34.479,19,34.739,19,35c0,0.26,0.109,0.52,0.29,0.71C19.479,35.89,19.729,36,20,36   c0.27,0,0.52-0.11,0.71-0.29C20.89,35.52,21,35.26,21,35c0-0.261-0.11-0.521-0.29-0.71C20.34,33.92,19.67,33.92,19.29,34.29z"
   id="path12" />
	<path
   d="M39,5.01H21c-2.757,0-5,2.243-5,5s2.243,5,5,5h18c2.757,0,5-2.243,5-5S41.757,5.01,39,5.01z M39,13.01H21   c-1.654,0-3-1.346-3-3s1.346-3,3-3h18c1.654,0,3,1.346,3,3S40.654,13.01,39,13.01z"
   id="path14" />
</g>
<g
   id="g18">
</g>
<g
   id="g20">
</g>
<g
   id="g22">
</g>
<g
   id="g24">
</g>
<g
   id="g26">
</g>
<g
   id="g28">
</g>
<g
   id="g30">
</g>
<g
   id="g32">
</g>
<g
   id="g34">
</g>
<g
   id="g36">
</g>
<g
   id="g38">
</g>
<g
   id="g40">
</g>
<g
   id="g42">
</g>
<g
   id="g44">
</g>
<g
   id="g46">
</g>
<path
   style="fill:#ef5350;fill-opacity:0;stroke-width:0.25423729"
   d="M 17.135593,33 V 27.152542 H 29.974576 42.813559 V 33 38.847458 H 29.974576 17.135593 Z m 3.81356,2.542373 c 0.411575,-0.769036 -0.09472,-1.525424 -1.021051,-1.525424 -0.587852,0 -0.78341,0.137407 -0.909275,0.638895 -0.09197,0.366435 -0.02655,0.800117 0.153404,1.016949 0.45032,0.542601 1.456245,0.468769 1.776922,-0.13042 z m 19.779661,0.20339 c 0.545698,-0.545698 0.361689,-1.465641 -0.34706,-1.735106 -0.859459,-0.326766 -15.8871,-0.326766 -16.746559,0 -0.708749,0.269465 -0.892757,1.189408 -0.347059,1.735106 0.436801,0.436801 17.003876,0.436801 17.440678,0 z m -14.330111,-3.75642 c 0.708749,-0.269465 0.892758,-1.189408 0.34706,-1.735106 -0.484093,-0.484092 -7.16463,-0.419726 -7.573532,0.07297 -0.408588,0.492319 -0.129904,1.585302 0.442349,1.734862 0.87053,0.227517 6.14309,0.170995 6.784123,-0.07273 z m 4.677376,-0.875153 c 0.235336,-1.187778 -1.540563,-1.620306 -2.051201,-0.499578 -0.268085,0.588384 -0.233778,0.721675 0.296206,1.150831 0.527241,0.426934 0.663884,0.442638 1.134925,0.130435 0.294534,-0.195214 0.573565,-0.546974 0.62007,-0.781688 z"
   id="path860"
   inkscape:connector-curvature="0" /><path
   style="fill:#fb0904;fill-opacity:0.627451;stroke-width:0.25423729"
   d="m 2.0338983,10.387298 c 0,-6.5276569 0.00583,-6.5998397 0.565044,-6.9915258 C 3.1016874,3.0436358 6.1227869,3 30,3 c 23.877214,0 26.898313,0.043636 27.401057,0.3957722 0.55921,0.3916861 0.565045,0.4638689 0.565045,6.9915258 v 6.595753 H 30 2.0338983 Z m 38.2627117,4.53547 c 2.280928,-0.62305 3.722761,-2.534081 3.722761,-4.9342187 0,-2.0718185 -0.88968,-3.5635281 -2.705812,-4.5367891 C 40.321881,4.9203218 40.040751,4.9067797 30,4.9067797 c -10.040752,0 -10.32188,0.013542 -11.313559,0.5449805 -1.816133,0.973261 -2.705811,2.4649706 -2.705811,4.5367891 0,2.3397237 1.435395,4.3022607 3.595641,4.9161247 1.260488,0.358185 19.417251,0.37404 20.720339,0.01809 z"
   id="path884"
   inkscape:connector-curvature="0" /><path
   style="fill:#fb0904;fill-opacity:0.62745098;stroke-width:0.25423729"
   d="M 5.0847458,55.5 V 54.101695 H 30 54.915254 V 55.5 56.898305 H 30 5.0847458 Z"
   id="path888"
   inkscape:connector-curvature="0" /></svg>