<?xml version="1.0" encoding="UTF-8" standalone="no"?>
<!-- Generator: Adobe Illustrator 18.0.0, SVG Export Plug-In . SVG Version: 6.00 Build 0)  -->

<svg
   xmlns:dc="http://purl.org/dc/elements/1.1/"
   xmlns:cc="http://creativecommons.org/ns#"
   xmlns:rdf="http://www.w3.org/1999/02/22-rdf-syntax-ns#"
   xmlns:svg="http://www.w3.org/2000/svg"
   xmlns="http://www.w3.org/2000/svg"
   xmlns:sodipodi="http://sodipodi.sourceforge.net/DTD/sodipodi-0.dtd"
   xmlns:inkscape="http://www.inkscape.org/namespaces/inkscape"
   version="1.1"
   id="Capa_1"
   x="0px"
   y="0px"
   viewBox="0 0 60.000925 55.201887"
   xml:space="preserve"
   sodipodi:docname="informasi.svg"
   width="60.000923"
   height="55.201885"
   inkscape:version="0.92.4 (5da689c313, 2019-01-14)"><metadata
   id="metadata47"><rdf:RDF><cc:Work
       rdf:about=""><dc:format>image/svg+xml</dc:format><dc:type
         rdf:resource="http://purl.org/dc/dcmitype/StillImage" /><dc:title></dc:title></cc:Work></rdf:RDF></metadata><defs
   id="defs45" /><sodipodi:namedview
   pagecolor="#ffffff"
   bordercolor="#666666"
   borderopacity="1"
   objecttolerance="10"
   gridtolerance="10"
   guidetolerance="10"
   inkscape:pageopacity="0"
   inkscape:pageshadow="2"
   inkscape:window-width="1920"
   inkscape:window-height="956"
   id="namedview43"
   showgrid="false"
   fit-margin-top="0"
   fit-margin-left="0"
   fit-margin-right="0"
   fit-margin-bottom="0"
   inkscape:zoom="2.7811477"
   inkscape:cx="-35.141238"
   inkscape:cy="27.600501"
   inkscape:window-x="0"
   inkscape:window-y="28"
   inkscape:window-maximized="1"
   inkscape:current-layer="Capa_1" />
















<g
   id="g866"
   transform="translate(50.07538,20.098022)"><g
     transform="translate(-50.07538,-22.498136)"
     id="g10">
	<path
   inkscape:connector-curvature="0"
   id="path2"
   d="M 50.052,20.458 V 7.589 C 50.052,5.75 49.11,4.087 47.532,3.143 46.732,2.664 45.847,2.417 44.957,2.402 44.074,2.378 43.185,2.583 42.37,3.02 L 40,4.29 v 0.026 l -17.213,9.222 c -1.245,0.667 -2.138,1.797 -2.523,3.111 L 7.236,17.445 C 5.59,17.562 4.288,18.851 4.091,20.453 H 3.211 C 1.44,20.452 0,21.893 0,23.663 v 5.578 c 0,1.771 1.44,3.211 3.211,3.211 h 0.885 c 0.217,1.775 1.66,3.203 3.492,3.334 l 0.464,0.028 v 17.288 c 0,2.481 2.019,4.5 4.5,4.5 2.481,0 4.5,-2.019 4.5,-4.5 v -16.74 l 3.238,0.197 c 0.41,1.327 1.337,2.451 2.628,3.095 L 40,48.195 v 0.026 l 2.499,1.25 c 0.737,0.369 1.53,0.552 2.321,0.552 0.008,0 0.016,-0.002 0.024,-0.002 0.009,0 0.019,0.002 0.028,0.002 0.943,0 1.884,-0.261 2.722,-0.778 1.539,-0.951 2.458,-2.6 2.458,-4.409 V 32.447 C 52.784,32.419 55,30.192 55,27.452 v -2 c 0,-2.739 -2.216,-4.966 -4.948,-4.994 z m -35,32.645 c 0,1.379 -1.121,2.5 -2.5,2.5 -1.379,0 -2.5,-1.121 -2.5,-2.5 v -0.65 h 2 c 0.553,0 1,-0.447 1,-1 0,-0.553 -0.447,-1 -1,-1 h -2 v -2 h 2 c 0.553,0 1,-0.447 1,-1 0,-0.553 -0.447,-1 -1,-1 h -2 v -2 h 2 c 0.553,0 1,-0.447 1,-1 0,-0.553 -0.447,-1 -1,-1 h -2 v -2 h 2 c 0.553,0 1,-0.447 1,-1 0,-0.553 -0.447,-1 -1,-1 h -2 v -2.512 l 5,0.31 z M 43.446,47.682 42,46.959 V 5.515 l 1.365,-0.731 c 0.422,-0.226 0.876,-0.335 1.333,-0.36 0.064,-0.002 0.126,-0.021 0.19,-0.02 0.006,0 0.011,0.001 0.017,0.001 0.535,0.015 1.067,0.166 1.547,0.454 0.97,0.58 1.548,1.6 1.548,2.73 v 12.863 12 12.383 c 0,1.111 -0.564,2.123 -1.51,2.707 -0.467,0.289 -0.986,0.446 -1.511,0.473 -0.521,0.018 -1.046,-0.09 -1.533,-0.333 z M 4,30.452 H 3.211 C 2.543,30.452 2,29.909 2,29.242 V 23.664 C 2,22.996 2.543,22.453 3.211,22.453 H 4 Z m 2.052,1.547 V 20.865 c 0,-0.746 0.583,-1.372 1.316,-1.425 L 20.052,18.666 V 34.54 L 7.72,33.791 C 6.784,33.724 6.052,32.937 6.052,31.999 Z m 17.76,5.866 c -1.086,-0.542 -1.76,-1.633 -1.76,-2.847 v -16.91 c 0,-1.176 0.644,-2.251 1.681,-2.806 L 40,6.586 V 45.958 Z M 53,27.452 c 0,1.637 -1.318,2.966 -2.948,2.995 v -7.99 C 51.682,22.486 53,23.816 53,25.452 Z" />
	<path
   inkscape:connector-curvature="0"
   id="path4"
   d="m 57.817,19.876 c -0.317,-0.451 -0.942,-0.559 -1.394,-0.241 -0.451,0.318 -0.56,0.941 -0.241,1.394 1.156,1.641 1.768,3.474 1.817,5.45 0.064,2.493 -1.246,4.601 -1.813,5.391 -0.322,0.449 -0.219,1.074 0.229,1.396 0.177,0.127 0.381,0.188 0.582,0.188 0.312,0 0.618,-0.145 0.813,-0.417 0.685,-0.955 2.268,-3.51 2.188,-6.608 -0.059,-2.379 -0.793,-4.583 -2.181,-6.553 z" />
	<path
   inkscape:connector-curvature="0"
   id="path6"
   d="m 31.896,15.009 c -0.245,-0.494 -0.842,-0.699 -1.34,-0.453 l -4.451,2.201 C 24.807,17.452 24,18.799 24,20.273 v 2.18 c 0,0.553 0.447,1 1,1 0.553,0 1,-0.447 1,-1 v -2.18 c 0,-0.734 0.402,-1.406 1.021,-1.737 l 4.423,-2.187 c 0.494,-0.245 0.698,-0.845 0.452,-1.34 z" />
	<path
   inkscape:connector-curvature="0"
   id="path8"
   d="m 25,24.452 c -0.553,0 -1,0.447 -1,1 v 2 c 0,0.553 0.447,1 1,1 0.553,0 1,-0.447 1,-1 v -2 c 0,-0.552 -0.447,-1 -1,-1 z" />
</g><g
     transform="translate(-50.07538,-22.498136)"
     id="g12">
</g><g
     transform="translate(-50.07538,-22.498136)"
     id="g14">
</g><g
     transform="translate(-50.07538,-22.498136)"
     id="g16">
</g><g
     transform="translate(-50.07538,-22.498136)"
     id="g18">
</g><g
     transform="translate(-50.07538,-22.498136)"
     id="g20">
</g><g
     transform="translate(-50.07538,-22.498136)"
     id="g22">
</g><g
     transform="translate(-50.07538,-22.498136)"
     id="g24">
</g><g
     transform="translate(-50.07538,-22.498136)"
     id="g26">
</g><g
     transform="translate(-50.07538,-22.498136)"
     id="g28">
</g><g
     transform="translate(-50.07538,-22.498136)"
     id="g30">
</g><g
     transform="translate(-50.07538,-22.498136)"
     id="g32">
</g><g
     transform="translate(-50.07538,-22.498136)"
     id="g34">
</g><g
     transform="translate(-50.07538,-22.498136)"
     id="g36">
</g><g
     transform="translate(-50.07538,-22.498136)"
     id="g38">
</g><g
     transform="translate(-50.07538,-22.498136)"
     id="g40">
</g><path
     inkscape:connector-curvature="0"
     id="path854"
     d="m -36.536374,11.520513 c -5.479982,-0.333478 -6.334148,-0.442204 -6.801187,-0.865718 -0.51459,-0.466634 -0.534119,-0.709213 -0.534119,-6.634657 0,-5.53745 0.04434,-6.189678 0.444937,-6.545352 0.348157,-0.309111 1.825929,-0.480583 6.793839,-0.788317 3.491896,-0.216302 6.38249,-0.359689 6.423543,-0.318636 0.04105,0.04105 0.04436,3.553009 0.0073,7.804348 l -0.06729,7.729707 z"
     style="fill:#2b0000;fill-opacity:0;stroke-width:0.25424999" /><path
     inkscape:connector-curvature="0"
     id="path862"
     d="m -18.675506,18.928824 c -7.634072,-3.848938 -8.430314,-4.310387 -8.834792,-5.120061 -0.397806,-0.796319 -0.444542,-1.825439 -0.444542,-9.788625 0,-7.964579 0.04667,-8.991783 0.444542,-9.784968 0.395365,-0.78818 1.372719,-1.384795 8.834792,-5.393099 l 8.39025,-4.506881 0.06657,9.797768 c 0.03661,5.388773 0.03661,14.124132 0,19.411911 l -0.06657,9.614143 z M -23.934465,4.392779 c 0.116065,-1.582312 -0.11638,-2.246979 -0.850215,-2.43116 -1.007319,-0.252821 -1.391731,0.273367 -1.387307,1.898963 0.0041,1.515737 0.143559,1.906491 0.758856,2.126635 0.740952,0.2651 1.393912,-0.438983 1.478666,-1.594438 z m -0.352702,-3.696051 c 0.272102,-0.272102 0.399536,-0.873676 0.399536,-1.886081 0,-0.817599 0.07191,-1.673939 0.1598,-1.902977 0.08789,-0.229038 1.410553,-1.043709 2.939251,-1.81038 2.733574,-1.370939 2.778147,-1.407423 2.700512,-2.210424 -0.121991,-1.261791 -0.978185,-1.199318 -3.931899,0.286894 -2.621426,1.319016 -3.434117,1.982575 -3.884728,3.171868 -0.370682,0.978338 -0.347138,4.064483 0.03391,4.445535 0.422277,0.422277 1.107781,0.381398 1.583614,-0.09444 z"
     style="fill:#ff7043;fill-opacity:0;stroke-width:0.25424999" /><path
     inkscape:connector-curvature="0"
     id="path864"
     d="m -18.675506,18.928824 c -7.634072,-3.848938 -8.430314,-4.310387 -8.834792,-5.120061 -0.397806,-0.796319 -0.444542,-1.825439 -0.444542,-9.788625 0,-7.964579 0.04667,-8.991783 0.444542,-9.784968 0.395365,-0.78818 1.372719,-1.384795 8.834792,-5.393099 l 8.39025,-4.506881 0.06657,9.797768 c 0.03661,5.388773 0.03661,14.124132 0,19.411911 l -0.06657,9.614143 z M -23.934465,4.392779 c 0.116065,-1.582312 -0.11638,-2.246979 -0.850215,-2.43116 -1.007319,-0.252821 -1.391731,0.273367 -1.387307,1.898963 0.0041,1.515737 0.143559,1.906491 0.758856,2.126635 0.740952,0.2651 1.393912,-0.438983 1.478666,-1.594438 z m -0.352702,-3.696051 c 0.272102,-0.272102 0.399536,-0.873676 0.399536,-1.886081 0,-0.817599 0.07191,-1.673939 0.1598,-1.902977 0.08789,-0.229038 1.410553,-1.043709 2.939251,-1.81038 2.733574,-1.370939 2.778147,-1.407423 2.700512,-2.210424 -0.121991,-1.261791 -0.978185,-1.199318 -3.931899,0.286894 -2.621426,1.319016 -3.434117,1.982575 -3.884728,3.171868 -0.370682,0.978338 -0.347138,4.064483 0.03391,4.445535 0.422277,0.422277 1.107781,0.381398 1.583614,-0.09444 z"
     style="fill:#ff7043;fill-opacity:0;stroke-width:0.25424999" /><path
     inkscape:connector-curvature="0"
     id="path866"
     d="m -18.675506,18.928824 c -7.634072,-3.848938 -8.430314,-4.310387 -8.834792,-5.120061 -0.397806,-0.796319 -0.444542,-1.825439 -0.444542,-9.788625 0,-7.964579 0.04667,-8.991783 0.444542,-9.784968 0.395365,-0.78818 1.372719,-1.384795 8.834792,-5.393099 l 8.39025,-4.506881 0.06657,9.797768 c 0.03661,5.388773 0.03661,14.124132 0,19.411911 l -0.06657,9.614143 z M -23.934465,4.392779 c 0.116065,-1.582312 -0.11638,-2.246979 -0.850215,-2.43116 -1.007319,-0.252821 -1.391731,0.273367 -1.387307,1.898963 0.0041,1.515737 0.143559,1.906491 0.758856,2.126635 0.740952,0.2651 1.393912,-0.438983 1.478666,-1.594438 z m -0.352702,-3.696051 c 0.272102,-0.272102 0.399536,-0.873676 0.399536,-1.886081 0,-0.817599 0.07191,-1.673939 0.1598,-1.902977 0.08789,-0.229038 1.410553,-1.043709 2.939251,-1.81038 2.733574,-1.370939 2.778147,-1.407423 2.700512,-2.210424 -0.121991,-1.261791 -0.978185,-1.199318 -3.931899,0.286894 -2.621426,1.319016 -3.434117,1.982575 -3.884728,3.171868 -0.370682,0.978338 -0.347138,4.064483 0.03391,4.445535 0.422277,0.422277 1.107781,0.381398 1.583614,-0.09444 z"
     style="fill:#ff7043;fill-opacity:0;stroke-width:0.25424999" /><path
     inkscape:connector-curvature="0"
     id="path884"
     d="m -5.887857,25.408054 c -0.09888,-0.02484 -0.614715,-0.252261 -1.146301,-0.505374 l -0.966519,-0.460207 0.02266,-20.723532 0.02266,-20.723534 0.970298,-0.49677 c 0.957525,-0.490231 0.980601,-0.496767 1.752874,-0.496492 0.671276,2.39e-4 0.854319,0.03545 1.287024,0.247568 0.67547,0.331127 1.347506,1.053621 1.594779,1.714519 l 0.194607,0.520134 -0.02328,19.38844 -0.02328,19.38844 -0.237834,0.449455 c -0.54387,1.0278 -1.529595,1.6729 -2.623148,1.716698 -0.354621,0.0142 -0.725667,0.0055 -0.824547,-0.01935 z"
     style="fill:#ff7043;fill-opacity:0.62745098;stroke-width:0.08989095" /><path
     inkscape:connector-curvature="0"
     id="path886"
     d="M 0,3.971493 V 0 l 0.403954,0.05537 c 0.906654,0.124271 1.916895,0.937016 2.255251,1.814365 0.148156,0.384164 0.17236,0.686757 0.17236,2.154851 0,1.908078 -0.05269,2.118508 -0.727989,2.907444 C 1.766794,7.325484 0.902736,7.792497 0.337091,7.886793 L 0,7.942983 Z"
     style="fill:#ff7043;fill-opacity:0.62745098;stroke-width:0.08989095" /></g></svg>