<?xml version="1.0" encoding="UTF-8" standalone="no"?>
<svg
   xmlns:dc="http://purl.org/dc/elements/1.1/"
   xmlns:cc="http://creativecommons.org/ns#"
   xmlns:rdf="http://www.w3.org/1999/02/22-rdf-syntax-ns#"
   xmlns:svg="http://www.w3.org/2000/svg"
   xmlns="http://www.w3.org/2000/svg"
   xmlns:sodipodi="http://sodipodi.sourceforge.net/DTD/sodipodi-0.dtd"
   xmlns:inkscape="http://www.inkscape.org/namespaces/inkscape"
   height="480pt"
   viewBox="0 0 480 480"
   width="480pt"
   version="1.1"
   id="svg8"
   sodipodi:docname="clock.svg"
   inkscape:version="0.92.4 (5da689c313, 2019-01-14)">
  <metadata
     id="metadata14">
    <rdf:RDF>
      <cc:Work
         rdf:about="">
        <dc:format>image/svg+xml</dc:format>
        <dc:type
           rdf:resource="http://purl.org/dc/dcmitype/StillImage" />
        <dc:title />
      </cc:Work>
    </rdf:RDF>
  </metadata>
  <defs
     id="defs12" />
  <sodipodi:namedview
     pagecolor="#ffffff"
     bordercolor="#666666"
     borderopacity="1"
     objecttolerance="10"
     gridtolerance="10"
     guidetolerance="10"
     inkscape:pageopacity="0"
     inkscape:pageshadow="2"
     inkscape:window-width="1920"
     inkscape:window-height="956"
     id="namedview10"
     showgrid="false"
     fit-margin-top="0"
     fit-margin-left="0"
     fit-margin-right="0"
     fit-margin-bottom="0"
     inkscape:zoom="0.36875"
     inkscape:cx="-113.8983"
     inkscape:cy="442.0339"
     inkscape:window-x="0"
     inkscape:window-y="28"
     inkscape:window-maximized="1"
     inkscape:current-layer="layer1" />
  <g
     inkscape:groupmode="layer"
     id="layer1"
     inkscape:label="1"
     transform="translate(40.677966,-91.525427)">
    <path
       style="fill:#8d6e63;fill-opacity:0.62745098;stroke-width:2.71186447"
       d="M 281.08389,614.87121 C 183.78101,602.22053 96.298133,538.57407 52.619381,448.65632 -28.965354,280.70472 64.279728,80.435293 246.7568,31.692892 c 27.40344,-7.319875 89.74333,-10.012728 119.91106,-5.179714 116.07191,18.595285 210.19826,104.120762 241.2064,219.165972 6.28865,23.33199 7.1143,31.55593 7.27102,72.42254 0.18007,46.98536 -1.25896,57.64299 -12.63347,93.55933 -42.3767,133.80968 -181.02484,221.46451 -321.42792,203.21019 z m 102.37374,-45.7619 c 26.43989,-6.84667 65.63479,-24.80591 85.42373,-39.14147 52.40838,-37.96581 90.17812,-96.90541 103.57147,-161.62311 5.91344,-28.57418 3.61513,-88.73374 -4.45076,-116.50129 C 532.52483,129.70985 415.84451,50.241639 292.97118,64.526423 140.16137,82.291507 37.763975,223.0811 68.682971,372.90777 c 9.299637,45.064 29.960133,85.49749 60.813559,119.01472 39.89628,43.34086 81.8832,67.40082 139.59108,79.99059 31.63928,6.90254 81.61848,5.67729 114.37002,-2.80377 z"
       id="path818"
       inkscape:connector-curvature="0"
       transform="matrix(0.75,0,0,0.75,-40.677966,91.525427)" />
  </g>
  <g
     inkscape:groupmode="layer"
     id="layer2"
     inkscape:label="2"
     transform="translate(40.677966,-91.525427)">
    <g
       id="g837"
       transform="translate(-40.677966,91.525427)">
      <path
         inkscape:connector-curvature="0"
         id="path2"
         d="M 240,0 C 107.45313,0 0,107.45313 0,240 0,372.54687 107.45313,480 240,480 372.54687,480 480,372.54687 480,240 479.85156,107.51563 372.48437,0.148438 240,0 Z m 0,464 C 116.28906,464 16,363.71094 16,240 16,116.28906 116.28906,16 240,16 363.71094,16 464,116.28906 464,240 463.85937,363.65234 363.65234,463.85937 240,464 Z m 0,0" />
      <path
         inkscape:connector-curvature="0"
         id="path4"
         d="M 240,48 C 133.96094,48 48,133.96094 48,240 48,346.03906 133.96094,432 240,432 346.03906,432 432,346.03906 432,240 431.875,134.01172 345.98828,48.125 240,48 Z m 8,367.80078 V 392 c 0,-4.41797 -3.58203,-8 -8,-8 -4.41797,0 -8,3.58203 -8,8 v 23.80078 C 141.14062,411.55859 68.441406,338.85937 64.199219,248 H 88 c 4.417969,0 8,-3.58203 8,-8 0,-4.41797 -3.582031,-8 -8,-8 H 64.199219 C 68.441406,141.14063 141.14062,68.441406 232,64.199219 V 88 c 0,4.417969 3.58203,8 8,8 4.41797,0 8,-3.582031 8,-8 V 64.199219 C 338.85937,68.441406 411.55859,141.14063 415.80078,232 H 392 c -4.41797,0 -8,3.58203 -8,8 0,4.41797 3.58203,8 8,8 h 23.80078 C 411.55859,338.85937 338.85937,411.55859 248,415.80078 Z m 0,0" />
      <path
         inkscape:connector-curvature="0"
         id="path6"
         d="M 344,232 H 262.52734 C 259.14844,222.44531 250.13281,216.04297 240,216 c -3.57031,0.0117 -7.08984,0.83203 -10.29688,2.39844 l -0.0469,-0.0703 -88,-88 c -3.14063,-3.03124 -8.12891,-2.98828 -11.21484,0.0977 -3.08594,3.08594 -3.12891,8.07422 -0.0977,11.21484 l 88,88 0.0703,0.0469 C 216.84375,232.89844 216.01562,236.42578 216,240 c -0.0234,11.67578 8.37891,21.66406 19.88672,23.64453 11.50781,1.97656 22.76172,-4.63281 26.64062,-15.64453 H 344 c 4.41797,0 8,-3.58203 8,-8 0,-4.41797 -3.58203,-8 -8,-8 z m -104,16 c -4.41797,0 -8,-3.58203 -8,-8 0,-4.41797 3.58203,-8 8,-8 4.41797,0 8,3.58203 8,8 0,4.41797 -3.58203,8 -8,8 z m 0,0" />
    </g>
  </g>
</svg>
