<?xml version="1.0" encoding="UTF-8" standalone="no"?>
<!-- Generator: Adobe Illustrator 19.0.0, SVG Export Plug-In . SVG Version: 6.00 Build 0)  -->

<svg
   xmlns:dc="http://purl.org/dc/elements/1.1/"
   xmlns:cc="http://creativecommons.org/ns#"
   xmlns:rdf="http://www.w3.org/1999/02/22-rdf-syntax-ns#"
   xmlns:svg="http://www.w3.org/2000/svg"
   xmlns="http://www.w3.org/2000/svg"
   xmlns:sodipodi="http://sodipodi.sourceforge.net/DTD/sodipodi-0.dtd"
   xmlns:inkscape="http://www.inkscape.org/namespaces/inkscape"
   version="1.1"
   id="Capa_1"
   x="0px"
   y="0px"
   viewBox="0 0 56 56"
   style="enable-background:new 0 0 56 56;"
   xml:space="preserve"
   sodipodi:docname="kategoriInformasi.svg"
   inkscape:version="0.92.4 (5da689c313, 2019-01-14)"><metadata
   id="metadata57"><rdf:RDF><cc:Work
       rdf:about=""><dc:format>image/svg+xml</dc:format><dc:type
         rdf:resource="http://purl.org/dc/dcmitype/StillImage" /></cc:Work></rdf:RDF></metadata><defs
   id="defs55" /><sodipodi:namedview
   pagecolor="#ffffff"
   bordercolor="#666666"
   borderopacity="1"
   objecttolerance="10"
   gridtolerance="10"
   guidetolerance="10"
   inkscape:pageopacity="0"
   inkscape:pageshadow="2"
   inkscape:window-width="1920"
   inkscape:window-height="956"
   id="namedview53"
   showgrid="false"
   inkscape:zoom="4.2142857"
   inkscape:cx="28.949153"
   inkscape:cy="28"
   inkscape:window-x="0"
   inkscape:window-y="28"
   inkscape:window-maximized="1"
   inkscape:current-layer="Capa_1" />
<g
   id="g20">
	<path
   d="M8,40c-4.411,0-8,3.589-8,8s3.589,8,8,8s8-3.589,8-8S12.411,40,8,40z M8,54c-3.309,0-6-2.691-6-6s2.691-6,6-6s6,2.691,6,6   S11.309,54,8,54z"
   id="path2" />
	<path
   d="M28,40c-4.411,0-8,3.589-8,8s3.589,8,8,8s8-3.589,8-8S32.411,40,28,40z M28,54c-3.309,0-6-2.691-6-6s2.691-6,6-6   s6,2.691,6,6S31.309,54,28,54z"
   id="path4" />
	<path
   d="M48,40c-4.411,0-8,3.589-8,8s3.589,8,8,8s8-3.589,8-8S52.411,40,48,40z M48,54c-3.309,0-6-2.691-6-6s2.691-6,6-6   s6,2.691,6,6S51.309,54,48,54z"
   id="path6" />
	<path
   d="M8,20c-4.411,0-8,3.589-8,8s3.589,8,8,8s8-3.589,8-8S12.411,20,8,20z M8,34c-3.309,0-6-2.691-6-6s2.691-6,6-6s6,2.691,6,6   S11.309,34,8,34z"
   id="path8" />
	<path
   d="M28,20c-4.411,0-8,3.589-8,8s3.589,8,8,8s8-3.589,8-8S32.411,20,28,20z M28,34c-3.309,0-6-2.691-6-6s2.691-6,6-6   s6,2.691,6,6S31.309,34,28,34z"
   id="path10" />
	<path
   d="M48,20c-4.411,0-8,3.589-8,8s3.589,8,8,8s8-3.589,8-8S52.411,20,48,20z M48,34c-3.309,0-6-2.691-6-6s2.691-6,6-6   s6,2.691,6,6S51.309,34,48,34z"
   id="path12" />
	<path
   d="M8,0C3.589,0,0,3.589,0,8s3.589,8,8,8s8-3.589,8-8S12.411,0,8,0z M8,14c-3.309,0-6-2.691-6-6s2.691-6,6-6s6,2.691,6,6   S11.309,14,8,14z"
   id="path14" />
	<path
   d="M28,0c-4.411,0-8,3.589-8,8s3.589,8,8,8s8-3.589,8-8S32.411,0,28,0z M28,14c-3.309,0-6-2.691-6-6s2.691-6,6-6s6,2.691,6,6   S31.309,14,28,14z"
   id="path16" />
	<path
   d="M48,16c4.411,0,8-3.589,8-8s-3.589-8-8-8s-8,3.589-8,8S43.589,16,48,16z M48,2c3.309,0,6,2.691,6,6s-2.691,6-6,6   s-6-2.691-6-6S44.691,2,48,2z"
   id="path18" />
</g>
<g
   id="g22">
</g>
<g
   id="g24">
</g>
<g
   id="g26">
</g>
<g
   id="g28">
</g>
<g
   id="g30">
</g>
<g
   id="g32">
</g>
<g
   id="g34">
</g>
<g
   id="g36">
</g>
<g
   id="g38">
</g>
<g
   id="g40">
</g>
<g
   id="g42">
</g>
<g
   id="g44">
</g>
<g
   id="g46">
</g>
<g
   id="g48">
</g>
<g
   id="g50">
</g>
<path
   style="fill:#42a5f5;fill-opacity:0.627451;stroke-width:0.23728813"
   d="m 46.040423,33.549097 c -2.374778,-0.879408 -3.834113,-3.017823 -3.815936,-5.591628 0.01307,-1.850804 0.567225,-3.066662 1.979028,-4.342141 3.15513,-2.85047 8.206487,-1.345386 9.412933,2.804643 0.792382,2.725699 -0.532633,5.628925 -3.140409,6.880915 -1.177512,0.565322 -3.263988,0.682078 -4.435616,0.248211 z"
   id="path864"
   inkscape:connector-curvature="0" /><path
   style="fill:#42a5f5;fill-opacity:0.62745098;stroke-width:0.23728813"
   d="m 25.936275,33.494488 c -1.201621,-0.425654 -2.651789,-1.780005 -3.277148,-3.060617 -0.647872,-1.326717 -0.622698,-3.705243 0.0528,-4.98904 1.830792,-3.47943 6.303949,-4.366112 9.132877,-1.810345 1.400823,1.265559 1.950874,2.481785 1.952889,4.318056 0.002,1.833398 -0.499502,3.016723 -1.822822,4.300962 -1.558263,1.512242 -3.909036,1.995347 -6.038601,1.240984 z"
   id="path866"
   inkscape:connector-curvature="0" /><path
   style="fill:#42a5f5;fill-opacity:0.62745098;stroke-width:0.23728813"
   d="m 25.374688,53.164407 c -4.2889,-2.175121 -4.2889,-8.146914 0,-10.322034 4.389918,-2.226353 9.461984,1.706724 8.323114,6.454067 -0.630081,2.626473 -3.017388,4.520509 -5.697802,4.520509 -0.990209,0 -1.67353,-0.169845 -2.625312,-0.652542 z"
   id="path868"
   inkscape:connector-curvature="0" /><path
   style="fill:#42a5f5;fill-opacity:0.62745098;stroke-width:0.23728813"
   d="m 45.361989,53.199198 c -2.039659,-1.016405 -3.154362,-2.85848 -3.154362,-5.212665 0,-3.333233 2.483239,-5.796702 5.84322,-5.796702 1.580274,0 2.570581,0.379091 3.792147,1.451639 1.937702,1.701325 2.530572,4.444975 1.458162,6.747996 -1.415168,3.0391 -4.960787,4.293921 -7.939167,2.809732 z"
   id="path870"
   inkscape:connector-curvature="0" /></svg>