<?xml version="1.0" encoding="UTF-8" standalone="no"?>
<!-- Generator: Adobe Illustrator 19.0.0, SVG Export Plug-In . SVG Version: 6.00 Build 0)  -->

<svg
   xmlns:dc="http://purl.org/dc/elements/1.1/"
   xmlns:cc="http://creativecommons.org/ns#"
   xmlns:rdf="http://www.w3.org/1999/02/22-rdf-syntax-ns#"
   xmlns:svg="http://www.w3.org/2000/svg"
   xmlns="http://www.w3.org/2000/svg"
   xmlns:sodipodi="http://sodipodi.sourceforge.net/DTD/sodipodi-0.dtd"
   xmlns:inkscape="http://www.inkscape.org/namespaces/inkscape"
   version="1.1"
   id="Capa_1"
   x="0px"
   y="0px"
   viewBox="0 0 45 60"
   xml:space="preserve"
   sodipodi:docname="matakuliah.svg"
   width="45"
   height="60"
   inkscape:version="0.92.4 (5da689c313, 2019-01-14)"><metadata
   id="metadata39"><rdf:RDF><cc:Work
       rdf:about=""><dc:format>image/svg+xml</dc:format><dc:type
         rdf:resource="http://purl.org/dc/dcmitype/StillImage" /><dc:title /></cc:Work></rdf:RDF></metadata><defs
   id="defs37" /><sodipodi:namedview
   pagecolor="#ffffff"
   bordercolor="#666666"
   borderopacity="1"
   objecttolerance="10"
   gridtolerance="10"
   guidetolerance="10"
   inkscape:pageopacity="0"
   inkscape:pageshadow="2"
   inkscape:window-width="1920"
   inkscape:window-height="956"
   id="namedview35"
   showgrid="false"
   fit-margin-top="0"
   fit-margin-left="0"
   fit-margin-right="0"
   fit-margin-bottom="0"
   inkscape:zoom="3.9333333"
   inkscape:cx="-18.177966"
   inkscape:cy="26.949153"
   inkscape:window-x="0"
   inkscape:window-y="28"
   inkscape:window-maximized="1"
   inkscape:current-layer="layer1" />

<g
   id="g4"
   transform="translate(-2.4152542,3.0508475)">
</g>
<g
   id="g6"
   transform="translate(-2.4152542,3.0508475)">
</g>
<g
   id="g8"
   transform="translate(-2.4152542,3.0508475)">
</g>
<g
   id="g10"
   transform="translate(-2.4152542,3.0508475)">
</g>
<g
   id="g12"
   transform="translate(-2.4152542,3.0508475)">
</g>
<g
   id="g14"
   transform="translate(-2.4152542,3.0508475)">
</g>
<g
   id="g16"
   transform="translate(-2.4152542,3.0508475)">
</g>
<g
   id="g18"
   transform="translate(-2.4152542,3.0508475)">
</g>
<g
   id="g20"
   transform="translate(-2.4152542,3.0508475)">
</g>
<g
   id="g22"
   transform="translate(-2.4152542,3.0508475)">
</g>
<g
   id="g24"
   transform="translate(-2.4152542,3.0508475)">
</g>
<g
   id="g26"
   transform="translate(-2.4152542,3.0508475)">
</g>
<g
   id="g28"
   transform="translate(-2.4152542,3.0508475)">
</g>
<g
   id="g30"
   transform="translate(-2.4152542,3.0508475)">
</g>
<g
   id="g32"
   transform="translate(-2.4152542,3.0508475)">
</g>
<g
   inkscape:groupmode="layer"
   id="layer1"
   inkscape:label="Layer 1"
   transform="translate(-2.4152542,3.0508475)"><path
     style="fill:#ffb822;fill-opacity:0.62745098;stroke-width:0.25423729"
     d="m 12.181332,21.996987 -0.0034,-11.892843 0.766372,-1.5181739 0.766371,-1.5181737 h 4.69973 c 2.584852,0 4.69973,0.061007 4.69973,0.1355704 0,0.074564 -0.286017,0.6999977 -0.635593,1.3898533 l -0.635593,1.254283 -3.18e-4,12.0211639 -3.19e-4,12.021163 -2.053789,-3.432203 c -1.129583,-1.887712 -2.223657,-3.696815 -2.431274,-4.020228 -0.36764,-0.572687 -0.439972,-0.483161 -2.773036,3.432203 l -2.395549,4.020228 z"
     id="path830"
     inkscape:connector-curvature="0"
     transform="translate(2.4152542,-3.0508475)" /></g><g
   inkscape:groupmode="layer"
   id="layer2"
   inkscape:label="Layer 2"
   transform="translate(-2.4152542,3.0508475)"><path
     d="m 7.9152541,-3.0508475 c -1.547,0 -3.0329999,0.662 -4.0779999,1.817 -1.027,1.13700004 -1.533,2.659 -1.397,4.183 h -0.025 V 51.907153 c 0,2.78 2.262,5.042 5.0419999,5.042 H 47.415254 v -49.0000005 -2 -9 z M 4.4152542,51.907153 V 6.9471525 c 0.836,0.629 1.8749999,1.002 2.9999999,1.002 V 54.945153 c -1.658,-0.023 -2.9999999,-1.375 -2.9999999,-3.038 z m 40.9999998,3.042 H 9.4152541 V 7.9491525 H 12.415254 V 33.150153 c 0,0.682 0.441,1.262 1.099,1.444 0.137,0.037 0.273,0.056 0.408,0.056 0.015,0 0.029,-0.005 0.044,-0.006 0.045,-0.001 0.088,-0.012 0.133,-0.017 0.103,-0.012 0.202,-0.033 0.299,-0.066 0.048,-0.016 0.093,-0.035 0.138,-0.056 0.094,-0.043 0.18,-0.097 0.263,-0.159 0.036,-0.027 0.073,-0.05 0.106,-0.08 0.111,-0.099 0.212,-0.211 0.292,-0.346 l 4.217,-7.028 4.217,7.029 c 0.327,0.545 0.939,0.801 1.55,0.687 0.045,-0.008 0.089,-0.002 0.134,-0.014 0.657,-0.183 1.099,-0.763 1.099,-1.444 V 7.9491525 h 19 V 54.949153 Z m -20.86,-48.5170005 -0.003,0.007 -0.137,0.274 v 0.042 l -0.1,0.23 0.1,0.152 v 0.112 24.0900005 l -5,-8.333 -5,8.333 V 7.1851525 l 1.618,-3.236 h 9.764 z m 2.478,-0.483 2,-4 h -14.236 l -2,4 H 8.1272541 c -1.894,0 -3.5159999,-1.379 -3.6929999,-3.14 -0.101,-0.998 0.214,-1.95699996 0.887,-2.70099996 0.6649999,-0.737 1.6109999,-1.15900004 2.5939999,-1.15900004 H 45.415254 v 1.00000004 h -5 c -0.553,0 -1,0.447 -1,1 0,0.55299996 0.447,0.99999996 1,0.99999996 h 5 v 1 h -4 c -0.553,0 -1,0.447 -1,1 0,0.553 0.447,1 1,1 h 4 v 1 z"
     id="path2"
     inkscape:connector-curvature="0" /></g></svg>