<?xml version="1.0" encoding="UTF-8"?>
<svg version="1.1" viewBox="0 0 84.438 54.87" xml:space="preserve" xmlns="http://www.w3.org/2000/svg" xmlns:cc="http://creativecommons.org/ns#" xmlns:dc="http://purl.org/dc/elements/1.1/" xmlns:rdf="http://www.w3.org/1999/02/22-rdf-syntax-ns#"><metadata><rdf:RDF><cc:Work rdf:about=""><dc:format>image/svg+xml</dc:format><dc:type rdf:resource="http://purl.org/dc/dcmitype/StillImage"/><dc:title/></cc:Work></rdf:RDF></metadata><defs><clipPath id="a"><path d="m2509.4 1803.1h-2509.4v1630.7h2509.4z" clip-rule="evenodd"/></clipPath></defs><g transform="matrix(1.3333 0 0 -1.3333 5.9331e-8 54.818)"><g transform="scale(.1)"><path d="m633.29-0.388h-633.29v411.52h633.29v-411.52" fill="#1a1a27" fill-rule="evenodd"/><g transform="matrix(.25236 0 0 .25236 -4.4498e-7 -455.43)"><g clip-path="url(#a)" fill-rule="evenodd"><path d="m1645.8 2765.9c-32.22-32.22-84.45-32.22-116.67 0-32.21 32.21-32.21 84.46 0 116.67l300.53 300.53c32.22 32.22 84.45 32.22 116.67 0 32.22-32.21 32.22-84.45 0-116.67l-300.53-300.53" fill="#576574"/><path d="m-20.902 1644.5c-32.219-32.2-84.453-32.2-116.67 0-32.215 32.23-32.215 84.48 0 116.69l300.53 300.53c32.219 32.22 84.453 32.22 116.67 0 32.215-32.22 32.215-84.46 0-116.67l-300.53-300.55" fill="#2e86de"/><path d="m2091.1 2766.3c-32.21-32.21-84.45-32.21-116.67 0-32.21 32.22-32.21 84.47 0 116.68l576.45 576.45c32.21 32.22 84.45 32.22 116.67 0 32.21-32.22 32.21-84.46 0-116.67l-576.45-576.46" fill="#ff9f43"/><path d="m1089.4 3110.6c-32.22-32.22-84.45-32.22-116.67 0-32.215 32.21-32.215 84.45 0 116.67l392.26 392.26c32.21 32.22 84.45 32.22 116.66 0 32.23-32.22 32.23-84.46 0-116.67l-392.25-392.26" fill="#ff9f43"/><path d="m2329.4 2552.5c-32.21-32.21-84.45-32.21-116.67 0-32.21 32.22-32.21 84.46 0 116.68l342.34 342.33c32.22 32.22 84.45 32.22 116.67 0s32.22-84.45 0-116.67l-342.34-342.34" fill="#2e86de"/><path d="m1582 3154.3c-32.21-32.21-84.45-32.21-116.67 0-32.21 32.22-32.21 84.46 0 116.68l342.34 342.33c32.21 32.22 84.45 32.22 116.67 0 32.21-32.21 32.21-84.46 0-116.67l-342.34-342.34" fill="#ee5253"/><path d="m-218 1877.3c-32.219-32.21-84.453-32.21-116.67 0-32.219 32.22-32.219 84.46 0 116.68l342.34 342.33c32.215 32.22 84.449 32.22 116.67 0 32.219-32.22 32.219-84.46 0-116.67l-342.33-342.34" fill="#ee5253"/><path d="m1756.7 2421.4c-32.23-32.21-84.46-32.21-116.68 0-32.22 32.22-32.22 84.46 0 116.68l115.72 115.73c32.23 32.21 84.45 32.21 116.68 0 32.21-32.22 32.21-84.46 0-116.68l-115.72-115.73" fill="#10ac84"/><path d="m555.52 1847.3c-32.226-32.21-84.464-32.21-116.68 0-32.219 32.22-32.219 84.46 0 116.68l86.547 86.54c32.226 32.22 84.453 32.22 116.68 0 32.207-32.21 32.207-84.45 0-116.67l-86.547-86.55" fill="#48dbfb"/><path d="m874.08 3317.6c-32.226-32.22-84.465-32.22-116.68 0-32.218 32.22-32.218 84.46 0 116.67l115.72 115.73c32.227 32.22 84.453 32.22 116.68 0 32.209-32.21 32.209-84.46 0-116.67l-115.72-115.73" fill="#576574"/><path d="m2486.7 2277.9c-32.23-32.21-84.46-32.21-116.68 0-32.22 32.22-32.22 84.46 0 116.68l115.72 115.73c32.23 32.21 84.45 32.21 116.68 0 32.21-32.22 32.21-84.46 0-116.68l-115.72-115.73" fill="#10ac84"/><path d="m2121.6 2334.6c-32.23-32.21-84.46-32.21-116.68 0-32.22 32.22-32.22 84.46 0 116.68l42.79 42.8c32.23 32.22 84.46 32.22 116.68 0 32.21-32.22 32.21-84.46 0-116.67l-42.79-42.81" fill="#48dbfb"/><path d="m2136.6 3275.4c-32.23-32.22-84.46-32.22-116.68 0s-32.22 84.46 0 116.68l42.79 42.8c32.23 32.21 84.46 32.21 116.68 0 32.21-32.22 32.21-84.46 0-116.68l-42.79-42.8" fill="#2e86de"/></g></g></g></g></svg>
