<?xml version="1.0" encoding="UTF-8" standalone="no"?>
<svg
   xmlns:dc="http://purl.org/dc/elements/1.1/"
   xmlns:cc="http://creativecommons.org/ns#"
   xmlns:rdf="http://www.w3.org/1999/02/22-rdf-syntax-ns#"
   xmlns:svg="http://www.w3.org/2000/svg"
   xmlns="http://www.w3.org/2000/svg"
   xmlns:sodipodi="http://sodipodi.sourceforge.net/DTD/sodipodi-0.dtd"
   xmlns:inkscape="http://www.inkscape.org/namespaces/inkscape"
   id="Layer_5"
   enable-background="new 0 0 64 64"
   height="496"
   viewBox="0 0 62 62"
   width="496"
   version="1.1"
   sodipodi:docname="perkuliahan.svg"
   inkscape:version="0.92.4 (5da689c313, 2019-01-14)">
  <metadata
     id="metadata21">
    <rdf:RDF>
      <cc:Work
         rdf:about="">
        <dc:format>image/svg+xml</dc:format>
        <dc:type
           rdf:resource="http://purl.org/dc/dcmitype/StillImage" />
        <dc:title></dc:title>
      </cc:Work>
    </rdf:RDF>
  </metadata>
  <defs
     id="defs19" />
  <sodipodi:namedview
     pagecolor="#ffffff"
     bordercolor="#666666"
     borderopacity="1"
     objecttolerance="10"
     gridtolerance="10"
     guidetolerance="10"
     inkscape:pageopacity="0"
     inkscape:pageshadow="2"
     inkscape:window-width="1920"
     inkscape:window-height="956"
     id="namedview17"
     showgrid="false"
     fit-margin-top="0"
     fit-margin-left="0"
     fit-margin-right="0"
     fit-margin-bottom="0"
     inkscape:zoom="1.3037281"
     inkscape:cx="247.68369"
     inkscape:cy="240.04713"
     inkscape:window-x="0"
     inkscape:window-y="28"
     inkscape:window-maximized="1"
     inkscape:current-layer="layer4" />
  <g
     inkscape:groupmode="layer"
     id="layer4"
     inkscape:label="zz"
     transform="translate(-2.1242847,-0.00589085)">
    <rect
       style="fill:#fd397a;fill-opacity:0.62711864;stroke-width:0.27244979"
       id="rect910"
       width="25.92935"
       height="26.148022"
       x="36.194935"
       y="1.8578701" />
  </g>
  <g
     inkscape:groupmode="layer"
     id="layer3"
     inkscape:label="Bot"
     transform="translate(-2.1242847,-0.00589085)">
    <g
       transform="translate(1.1242847,-0.99410915)"
       id="g871">
      <path
         inkscape:connector-curvature="0"
         id="path4"
         d="m 41,23 v 2 h -2 v -8 h -2 v 8 h -2 v 2 H 59 V 13 H 57 V 25 H 55 V 15 h -2 v 10 h -2 v -4 h -2 v 4 h -2 v -6 h -2 v 6 h -2 v -2 z" />
      <path
         inkscape:connector-curvature="0"
         id="path6"
         d="m 43,5 h 2 v 2 h -2 z" />
      <path
         inkscape:connector-curvature="0"
         id="path8"
         d="M 47,5 H 59 V 7 H 47 Z" />
      <path
         inkscape:connector-curvature="0"
         id="path10"
         d="m 43,9 h 16 v 2 H 43 Z" />
      <path
         inkscape:connector-curvature="0"
         id="path12"
         d="m 25,21 h 2 v 2 h -2 z" />
      <path
         inkscape:connector-curvature="0"
         id="path14"
         d="m 25,25 h 2 v 2 h -2 z" />
      <path
         inkscape:connector-curvature="0"
         id="path2"
         d="M 63,31 V 1 H 21 V 11 H 15.46 C 16.414,9.937 17,8.538 17,7 17,3.691 14.309,1 11,1 7.691,1 5,3.691 5,7 5,8.796 5.797,10.406 7.051,11.506 3.535,12.731 1,16.071 1,20 v 3 c 0,2.206 1.794,4 4,4 v 10.5 c 0,0.539 0.133,1.044 0.351,1.5 H 1 v 8 H 5.35 C 5.128,47.627 5,48.298 5,49 5,50.796 5.797,52.406 7.051,53.506 3.535,54.731 1,58.071 1,62 v 1 h 18 2 16 2 18 V 62 C 57,58.071 54.465,54.731 50.949,53.506 52.203,52.406 53,50.796 53,49 53,48.298 52.872,47.627 52.65,47 H 63 v -8 h -6.434 l -4.8,-8 z M 23,3 H 61 V 29 H 23 V 17 h 3 c 1.302,0 2.402,-0.839 2.816,-2 H 41 V 5 H 25 v 6 H 23 Z M 16.649,39 C 16.867,38.544 17,38.039 17,37.5 V 17 h 4 v 14 h 11.234 l -4.8,8 z m 17.917,-8 h 2.668 l -4.8,8 H 29.766 Z M 39,31.944 V 39 H 34.766 Z M 41,31 h 2 v 8 H 41 Z M 45,31.944 49.234,39 H 45 Z M 28.816,13 C 28.514,12.153 27.847,11.486 27,11.184 V 7 h 12 v 6 z M 11,3 c 2.206,0 4,1.794 4,4 0,2.206 -1.794,4 -4,4 C 8.794,11 7,9.206 7,7 7,4.794 8.794,3 11,3 Z M 7,37.5 V 20 H 5 v 5 C 3.897,25 3,24.103 3,23 v -3 c 0,-3.86 3.14,-7 7,-7 h 16 c 0.551,0 1,0.449 1,1 0,0.551 -0.449,1 -1,1 H 15 V 37.5 C 15,38.327 14.327,39 13.5,39 12.673,39 12,38.327 12,37.5 V 24 H 10 V 37.5 C 10,38.327 9.327,39 8.5,39 7.673,39 7,38.327 7,37.5 Z m 4,7.5 c 2.206,0 4,1.794 4,4 0,2.206 -1.794,4 -4,4 -2.206,0 -4,-1.794 -4,-4 0,-2.206 1.794,-4 4,-4 z M 3.071,61 C 3.558,57.612 6.479,55 10,55 h 2 c 3.521,0 6.442,2.612 6.929,6 z M 14.949,53.506 C 16.203,52.406 17,50.796 17,49 17,48.298 16.872,47.627 16.65,47 h 6.7 C 23.128,47.627 23,48.298 23,49 c 0,1.796 0.797,3.406 2.051,4.506 -2.193,0.764 -4,2.348 -5.051,4.389 -1.052,-2.041 -2.859,-3.625 -5.051,-4.389 z M 33,49 c 0,2.206 -1.794,4 -4,4 -2.206,0 -4,-1.794 -4,-4 0,-2.206 1.794,-4 4,-4 2.206,0 4,1.794 4,4 z M 21.071,61 C 21.558,57.612 24.479,55 28,55 h 2 c 3.521,0 6.442,2.612 6.929,6 z M 32.949,53.506 C 34.203,52.406 35,50.796 35,49 35,48.298 34.872,47.627 34.65,47 h 6.7 C 41.128,47.627 41,48.298 41,49 c 0,1.796 0.797,3.406 2.051,4.506 -2.193,0.764 -4,2.348 -5.051,4.389 -1.052,-2.041 -2.859,-3.625 -5.051,-4.389 z M 48,55 c 3.521,0 6.442,2.612 6.929,6 H 39.071 C 39.558,57.612 42.479,55 46,55 Z m -1,-2 c -2.206,0 -4,-1.794 -4,-4 0,-2.206 1.794,-4 4,-4 2.206,0 4,1.794 4,4 0,2.206 -1.794,4 -4,4 z M 61,45 H 51.46 C 50.361,43.776 48.772,43 47,43 c -1.772,0 -3.36,0.776 -4.46,2 H 33.46 C 32.361,43.776 30.772,43 29,43 c -1.772,0 -3.36,0.776 -4.46,2 H 15.46 C 14.361,43.776 12.772,43 11,43 9.228,43 7.64,43.776 6.54,45 H 3 v -4 h 58 z m -6.766,-6 h -2.668 l -4.8,-8 h 2.668 z" />
    </g>
  </g>
</svg>
