<?xml version="1.0" encoding="UTF-8" standalone="no"?>
<!-- Generator: Adobe Illustrator 19.0.0, SVG Export Plug-In . SVG Version: 6.00 Build 0)  -->

<svg
   xmlns:dc="http://purl.org/dc/elements/1.1/"
   xmlns:cc="http://creativecommons.org/ns#"
   xmlns:rdf="http://www.w3.org/1999/02/22-rdf-syntax-ns#"
   xmlns:svg="http://www.w3.org/2000/svg"
   xmlns="http://www.w3.org/2000/svg"
   xmlns:sodipodi="http://sodipodi.sourceforge.net/DTD/sodipodi-0.dtd"
   xmlns:inkscape="http://www.inkscape.org/namespaces/inkscape"
   version="1.1"
   id="Capa_1"
   x="0px"
   y="0px"
   viewBox="0 0 464 420.64001"
   xml:space="preserve"
   sodipodi:docname="ruangan.svg"
   width="464"
   height="420.64001"
   inkscape:version="0.92.4 (5da689c313, 2019-01-14)"><metadata
   id="metadata157"><rdf:RDF><cc:Work
       rdf:about=""><dc:format>image/svg+xml</dc:format><dc:type
         rdf:resource="http://purl.org/dc/dcmitype/StillImage" /><dc:title></dc:title></cc:Work></rdf:RDF></metadata><defs
   id="defs155" /><sodipodi:namedview
   pagecolor="#ffffff"
   bordercolor="#666666"
   borderopacity="1"
   objecttolerance="10"
   gridtolerance="10"
   guidetolerance="10"
   inkscape:pageopacity="0"
   inkscape:pageshadow="2"
   inkscape:window-width="1920"
   inkscape:window-height="956"
   id="namedview153"
   showgrid="false"
   fit-margin-top="0"
   fit-margin-left="0"
   fit-margin-right="0"
   fit-margin-bottom="0"
   inkscape:zoom="2.0344828"
   inkscape:cx="223.01076"
   inkscape:cy="159.50769"
   inkscape:window-x="0"
   inkscape:window-y="28"
   inkscape:window-maximized="1"
   inkscape:current-layer="layer1" />



































<g
   inkscape:groupmode="layer"
   id="layer1"
   inkscape:label="Layer 1"
   transform="translate(-16.853644,-29.850741)"><rect
     style="fill:#0abb87;fill-opacity:0.62745098"
     id="rect1347"
     width="115.39024"
     height="102.87804"
     x="191.46339"
     y="335.13074" /></g><g
   inkscape:groupmode="layer"
   id="layer2"
   inkscape:label="Layer 2"
   transform="translate(-16.853644,-29.850741)"><g
     transform="translate(16.853644,8.1707414)"
     id="g1087"><g
       id="g6"><g
         id="g4"><path
           inkscape:connector-curvature="0"
           id="path2"
           d="M 456,217.12 H 353.68 v -19.76 c -0.005,-2.886 -1.564,-5.546 -4.08,-6.96 L 240,128.8 V 97.44 h 21.68 v 11.92 c 0,4.418 3.582,8 8,8 h 65.36 c 4.418,-0.002 7.998,-3.585 7.997,-8.003 0,-0.926 -0.162,-1.845 -0.477,-2.717 L 336,88 342.64,69.76 c 1.502,-4.155 -0.648,-8.741 -4.803,-10.243 -0.871,-0.315 -1.79,-0.476 -2.717,-0.477 h -29.76 v -11.6 c 0,-4.418 -3.582,-8 -8,-8 H 240 v -9.76 c 0,-4.418 -3.582,-8 -8,-8 -4.418,0 -8,3.582 -8,8 v 99.12 l -109.6,61.52 c -2.516,1.414 -4.075,4.074 -4.08,6.96 v 19.76 H 8 c -4.418,0 -8,3.582 -8,8 v 209.28 c 0,4.418 3.582,8 8,8 h 448 c 4.418,0 8,-3.582 8,-8 v -209.2 c 0,-4.418 -3.582,-8 -8,-8 z M 305.36,89.44 305.04,89.12 V 75.36 h 18.24 L 320,85.6 c -0.655,1.782 -0.655,3.738 0,5.52 l 3.76,10.24 h -46.08 v -3.92 h 19.68 c 4.418,0 8,-3.582 8,-8 z M 240,55.44 h 49.36 V 67.36 81.44 H 240 Z M 110.32,426.32 H 16 v -193.2 h 94.32 z m 113.68,0 h -42 v -91.36 h 42 z m 58,0 h -42 v -91.36 h 42 z m 56,0 h -40 v -99.36 c 0,-4.418 -3.582,-8 -8,-8 H 174 c -4.418,0 -8,3.582 -8,8 v 99.36 h -40 v -224 L 232,142.64 337.68,202 338,225.04 Z m 110,0 H 353.68 V 233.12 H 448 Z" /></g></g><g
       id="g12"><g
         id="g10"><path
           inkscape:connector-curvature="0"
           id="path8"
           d="m 232,167.12 c -18.526,0.044 -33.52,15.074 -33.52,33.6 0.044,18.513 15.087,33.484 33.6,33.44 18.513,-0.044 33.484,-15.087 33.44,-33.6 -0.044,-18.481 -15.039,-33.44 -33.52,-33.44 z m 0,51.04 c -9.676,-0.044 -17.484,-7.924 -17.44,-17.6 0.044,-9.613 7.826,-17.396 17.44,-17.44 9.689,0.044 17.52,7.911 17.52,17.6 h 0.08 c -0.044,9.676 -7.924,17.484 -17.6,17.44 z" /></g></g><g
       id="g18"><g
         id="g16"><rect
           id="rect14"
           height="32"
           width="16"
           y="250.72"
           x="35.279999" /></g></g><g
       id="g24"><g
         id="g22"><rect
           id="rect20"
           height="32"
           width="16"
           y="250.72"
           x="74.720001" /></g></g><g
       id="g30"><g
         id="g28"><rect
           id="rect26"
           height="16"
           width="32"
           y="250.72"
           x="150.32001" /></g></g><g
       id="g36"><g
         id="g34"><rect
           id="rect32"
           height="16"
           width="32"
           y="250.72"
           x="216" /></g></g><g
       id="g42"><g
         id="g40"><rect
           id="rect38"
           height="16"
           width="32"
           y="250.72"
           x="281.67999" /></g></g><g
       id="g48"><g
         id="g46"><rect
           id="rect44"
           height="16"
           width="32"
           y="288"
           x="150.32001" /></g></g><g
       id="g54"><g
         id="g52"><rect
           id="rect50"
           height="16"
           width="32"
           y="288"
           x="216" /></g></g><g
       id="g60"><g
         id="g58"><rect
           id="rect56"
           height="16"
           width="32"
           y="288"
           x="281.67999" /></g></g><g
       id="g66"><g
         id="g64"><rect
           id="rect62"
           height="32"
           width="16"
           y="313.67999"
           x="35.279999" /></g></g><g
       id="g72"><g
         id="g70"><rect
           id="rect68"
           height="32"
           width="16"
           y="313.67999"
           x="74.720001" /></g></g><g
       id="g78"><g
         id="g76"><rect
           id="rect74"
           height="32"
           width="16"
           y="376.72"
           x="35.279999" /></g></g><g
       id="g84"><g
         id="g82"><rect
           id="rect80"
           height="32"
           width="16"
           y="376.72"
           x="74.720001" /></g></g><g
       id="g90"><g
         id="g88"><rect
           id="rect86"
           height="32"
           width="16"
           y="250.72"
           x="373.28" /></g></g><g
       id="g96"><g
         id="g94"><rect
           id="rect92"
           height="32"
           width="16"
           y="250.72"
           x="412.72" /></g></g><g
       id="g102"><g
         id="g100"><rect
           id="rect98"
           height="32"
           width="16"
           y="313.67999"
           x="373.28" /></g></g><g
       id="g108"><g
         id="g106"><rect
           id="rect104"
           height="32"
           width="16"
           y="313.67999"
           x="412.72" /></g></g><g
       id="g114"><g
         id="g112"><rect
           id="rect110"
           height="32"
           width="16"
           y="376.72"
           x="373.28" /></g></g><g
       id="g120"><g
         id="g118"><rect
           id="rect116"
           height="32"
           width="16"
           y="376.72"
           x="412.72" /></g></g><g
       id="g122" /><g
       id="g124" /><g
       id="g126" /><g
       id="g128" /><g
       id="g130" /><g
       id="g132" /><g
       id="g134" /><g
       id="g136" /><g
       id="g138" /><g
       id="g140" /><g
       id="g142" /><g
       id="g144" /><g
       id="g146" /><g
       id="g148" /><g
       id="g150" /><path
       inkscape:connector-curvature="0"
       id="path976"
       d="m 229.16205,217.58472 c -3.6439,-0.59612 -6.87117,-2.37498 -9.59838,-5.29059 -9.07611,-9.70309 -4.3495,-25.18982 8.66428,-28.38846 2.78353,-0.68417 3.85912,-0.73091 6.31397,-0.27438 5.94893,1.10632 10.67287,4.64917 13.09788,9.82312 1.14011,2.43251 1.31764,3.44141 1.31647,7.48118 -10e-4,3.97292 -0.17583,4.9972 -1.17092,6.86628 -1.77698,3.33771 -3.03841,4.8675 -5.46332,6.62566 -3.92591,2.84643 -8.43987,3.92937 -13.15998,3.15719 z"
       style="fill:#0abb87;fill-opacity:0.62745098;stroke-width:0.49152541" /><path
       inkscape:connector-curvature="0"
       id="path978"
       d="M 240.35593,68.223729 V 55.444068 h 24.33051 24.33051 V 68.223729 81.00339 h -24.33051 -24.33051 z"
       style="fill:#0abb87;fill-opacity:0.62745098;stroke-width:0.49152541" /><path
       inkscape:connector-curvature="0"
       id="path980"
       d="m 277.71186,99.435593 v -1.720339 h 10.5358 c 6.24902,0 11.0988,-0.212714 11.91949,-0.522795 1.75825,-0.664314 4.03881,-2.80194 4.68615,-4.392459 0.28234,-0.69371 0.46154,-4.70699 0.41152,-9.216102 l -0.0886,-7.987288 h 8.93058 c 6.95961,0 8.87837,0.136088 8.69397,0.616617 -1.43362,3.735955 -3.30923,10.609926 -3.30923,12.12807 0,1.055654 0.87816,4.370806 1.95146,7.367003 l 1.95147,5.44763 h -22.8413 -22.8413 z"
       style="fill:#0abb87;fill-opacity:0.62745098;stroke-width:0.49152541" /></g></g></svg>