<?xml version="1.0" encoding="UTF-8" standalone="no"?>
<svg
   xmlns:dc="http://purl.org/dc/elements/1.1/"
   xmlns:cc="http://creativecommons.org/ns#"
   xmlns:rdf="http://www.w3.org/1999/02/22-rdf-syntax-ns#"
   xmlns:svg="http://www.w3.org/2000/svg"
   xmlns="http://www.w3.org/2000/svg"
   xmlns:sodipodi="http://sodipodi.sourceforge.net/DTD/sodipodi-0.dtd"
   xmlns:inkscape="http://www.inkscape.org/namespaces/inkscape"
   id="Layer_1"
   height="421.82367"
   viewBox="0 0 105.49001 105.45592"
   width="421.96002"
   data-name="Layer 1"
   version="1.1"
   sodipodi:docname="user.svg"
   inkscape:version="0.92.4 (5da689c313, 2019-01-14)">
  <metadata
     id="metadata23">
    <rdf:RDF>
      <cc:Work
         rdf:about="">
        <dc:format>image/svg+xml</dc:format>
        <dc:type
           rdf:resource="http://purl.org/dc/dcmitype/StillImage" />
        <dc:title></dc:title>
      </cc:Work>
    </rdf:RDF>
  </metadata>
  <defs
     id="defs21" />
  <sodipodi:namedview
     pagecolor="#ffffff"
     bordercolor="#666666"
     borderopacity="1"
     objecttolerance="10"
     gridtolerance="10"
     guidetolerance="10"
     inkscape:pageopacity="0"
     inkscape:pageshadow="2"
     inkscape:window-width="1920"
     inkscape:window-height="956"
     id="namedview19"
     showgrid="false"
     fit-margin-top="0"
     fit-margin-left="0"
     fit-margin-right="0"
     fit-margin-bottom="0"
     inkscape:zoom="0.921875"
     inkscape:cx="226.16645"
     inkscape:cy="178.36946"
     inkscape:window-x="0"
     inkscape:window-y="28"
     inkscape:window-maximized="1"
     inkscape:current-layer="layer1" />
  <g
     inkscape:groupmode="layer"
     id="layer1"
     inkscape:label="1"
     transform="translate(-9.62788,-13.983905)">
    <circle
       style="fill:#d4e157;fill-opacity:0.62745098;stroke-width:0.24542683"
       id="path900"
       cx="59.254997"
       cy="47.8466"
       r="21.830507" />
  </g>
  <g
     inkscape:groupmode="layer"
     id="layer2"
     inkscape:label="2"
     transform="translate(-9.62788,-13.983905)">
    <g
       id="g896"
       transform="translate(-107.38983,141.55932)">
      <path
         id="path2"
         d="m 198.72371,-55.164502 -2.658,-0.242 a 1.736,1.736 0 0 0 -1.45,-2.626 l -10.95,-0.306 a 1.686,1.686 0 0 0 -1.395,0.652 5.448,5.448 0 0 1 -1.341,-1.764 28.1,28.1 0 0 0 16.243,-19.935 7.456,7.456 0 0 0 0.58,-14.621 27.82,27.82 0 0 0 -4.5,-14.706998 12.077,12.077 0 1 0 -20.562,-12.625 27.991,27.991 0 0 0 -30.912,27.330998 7.456,7.456 0 0 0 0.58,14.621 28.1,28.1 0 0 0 16.241,19.937 5.456,5.456 0 0 1 -1.342,1.764 1.721,1.721 0 0 0 -1.392,-0.653 l -10.947,0.305 a 1.736,1.736 0 0 0 -1.45,2.626 l -2.659,0.242 c -12.905,0.047 -23.792,11.418 -23.792,24.873 v 6.421005 a 1.75,1.75 0 0 0 3.5,0 v -6.421005 c 0,-11.585 9.33,-21.373 20.373,-21.373 0.053,0 0.106,0 0.159,-0.007 l 5.339,-0.487 5.115,5.551 -1.615,1.162 a 1.75,1.75 0 0 0 0.224,2.978 l 17.9,9.169 v 9.400005 a 1.75,1.75 0 0 0 3.5,0 v -9.400005 l 17.9,-9.169 a 1.75,1.75 0 0 0 0.224,-2.978 l -1.615,-1.162 5.115,-5.551 5.339,0.487 c 0.053,0 0.106,0.007 0.159,0.007 11.043,0 20.373,9.788 20.373,21.373 v 6.421005 a 1.75,1.75 0 0 0 3.5,0 v -6.421005 c 0.008,-13.453 -10.879,-24.824 -23.784,-24.872 z m 1.258,-31.589 a 3.958,3.958 0 0 1 -2.216,3.542 v -7.083 a 3.958,3.958 0 0 1 2.216,3.541 z m -16.716,-37.334998 a 8.577,8.577 0 0 1 7.711,12.35 28.029,28.029 0 0 0 -14.538,-8.943 8.544,8.544 0 0 1 6.827,-3.407 z m -38,30.593998 a 24.5,24.5 0 0 1 49,0 v 8.375 c 0,0.17 -0.009,0.337 -0.013,0.506 a 4.643,4.643 0 0 1 -1.765,-3.625 v -2.525 a 8.73,8.73 0 0 0 -4.282,-7.562 33.24,33.24 0 0 1 -8.993,-7.712998 1.751,1.751 0 0 0 -1.216,-0.693 1.826,1.826 0 0 0 -0.186,-0.01 1.751,1.751 0 0 0 -1.149,0.43 39.385,39.385 0 0 1 -21.715,9.299998 8.819,8.819 0 0 0 -7.9,8.77 4.643,4.643 0 0 1 -1.766,3.628 c 0,-0.169 -0.013,-0.336 -0.013,-0.506 z m -5.716,6.742 a 3.958,3.958 0 0 1 2.216,-3.542 v 7.083 a 3.958,3.958 0 0 1 -2.216,-3.542 z m 6.156,6.235 1.69,-1.307 a 8.165,8.165 0 0 0 3.148,-6.414 5.325,5.325 0 0 1 4.777,-5.291 43.057,43.057 0 0 0 22.269,-8.999998 37.275,37.275 0 0 0 8.861,7.234998 5.221,5.221 0 0 1 2.537,4.534 v 2.522 a 8.165,8.165 0 0 0 3.148,6.417 l 1.69,1.307 a 24.5,24.5 0 0 1 -48.121,0 z m 24.06,23.398 a 27.9,27.9 0 0 0 7.864,-1.132 8.957,8.957 0 0 0 2.754,3.545 l -10.618,17.03 -10.617,-17.028 a 8.971,8.971 0 0 0 2.752,-3.547 27.906,27.906 0 0 0 7.865,1.132 z m -15.509,12.842 0.893,-0.643 a 1.75,1.75 0 0 0 0.265,-2.606 l -6.556,-7.112 6.1,-0.17 9.977,16 z m 29.86,-3.25 a 1.75,1.75 0 0 0 0.265,2.606 l 0.893,0.643 -10.679,5.468 9.977,-16 6.1,0.17 z"
         inkscape:connector-curvature="0"
         style="stroke-width:1" />
      <path
         id="path4"
         d="m 200.93271,-36.119502 a 1.75,1.75 0 0 0 -1.75,1.75 v 10.500005 a 1.75,1.75 0 0 0 3.5,0 v -10.500005 a 1.75,1.75 0 0 0 -1.75,-1.75 z"
         inkscape:connector-curvature="0"
         style="stroke-width:1" />
      <path
         id="path6"
         d="m 138.59871,-36.119502 a 1.75,1.75 0 0 0 -1.75,1.75 v 10.500005 a 1.75,1.75 0 0 0 3.5,0 v -10.500005 a 1.75,1.75 0 0 0 -1.75,-1.75 z"
         inkscape:connector-curvature="0"
         style="stroke-width:1" />
      <path
         id="path8"
         d="m 160.88771,-88.538502 a 2.583,2.583 0 1 0 2.583,2.583 2.586,2.586 0 0 0 -2.583,-2.583 z"
         inkscape:connector-curvature="0"
         style="stroke-width:1" />
      <path
         id="path10"
         d="m 178.64371,-83.369502 a 2.583,2.583 0 1 0 -2.583,-2.583 2.587,2.587 0 0 0 2.583,2.583 z"
         inkscape:connector-curvature="0"
         style="stroke-width:1" />
      <path
         id="path12"
         d="m 167.09571,-76.602502 1.67,1.164 a 1.75,1.75 0 0 0 2,-2.865 l -0.67,-0.47 1.361,-5.24 a 1.7502103,1.7502103 0 0 0 -3.388,-0.88 l -1.663,6.417 a 1.75,1.75 0 0 0 0.69,1.874 z"
         inkscape:connector-curvature="0"
         style="stroke-width:1" />
      <path
         id="path14"
         d="m 175.50271,-69.138502 a 1.7502013,1.7502013 0 1 0 -1.057,-3.337 18.607,18.607 0 0 1 -9.4,-0.012 1.75,1.75 0 0 0 -0.98,3.36 23.29,23.29 0 0 0 5.979,0.774 18.166,18.166 0 0 0 5.458,-0.785 z"
         inkscape:connector-curvature="0"
         style="stroke-width:1" />
      <path
         id="path16"
         d="m 194.56571,-29.838502 h -7.8 a 1.75,1.75 0 0 0 0,3.499995 h 7.8 a 1.75,1.75 0 0 0 0,-3.499995 z"
         inkscape:connector-curvature="0"
         style="stroke-width:1" />
    </g>
  </g>
</svg>
